<svg xmlns="http://www.w3.org/2000/svg" xmlns:xlink="http://www.w3.org/1999/xlink" viewBox="0 0 109 101"><defs><style>.a{clip-path:url(#b);}.b,.d{fill:#fa6640;}.b{font-size:30px;font-family:Noteworthy-Bold, Noteworthy;font-weight:700;}.c{fill:none;stroke:#fa6640;stroke-width:2px;}.d{stroke:rgba(112,112,112,0);}</style><clipPath id="b"><rect width="109" height="101"/></clipPath></defs><g id="a" class="a"><text class="b" transform="translate(34.7 76.263) rotate(-30)"><tspan x="0" y="0">AND</tspan></text><line class="c" y1="35" x2="54" transform="translate(39.5 50.5)"/><line class="c" y1="35" x2="54" transform="translate(42.5 53.5)"/><line class="c" y1="35" x2="54" transform="translate(21.5 12.5)"/><line class="c" y1="35" x2="54" transform="translate(19.5 8.5)"/><path class="d" d="M498.5,683.409s-3.309-3.673-6.881-2.248a7.451,7.451,0,0,0-4.363,4.84s3.923,1.941,6.129,1.574S498.5,683.409,498.5,683.409Z" transform="matrix(-0.574, 0.819, -0.819, -0.574, 870.216, 83.821)"/><path class="d" d="M498.524,683.414s-3.316-3.681-6.9-2.253a7.467,7.467,0,0,0-4.372,4.85s3.932,1.945,6.142,1.577S498.524,683.414,498.524,683.414Z" transform="translate(796.911 383.747) rotate(147)"/><path class="d" d="M497.993,683.292s-3.16-3.508-6.571-2.147a7.115,7.115,0,0,0-4.166,4.622s3.746,1.853,5.853,1.5S497.993,683.292,497.993,683.292Z" transform="translate(162.776 882.424) rotate(-155)"/><path class="d" d="M498.692,683.452s-3.366-3.736-7-2.286a7.578,7.578,0,0,0-4.437,4.922s3.99,1.974,6.233,1.6S498.692,683.452,498.692,683.452Z" transform="translate(-739.766 178.036) rotate(-66)"/><path class="d" d="M499.584,683.657s-3.628-4.027-7.544-2.465a8.169,8.169,0,0,0-4.784,5.306s4.3,2.128,6.719,1.726S499.584,683.657,499.584,683.657Z" transform="translate(-641.614 -380.129) rotate(-26)"/><path class="d" d="M497.858,683.261s-3.12-3.464-6.488-2.12a7.026,7.026,0,0,0-4.114,4.564s3.7,1.83,5.779,1.484S497.858,683.261,497.858,683.261Z" transform="matrix(0.97, 0.242, -0.242, 0.97, -209.157, -740.21)"/></g></svg>