<svg xmlns="http://www.w3.org/2000/svg" viewBox="0 0 306.64 176.006"><defs><style>.a{fill:#fa6640;stroke:rgba(0,0,0,0);}</style></defs><path class="a" d="M.2,338.2c0-8.6,3.6-16.4,12.6-26,11.4-11.8,27.6-22.6,53.8-32.6l1.2-3.2c9.4-27,16-42.6,24.4-59,9.4-18.2,19.4-29.4,24-29.4,3.6-.2,9,5.2,9,7.6,0,1.4-1,2.4-3.6,5.8C107,221,95.4,245.6,84.2,273.8a84.773,84.773,0,0,1,15.6-2.6c.351-.015.68-.015.992,0,7.63-12.01,23.216-23.219,35.658-23.219,3.9,0,6.11,1.3,7.41,3.12.78,1.04.13,1.95-1.04,1.43a7.067,7.067,0,0,0-2.6-.52c-15.73,0-34.58,22.62-34.58,32.5,0,2.6,1.039,3.51,2.209,3.51,3.51,0,12.22-7.93,20.8-18.85,4.161-5.33,4.68-6.76,5.46-6.76,1.56,0,4.16,3.119,4.16,5.07,0,2.73-6.369,8.71-6.369,14.3,0,3.25,1.56,4.29,3.51,4.29,7.284,0,15.784-10.438,19.282-15.012,2.369-5.155,4.473-10.441,4.638-14.628,0-1.04.26-1.43,1.17-1.43,1.95,0,5.98,2.731,5.98,6.37,0,2.6-1.95,7.8-3.51,11.44,14.17-17.81,24.05-28.99,30.94-28.99a6.463,6.463,0,0,1,6.5,6.24c0,7.02-12.48,21.971-12.74,30.161,4.29-6.37,20.281-25.35,27.95-25.35a4.242,4.242,0,0,1,4.289,4.29c0,5.07-6.24,10.27-6.24,18.979,0,3.77,1.82,5.2,4.42,5.2,4.342,0,9.209-4.332,12.548-8.1,3.209-12.96,18.829-26.351,29.051-26.351,6.241,0,8.45,2.6,8.45,6.241,0,6.37-11.83,15.73-27.17,19.11a23.521,23.521,0,0,0-1.82,8.32c0,3.9,1.95,5.72,6.37,5.72,11.18,0,24.05-12.35,28.6-17.68.91-1.17,1.3-1.17,1.69-1.17a.671.671,0,0,1,.167.019,12.066,12.066,0,0,1-1.207-5.219c0-10.01,12.48-16.12,20.41-16.12,7.8,0,10.66,5.07,10.66,7.54,0,.91-.39,1.3-.91,1.3-.78,0-2.08-1.17-5.85-1.17-7.41,0-17.29,3.9-17.29,13,0,8.06,8.97,11.05,8.97,18.461,0,4.81-3.51,8.32-8.97,8.32-8.19,0-13.13-8.06-13.13-11.96,0-1.04.39-1.3.78-1.3s.65.39.91.91c1.82,3.38,5.85,5.98,9.49,5.98,3.25,0,4.68-2.21,4.68-4.81,0-5.437-5.437-9.061-8.191-14.229-.012.487-.164.887-.909,1.88-5.33,7.41-19.759,20.54-32.5,20.54-8.059,0-12.87-4.16-12.87-12.74q0-.406.02-.815c-4.2,4.35-9.816,8.484-15.1,8.484-5.2,0-9.23-3.51-9.23-8.58,0-9.1,5.59-15.47,5.59-17.81,0-.52-.26-.779-.52-.779-2.21,0-16.51,15.079-21.06,23.009-1.56,2.47-2.21,4.94-3.9,4.94-1.43,0-5.46-1.82-5.46-7.28,0-8.71,11.05-26.13,11.05-30.94,0-.91-.39-1.3-.91-1.3-3.51,0-18.07,16.51-26.39,28.86-5.98,8.709-8.84,16.51-11.96,16.51-2.08,0-4.42-2.86-4.42-5.85,0-2.036,1.3-5.233,3.021-8.954-4.811,5.335-11.277,10.513-17.452,10.513a7.817,7.817,0,0,1-8.19-8.059,12.971,12.971,0,0,1,1.04-5.33c-6.89,8.19-15.86,16.64-22.75,16.64-3.38,0-7.28-2.34-7.28-8.45a21.119,21.119,0,0,1,1.778-8.006A96.538,96.538,0,0,0,81.6,280.8c-2.4,5.8-4.6,12-6.8,18.2C62.4,332.8,43.4,363,21,363,8.2,363,.2,351.4.2,338.2Zm19.6-18.6C12.2,328.2,9.6,336,9.6,342.2c0,7.6,3.6,11.4,9.4,11.4,16,0,33.2-34.2,44.8-66.2C44.4,296.4,30,307.8,19.8,319.6Zm222.34-47.96c11.831-3.25,21.191-14.04,21.191-17.94,0-1.3-.65-1.82-1.69-1.82C255.79,252.01,246.82,261.89,242.14,271.64Z" transform="translate(0.3 -187.494)"/></svg>