<svg xmlns="http://www.w3.org/2000/svg" xmlns:xlink="http://www.w3.org/1999/xlink" viewBox="0 0 200 176"><defs><style>.a{clip-path:url(#b);}.b{fill:#fa6640;stroke:rgba(0,0,0,0);}</style><clipPath id="b"><rect width="200" height="176"/></clipPath></defs><g id="a" class="a"><path class="b" d="M.2,338.2c0-8.6,3.6-16.4,12.6-26,11.4-11.8,27.6-22.6,53.8-32.6l1.2-3.2c9.4-27,16-42.6,24.4-59,9.4-18.2,19.4-29.4,24-29.4,3.6-.2,9,5.2,9,7.6,0,1.4-1,2.4-3.6,5.8C107,221,95.4,245.6,84.2,273.8a84.433,84.433,0,0,1,15.208-2.569c5-11.571,18.513-22.341,27.681-22.341,6.24,0,8.45,2.6,8.45,6.241,0,6.37-11.83,15.73-27.17,19.11a23.522,23.522,0,0,0-1.82,8.32c0,3.9,1.95,5.72,6.37,5.72,11.18,0,24.05-12.35,28.6-17.68.911-1.17,1.3-1.17,1.69-1.17s.52.26.52.65c0,.52-.13.91-.91,1.95-5.33,7.41-19.76,20.54-32.5,20.54-8.06,0-12.87-4.16-12.87-12.74a18.243,18.243,0,0,1,.286-3.166A96.96,96.96,0,0,0,81.6,280.8c-2.4,5.8-4.6,12-6.8,18.2C62.4,332.8,43.4,363,21,363,8.2,363,.2,351.4.2,338.2Zm19.6-18.6C12.2,328.2,9.6,336,9.6,342.2c0,7.6,3.6,11.4,9.4,11.4,16,0,33.2-34.2,44.8-66.2C44.4,296.4,30,307.8,19.8,319.6Zm89.74-47.96c11.83-3.25,21.191-14.04,21.191-17.94,0-1.3-.651-1.82-1.69-1.82C123.19,252.01,114.22,261.89,109.54,271.64ZM137.36,284.9c0-1.04.391-1.3.78-1.3s.65.39.91.91a11.724,11.724,0,0,0,9.62,6.11c3.64,0,5.2-2.47,5.2-5.33,0-8.19-10.921-12.74-10.921-22.88,0-11.7,12.87-18.72,21.19-18.72,7.67,0,10.4,4.81,10.4,7.15,0,.91-.39,1.3-.91,1.3-.779,0-1.949-.78-5.59-.78-7.67,0-17.94,5.72-17.94,15.73,0,8.969,10.01,12.74,10.01,21.06,0,5.07-3.64,8.84-9.49,8.84C142.3,296.99,137.36,288.8,137.36,284.9Zm27.43-.52c0-1.04.39-1.3.78-1.3s.65.391.91.91a9.634,9.634,0,0,0,7.93,4.421c3.51,0,5.07-2.21,5.07-4.81,0-6.76-8.32-10.66-8.32-18.85,0-9.751,11.309-15.73,18.59-15.73,7.411,0,10.14,4.81,10.14,7.15,0,.91-.39,1.3-.91,1.3a21.1,21.1,0,0,0-5.33-.78c-6.63,0-15.73,3.641-15.73,12.22,0,7.67,7.28,10.4,7.28,17.42,0,4.94-3.38,8.45-8.84,8.45C169.08,294.78,164.79,287.76,164.79,284.38Z" transform="translate(-0.2 -187.995)"/></g></svg>