<svg xmlns="http://www.w3.org/2000/svg" xmlns:xlink="http://www.w3.org/1999/xlink" viewBox="0 0 123 142" class="calendar">
  <defs>
    <style>
      .calendar .cls-1 {
        clip-path: url(#clip-calendar-icon);
      }

      .calendar .cls-2 {
        fill: #fff;
      }

      .calendar .cls-3, .calendar .cls-4, .calendar .cls-6 {
        fill: none;
      }

      .calendar .cls-3, .calendar .cls-4 {
        stroke: #fff;
      }

      .calendar .cls-3 {
        stroke-width: 8px;
      }

      .calendar .cls-4 {
        stroke-width: 4px;
      }

      .calendar .cls-5 {
        stroke: none;
      }
    </style>
  </defs>
  <g id="calendar-icon" class="cls-1">
    <path id="Subtraction_3" data-name="Subtraction 3" class="cls-2" d="M123,40H0V15H24V33H37V15H55V33H68V15H86V33H99V15h24V40Z" transform="translate(0 3)"/>
    <rect id="Rectangle_9" data-name="Rectangle 9" class="cls-2" width="16" height="16" transform="translate(15 82)"/>
    <rect id="Rectangle_13" data-name="Rectangle 13" class="cls-2" width="16" height="16" transform="translate(15 108)"/>
    <rect id="Rectangle_6" data-name="Rectangle 6" class="cls-2" width="16" height="16" transform="translate(41 56)"/>
    <rect id="Rectangle_10" data-name="Rectangle 10" class="cls-2" width="16" height="16" transform="translate(41 82)"/>
    <rect id="Rectangle_14" data-name="Rectangle 14" class="cls-2" width="16" height="16" transform="translate(41 108)"/>
    <rect id="Rectangle_7" data-name="Rectangle 7" class="cls-2" width="16" height="16" transform="translate(67 56)"/>
    <rect id="Rectangle_11" data-name="Rectangle 11" class="cls-2" width="16" height="16" transform="translate(67 82)"/>
    <rect id="Rectangle_15" data-name="Rectangle 15" class="cls-2" width="16" height="16" transform="translate(67 108)"/>
    <rect id="Rectangle_8" data-name="Rectangle 8" class="cls-2" width="16" height="16" transform="translate(93 56)"/>
    <rect id="Rectangle_12" data-name="Rectangle 12" class="cls-2" width="16" height="16" transform="translate(93 82)"/>
    <g id="Rectangle_17" data-name="Rectangle 17" class="cls-3" transform="translate(0 38)">
      <rect class="cls-5" width="123" height="104"/>
      <rect class="cls-6" x="4" y="4" width="115" height="96"/>
    </g>
    <g id="Rectangle_20" data-name="Rectangle 20" class="cls-4" transform="translate(83)">
      <rect class="cls-5" width="17" height="38"/>
      <rect class="cls-6" x="2" y="2" width="13" height="34"/>
    </g>
    <g id="Rectangle_21" data-name="Rectangle 21" class="cls-4" transform="translate(53)">
      <rect class="cls-5" width="17" height="38"/>
      <rect class="cls-6" x="2" y="2" width="13" height="34"/>
    </g>
    <g id="Rectangle_22" data-name="Rectangle 22" class="cls-4" transform="translate(23)">
      <rect class="cls-5" width="17" height="38"/>
      <rect class="cls-6" x="2" y="2" width="13" height="34"/>
    </g>
  </g>
</svg>
