<svg xmlns="http://www.w3.org/2000/svg" xmlns:xlink="http://www.w3.org/1999/xlink" width="81" height="92" viewBox="0 0 81 92" class="canapes">
  <defs>
    <style>
      .canapes .cls-1 {
        clip-path: url(#clip-canapes-icon);
      }

      .canapes .cls-2, .canapes .cls-3, .canapes .cls-5 {
        fill: none;
      }

      .canapes .cls-2, .canapes .cls-3 {
        stroke: #333;
      }

      .canapes .cls-2 {
        stroke-width: 3px;
      }

      .canapes .cls-3 {
        stroke-width: 2px;
      }

      .canapes .cls-4 {
        stroke: none;
      }
    </style>
    <clipPath id="clip-canapes-icon">
      <rect width="81" height="92"/>
    </clipPath>
  </defs>
  <g id="canapes-icon" class="cls-1">
    <path id="Union_2" data-name="Union 2" class="cls-2" d="M-641.075-102.264l8.009-12.76L-660-124.217l5.849-7.364s8.478,1.034,11.3-2.675,0-12.159,0-12.159l4.4-6.218L-618-139.027l4.306-6.86c-7.872-6.175-11.374-14.911-7.859-20.762,3.578-5.956,13.212-6.894,22.514-2.586l6.206-9.886L-587.5-182l1,5.615-6.723,10.608c8.339,6.2,12.141,15.259,8.528,21.273-3.69,6.142-13.817,6.948-23.381,2.168l-4.418,6.971,23.19,15.428-9.939,16.457-27.507-9.389-8.945,14.115-5.118,3.26Z" transform="translate(661.979 184.289)"/>
    <g id="Ellipse_7" data-name="Ellipse 7" class="cls-3" transform="translate(48 61)">
      <circle class="cls-4" cx="5" cy="5" r="5"/>
      <circle class="cls-5" cx="5" cy="5" r="4"/>
    </g>
    <g id="Ellipse_8" data-name="Ellipse 8" class="cls-3" transform="translate(27 44)">
      <circle class="cls-4" cx="5" cy="5" r="5"/>
      <circle class="cls-5" cx="5" cy="5" r="4"/>
    </g>
    <g id="Ellipse_10" data-name="Ellipse 10" class="cls-3" transform="matrix(0.891, 0.454, -0.454, 0.891, 70.332, 29.119)">
      <ellipse class="cls-4" cx="3" cy="5.5" rx="3" ry="5.5"/>
      <ellipse class="cls-5" cx="3" cy="5.5" rx="2" ry="4.5"/>
    </g>
    <path id="Path_30" data-name="Path 30" class="cls-2" d="M709.888,270.253l5.706,1.96" transform="translate(-681 -201)"/>
    <path id="Path_31" data-name="Path 31" class="cls-2" d="M709.955,269.255l5.254,3.482" transform="translate(-666 -224)"/>
    <path id="Path_32" data-name="Path 32" class="cls-2" d="M735.969,243.455a39.178,39.178,0,0,1-4-2.1c-1.5-.966-3.156-2.312-3.156-2.312" transform="translate(-681 -201)"/>
    <path id="Path_33" data-name="Path 33" class="cls-2" d="M735.655,243.41s-1.508-1.127-2.9-1.95a22.534,22.534,0,0,0-2.681-1.341" transform="translate(-667 -225)"/>
  </g>
</svg>
