<svg xmlns="http://www.w3.org/2000/svg" xmlns:xlink="http://www.w3.org/1999/xlink" viewBox="0 0 1920 732"><defs><style>.a{clip-path:url(#b);}.b{fill:#fff;}</style><clipPath id="b"><rect width="1920" height="732"/></clipPath></defs><g id="a" class="a"><g transform="translate(0 -212)"><circle class="b" cx="104.5" cy="104.5" r="104.5" transform="translate(1646 851)"/><circle class="b" cx="104.5" cy="104.5" r="104.5" transform="translate(1767 809)"/><circle class="b" cx="104.5" cy="104.5" r="104.5" transform="translate(1504 830)"/><circle class="b" cx="104.5" cy="104.5" r="104.5" transform="translate(1380 839)"/><circle class="b" cx="104.5" cy="104.5" r="104.5" transform="translate(1253 809)"/><circle class="b" cx="104.5" cy="104.5" r="104.5" transform="translate(1121 830)"/><circle class="b" cx="104.5" cy="104.5" r="104.5" transform="translate(1030 807)"/><circle class="b" cx="104.5" cy="104.5" r="104.5" transform="translate(791 751)"/><circle class="b" cx="104.5" cy="104.5" r="104.5" transform="translate(647 664)"/><circle class="b" cx="104.5" cy="104.5" r="104.5" transform="translate(560 544)"/><circle class="b" cx="104.5" cy="104.5" r="104.5" transform="translate(456 508)"/><circle class="b" cx="104.5" cy="104.5" r="104.5" transform="translate(340 470)"/><circle class="b" cx="104.5" cy="104.5" r="104.5" transform="translate(249 443)"/><circle class="b" cx="82.5" cy="82.5" r="82.5" transform="translate(154 392)"/><circle class="b" cx="104.5" cy="104.5" r="104.5" transform="translate(-31 217)"/><circle class="b" cx="75.5" cy="75.5" r="75.5" transform="translate(107 295)"/><path class="b" d="M-24.117,142.682V818.3H898.84l-6.106-131.138-4.187-89.923L575.929,347.011,246.673,183.682" transform="translate(-25 212)"/><circle class="b" cx="104.5" cy="104.5" r="104.5" transform="translate(920 814)"/><circle class="b" cx="104.5" cy="104.5" r="104.5" transform="translate(847 795)"/></g></g></svg>