<svg xmlns="http://www.w3.org/2000/svg" xmlns:xlink="http://www.w3.org/1999/xlink" viewBox="0 0 1920 732" class="clouds">
  <defs>
    <style>
      .clouds .cls-1 {
        clip-path: url(#clip-Web_1920_1);
      }

      .clouds .cls-2 {
        opacity: 0.8;
      }

      .clouds .cls-3 {
        fill: #fff;
      }
    </style>
    <clipPath id="clip-Web_1920_1">
      <rect width="1920" height="732"/>
    </clipPath>
  </defs>
  <g id="Web_1920_1" data-name="Web 1920 – 1" class="cls-1">
    <g id="Group_2" data-name="Group 2" class="cls-2">
      <circle id="Ellipse_19" data-name="Ellipse 19" class="cls-3" cx="80.5" cy="80.5" r="80.5" transform="translate(998 517)"/>
      <circle id="Ellipse_20" data-name="Ellipse 20" class="cls-3" cx="80.5" cy="80.5" r="80.5" transform="translate(918 487)"/>
      <circle id="Ellipse_21" data-name="Ellipse 21" class="cls-3" cx="80.5" cy="80.5" r="80.5" transform="translate(808 467)"/>
      <circle id="Ellipse_27" data-name="Ellipse 27" class="cls-3" cx="80.5" cy="80.5" r="80.5" transform="translate(728 447)"/>
      <circle id="Ellipse_28" data-name="Ellipse 28" class="cls-3" cx="80.5" cy="80.5" r="80.5" transform="translate(678 387)"/>
      <circle id="Ellipse_29" data-name="Ellipse 29" class="cls-3" cx="80.5" cy="80.5" r="80.5" transform="translate(428 237)"/>
      <circle id="Ellipse_30" data-name="Ellipse 30" class="cls-3" cx="80.5" cy="80.5" r="80.5" transform="translate(348 187)"/>
      <circle id="Ellipse_31" data-name="Ellipse 31" class="cls-3" cx="80.5" cy="80.5" r="80.5" transform="translate(258 187)"/>
      <circle id="Ellipse_32" data-name="Ellipse 32" class="cls-3" cx="48.5" cy="48.5" r="48.5" transform="translate(342 151)"/>
      <circle id="Ellipse_33" data-name="Ellipse 33" class="cls-3" cx="48.5" cy="48.5" r="48.5" transform="translate(532 261)"/>
      <circle id="Ellipse_34" data-name="Ellipse 34" class="cls-3" cx="48.5" cy="48.5" r="48.5" transform="translate(802 401)"/>
      <circle id="Ellipse_35" data-name="Ellipse 35" class="cls-3" cx="48.5" cy="48.5" r="48.5" transform="translate(982 461)"/>
      <circle id="Ellipse_36" data-name="Ellipse 36" class="cls-3" cx="48.5" cy="48.5" r="48.5" transform="translate(1292 511)"/>
      <circle id="Ellipse_22" data-name="Ellipse 22" class="cls-3" cx="80.5" cy="80.5" r="80.5" transform="translate(1088 537)"/>
      <circle id="Ellipse_23" data-name="Ellipse 23" class="cls-3" cx="80.5" cy="80.5" r="80.5" transform="translate(1188 527)"/>
      <circle id="Ellipse_24" data-name="Ellipse 24" class="cls-3" cx="80.5" cy="80.5" r="80.5" transform="translate(1248 557)"/>
      <circle id="Ellipse_25" data-name="Ellipse 25" class="cls-3" cx="80.5" cy="80.5" r="80.5" transform="translate(1368 597)"/>
      <circle id="Ellipse_26" data-name="Ellipse 26" class="cls-3" cx="80.5" cy="80.5" r="80.5" transform="translate(1648 597)"/>
    </g>
    <g id="Group_1" data-name="Group 1" transform="translate(0 -212)">
      <circle id="Ellipse_1" data-name="Ellipse 1" class="cls-3" cx="104.5" cy="104.5" r="104.5" transform="translate(1646 851)"/>
      <circle id="Ellipse_2" data-name="Ellipse 2" class="cls-3" cx="104.5" cy="104.5" r="104.5" transform="translate(1767 809)"/>
      <circle id="Ellipse_3" data-name="Ellipse 3" class="cls-3" cx="104.5" cy="104.5" r="104.5" transform="translate(1504 830)"/>
      <circle id="Ellipse_4" data-name="Ellipse 4" class="cls-3" cx="104.5" cy="104.5" r="104.5" transform="translate(1380 839)"/>
      <circle id="Ellipse_5" data-name="Ellipse 5" class="cls-3" cx="104.5" cy="104.5" r="104.5" transform="translate(1253 809)"/>
      <circle id="Ellipse_6" data-name="Ellipse 6" class="cls-3" cx="104.5" cy="104.5" r="104.5" transform="translate(1121 830)"/>
      <circle id="Ellipse_7" data-name="Ellipse 7" class="cls-3" cx="104.5" cy="104.5" r="104.5" transform="translate(1030 807)"/>
      <circle id="Ellipse_8" data-name="Ellipse 8" class="cls-3" cx="104.5" cy="104.5" r="104.5" transform="translate(791 751)"/>
      <circle id="Ellipse_9" data-name="Ellipse 9" class="cls-3" cx="104.5" cy="104.5" r="104.5" transform="translate(647 664)"/>
      <circle id="Ellipse_10" data-name="Ellipse 10" class="cls-3" cx="104.5" cy="104.5" r="104.5" transform="translate(560 544)"/>
      <circle id="Ellipse_11" data-name="Ellipse 11" class="cls-3" cx="104.5" cy="104.5" r="104.5" transform="translate(456 508)"/>
      <circle id="Ellipse_12" data-name="Ellipse 12" class="cls-3" cx="104.5" cy="104.5" r="104.5" transform="translate(340 470)"/>
      <circle id="Ellipse_13" data-name="Ellipse 13" class="cls-3" cx="104.5" cy="104.5" r="104.5" transform="translate(249 443)"/>
      <circle id="Ellipse_14" data-name="Ellipse 14" class="cls-3" cx="82.5" cy="82.5" r="82.5" transform="translate(154 392)"/>
      <circle id="Ellipse_15" data-name="Ellipse 15" class="cls-3" cx="104.5" cy="104.5" r="104.5" transform="translate(-31 217)"/>
      <circle id="Ellipse_16" data-name="Ellipse 16" class="cls-3" cx="75.5" cy="75.5" r="75.5" transform="translate(107 295)"/>
      <path id="Path_1" data-name="Path 1" class="cls-3" d="M-24.117,142.682V818.3H898.84l-6.106-131.138-4.187-89.923L575.929,347.011,246.673,183.682" transform="translate(-25 212)"/>
      <circle id="Ellipse_17" data-name="Ellipse 17" class="cls-3" cx="104.5" cy="104.5" r="104.5" transform="translate(920 814)"/>
      <circle id="Ellipse_18" data-name="Ellipse 18" class="cls-3" cx="104.5" cy="104.5" r="104.5" transform="translate(847 795)"/>
    </g>
  </g>
</svg>
