<svg xmlns="http://www.w3.org/2000/svg" xmlns:xlink="http://www.w3.org/1999/xlink" viewBox="0 0 1920 732"><defs><style>.a{clip-path:url(#b);}.b{fill:#fff;}</style><clipPath id="b"><rect width="1920" height="732"/></clipPath></defs><g id="a" class="a"><path class="b" d="M1717.507,783.146a104.566,104.566,0,0,1-115.818,2.643,104.51,104.51,0,0,1-150.326-14.827,104.677,104.677,0,0,1-98.133-4.61A104.518,104.518,0,0,1,1212.9,781.84a104.725,104.725,0,0,1-92.3-16.972,104.589,104.589,0,0,1-141.071-47.842,105.142,105.142,0,0,1-59.986,2.946l3.414,73.329H0V117.681l19.351,2.93A104.524,104.524,0,0,1,216.925,59.428a75.558,75.558,0,0,1,86.488,97.5,82.263,82.263,0,0,1,37.427,19.283,104.535,104.535,0,0,1,152.3,32.044,66.045,66.045,0,0,1,89.937,26.15,104.675,104.675,0,0,1,107.59,35.128A104.543,104.543,0,0,1,805.422,421.462a63.512,63.512,0,0,1,37.671,56.275,104.4,104.4,0,0,1,70.941,40.809,104.656,104.656,0,0,1,124.672,54.427,104.687,104.687,0,0,1,97.929,15.158,104.611,104.611,0,0,1,108.7,9.028,104.809,104.809,0,0,1,82.675,10.488,104.508,104.508,0,0,1,160.867,4.39,104.659,104.659,0,0,1,100.674,6.173,104.509,104.509,0,0,1,150.181,14.643,104.718,104.718,0,0,1,93.317-13.394,104.456,104.456,0,1,1,54.148,156.08,104.52,104.52,0,0,1-169.684,7.606Z" transform="translate(-49.117 86)"/></g></svg>