<svg xmlns="http://www.w3.org/2000/svg" xmlns:xlink="http://www.w3.org/1999/xlink" width="173" height="125" viewBox="0 0 173 125" class="dinner">
  <defs>
    <style>
      .dinner .cls-2, .dinner .cls-3, .dinner .cls-4, .dinner .cls-6 {
        fill: none;
      }

      .dinner .cls-2, .dinner .cls-4 {
        stroke: #333;
      }

      .dinner .cls-2 {
        stroke-width: 4px;
      }

      .dinner .cls-4 {
        stroke-width: 2px;
      }

      .dinner .cls-5, .dinner .cls-7 {
        stroke: none;
      }

      .dinner .cls-7 {
        fill: #333;
      }
    </style>
  </defs>
  <g id="dinner-icon" class="cls-1">
    <g id="Ellipse_1" data-name="Ellipse 1" class="cls-2" transform="translate(50 23)">
      <circle class="cls-5" cx="37.5" cy="37.5" r="37.5"/>
      <circle class="cls-6" cx="37.5" cy="37.5" r="35.5"/>
    </g>
    <g id="Ellipse_2" data-name="Ellipse 2" class="cls-2" transform="translate(38 10)">
      <circle class="cls-5" cx="50" cy="50" r="50"/>
      <circle class="cls-6" cx="50" cy="50" r="48"/>
    </g>
    <g id="Path_22" data-name="Path 22" class="cls-3" transform="translate(-1181 -305)">
      <path class="cls-5" d="M1199.3,411V355.9s8.824-8.06,8.143-17.144-5.282-19.191-10.867-19.191-9.805,10.107-10.474,19.191,7.8,17.144,7.8,17.144V411Z"/>
      <path class="cls-7" d="M 1199.302001953125 411 L 1199.302001953125 355.8982543945312 C 1199.302001953125 355.8982543945312 1208.1259765625 347.837890625 1207.445068359375 338.7542114257812 C 1206.76416015625 329.6705322265625 1202.163452148438 319.5635681152344 1196.578369140625 319.5635681152344 C 1190.993286132812 319.5635681152344 1186.77294921875 329.6705322265625 1186.104614257812 338.7542114257812 C 1185.436279296875 347.837890625 1193.905151367188 355.8982543945312 1193.905151367188 355.8982543945312 L 1193.905151367188 411 L 1199.302001953125 411 M 1203.302001953125 415 L 1199.302001953125 415 L 1193.905151367188 415 L 1189.905151367188 415 L 1189.905151367188 411 L 1189.905151367188 357.4938049316406 C 1188.982299804688 356.4654541015625 1187.668701171875 354.8772277832031 1186.3935546875 352.9019165039062 C 1185.0380859375 350.8019714355469 1183.983520507812 348.6706848144531 1183.259399414062 346.5673217773438 C 1182.307861328125 343.8036193847656 1181.922973632812 341.076171875 1182.115356445312 338.460693359375 C 1182.494140625 333.3133850097656 1183.881591796875 328.0278015136719 1185.922241210938 323.9592590332031 C 1187.099853515625 321.6111450195312 1188.465209960938 319.7181091308594 1189.98046875 318.3327026367188 C 1191.961669921875 316.5211181640625 1194.2431640625 315.5635681152344 1196.578369140625 315.5635681152344 C 1198.893310546875 315.5635681152344 1201.180297851562 316.5074768066406 1203.192138671875 318.2932434082031 C 1204.745361328125 319.6719665527344 1206.157104492188 321.5532836914062 1207.388061523438 323.8850402832031 C 1209.575805664062 328.0288391113281 1211.050415039062 333.3394470214844 1211.433837890625 338.4552001953125 C 1211.631469726562 341.0915832519531 1211.224365234375 343.8384094238281 1210.223754882812 346.6193542480469 C 1209.464965820312 348.7282409667969 1208.362548828125 350.8636779785156 1206.947021484375 352.9663391113281 C 1205.623291015625 354.9328918457031 1204.261474609375 356.5143737792969 1203.302001953125 357.5411987304688 L 1203.302001953125 411 L 1203.302001953125 415 Z"/>
    </g>
    <path id="Path_23" data-name="Path 23" class="cls-4" d="M1193.4,356.26a18.493,18.493,0,0,1-2.968-9.28c0-4.97,2.968-10.6,2.968-10.6" transform="translate(-1181 -313)"/>
    <g id="Path_24" data-name="Path 24" class="cls-3" transform="translate(-1181 -314)">
      <path class="cls-5" d="M1335.924,423h4.039V359.421s5.573.487,8.765-7.445-1-24.283-1-24.283h-3.507v23.085l-1.718-.284v-22.8h-3.4v25.8h-2.182v-25.8h-3.584v22.8l-2.185.284V327.693h-3.143s-5.381,16.351-2,24.283,9.523,7.445,9.523,7.445Z"/>
      <path class="cls-7" d="M 1339.962768554688 423 L 1339.962768554688 359.4211120605469 C 1339.962768554688 359.4211120605469 1340.029541015625 359.4269409179688 1340.152587890625 359.4269409179688 C 1341.154052734375 359.4269409179688 1345.885375976562 359.0404357910156 1348.727294921875 351.9765625 C 1351.91845703125 344.0446472167969 1347.727294921875 327.6934814453125 1347.727294921875 327.6934814453125 L 1344.220703125 327.6934814453125 L 1344.220703125 350.7784118652344 L 1342.5029296875 350.4944763183594 L 1342.5029296875 327.6934814453125 L 1339.106567382812 327.6934814453125 L 1339.106567382812 353.4944763183594 L 1336.924194335938 353.4944763183594 L 1336.924194335938 327.6934814453125 L 1333.340087890625 327.6934814453125 L 1333.340087890625 350.4944763183594 L 1331.155151367188 350.7784118652344 L 1331.155151367188 327.6934814453125 L 1328.01171875 327.6934814453125 C 1328.01171875 327.6934814453125 1322.630859375 344.0446472167969 1326.01171875 351.9765625 C 1329.022338867188 359.0399475097656 1334.22314453125 359.4269409179688 1335.326049804688 359.4269409179688 C 1335.461547851562 359.4269409179688 1335.535034179688 359.4211120605469 1335.535034179688 359.4211120605469 L 1335.924194335938 423 L 1339.962768554688 423 M 1342.962768554688 426 L 1339.962768554688 426 L 1335.924194335938 426 L 1332.942504882812 426 L 1332.92431640625 423.0183715820312 L 1332.550903320312 362.0292663574219 C 1331.7646484375 361.8148803710938 1330.880126953125 361.4877014160156 1329.958984375 360.9902954101562 C 1328.632690429688 360.2742004394531 1327.419799804688 359.3116149902344 1326.353881835938 358.1293334960938 C 1325.119384765625 356.7599792480469 1324.075805664062 355.0856628417969 1323.251953125 353.1528625488281 C 1321.615844726562 349.3143005371094 1321.461181640625 343.6523742675781 1322.792236328125 336.3244018554688 C 1323.740966796875 331.100830078125 1325.1044921875 326.9306640625 1325.162109375 326.7557067871094 L 1325.840698242188 324.6934814453125 L 1328.01171875 324.6934814453125 L 1331.155151367188 324.6934814453125 L 1334.155151367188 324.6934814453125 L 1336.924194335938 324.6934814453125 L 1339.924194335938 324.6934814453125 L 1342.5029296875 324.6934814453125 L 1345.5029296875 324.6934814453125 L 1347.727294921875 324.6934814453125 L 1350.055297851562 324.6934814453125 L 1350.63330078125 326.9485778808594 C 1350.677978515625 327.1228637695312 1351.734985351562 331.2764282226562 1352.399780273438 336.4803771972656 C 1353.32666015625 343.7353820800781 1353.027465820312 349.3257751464844 1351.510498046875 353.0962829589844 C 1350.05322265625 356.7184143066406 1347.954467773438 359.35595703125 1345.272216796875 360.9356689453125 C 1344.455322265625 361.4168701171875 1343.672973632812 361.7462768554688 1342.962768554688 361.9702758789062 L 1342.962768554688 423 L 1342.962768554688 426 Z"/>
    </g>
  </g>
</svg>
