<svg xmlns="http://www.w3.org/2000/svg" xmlns:xlink="http://www.w3.org/1999/xlink" width="131" height="98" viewBox="0 0 131 98" class="ferry">
  <defs>
    <style>


      ,ferry .cls-2 {
        fill: #fff;
      }
    </style>
  </defs>
  <g id="ferry-icon" class="cls-1">
    <path id="Subtraction_7" data-name="Subtraction 7" class="cls-2" d="M-825.439-101.11h0l-.022,0-.952-.064c-21.842-1.452-42.368-2.805-57.8-3.809-4.832-.416-9.041-.79-12.754-1.119l-.829-.074h-.017c-15.053-1.338-22.608-2.01-32.206-2.01-1.226,0-2.447.01-3.734.031-5.1-.9-5.342-1.55-6.677-5.158-.159-.431-.3-.823-.447-1.2a17.416,17.416,0,0,1,0-12.32,11.586,11.586,0,0,1,4.72-1.787l12.693-2.705c.073-.041,8.867-4.838,20.236-10.326,10.731-5.18,26.378-12.252,39.979-16.519a155.024,155.024,0,0,1,23.183-5.359A120.276,120.276,0,0,1-822.3-165c5.228,0,8.95.527,9.482,1.342,1.322,2.023.013,7.448,0,7.5l0,.013c-.089.57-.579,3.615-1.51,7.583a84.406,84.406,0,0,1-4.854,14.936c-2.523,5.537-4.047,7.307-5.393,8.869a16.783,16.783,0,0,0-3.065,4.745c-.568,1.251-1.075,2.272-1.482,3.092l0,.007a13.893,13.893,0,0,0-1.476,3.64,3.175,3.175,0,0,0,.961,2.682,5.99,5.99,0,0,0,2.375,2.609c1.031.723,1.921,1.347,1.823,2.993a4.229,4.229,0,0,1,.483,2.883,2.21,2.21,0,0,1-.483.991Zm-97.611-23.108a2.788,2.788,0,0,0-2.5,3,2.788,2.788,0,0,0,2.5,3,2.788,2.788,0,0,0,2.5-3A2.788,2.788,0,0,0-923.05-124.217Zm20-8c-1.93,0-3.5,2.019-3.5,4.5s1.57,4.5,3.5,4.5,3.5-2.019,3.5-4.5S-901.12-132.217-903.05-132.217Zm23-8c-2.481,0-4.5,2.916-4.5,6.5s2.019,6.5,4.5,6.5,4.5-2.916,4.5-6.5S-877.568-140.216-880.05-140.216Zm25.5-9c-3.309,0-6,4.037-6,9s2.692,9,6,9,6-4.037,6-9S-851.241-149.216-854.549-149.216Z" transform="translate(942.05 197.717)"/>
    <path id="Path_26" data-name="Path 26" class="cls-2" d="M1000.326,234.5v-3.28s21.382-12.811,35.686-20.541c15.58-6.4,17.316-4.371,26.633-5.066,3.971.257,10.636,2.286,10.636,2.286l-.954-5.7a35.975,35.975,0,0,0-16.315-3.014c-9.594.391-14.387.8-22.061,4.577-15.532,7.346-40.066,24.809-40.066,24.809s-7.226,3.559-7.235,10.132a62.159,62.159,0,0,0,0,6.821l-6.733,2.608a78.054,78.054,0,0,1,1.534-12.2c1.814-7.564,9.078-12.276,9.078-12.276s17.7-11.6,32.1-19.9c15.126-7.51,17.117-7.936,28.4-10.143,6.736-.894,19.762-.767,26.2,5.566a39.934,39.934,0,0,1,3.5,13.71l-4.947,1.273s-13.94-3.933-28-1.273-28.253,11.911-28.253,11.911Z" transform="translate(-969 -185)"/>
    <path id="Path_27" data-name="Path 27" class="cls-2" d="M1002.213,210.317l23.535-14.053-3.054-5.822s-.611-4.3-4.761-4.954a16.559,16.559,0,0,0-11.839,2.356c-4.182,2.449-4,5.778-3.888,11.442S1002.213,210.317,1002.213,210.317Z" transform="translate(-969 -185)"/>
  </g>
</svg>
