<svg xmlns="http://www.w3.org/2000/svg" xmlns:xlink="http://www.w3.org/1999/xlink" viewBox="0 0 235 343"><defs><style>.a{clip-path:url(#b);}.b{fill:#8fbd49;}.c{fill:#4d811b;}</style><clipPath id="b"><rect width="235" height="343"/></clipPath></defs><g id="a" class="a"><path class="b" d="M267,109.965c-.461-11.828-2.387-26.023,51.02-22.469s52.234-2.2,103.727,16.109-15.762,80.527,12.93,118.309,62.855,96.031,66.234,152.344-14.887,39.121-30.18,39.258-58.965-68.133-58.965-68.133-18.512-57.988-56.625-88.742-8.5-42.363-19.039-79.328S324.641,144,305.082,132.824,267,109.965,267,109.965Z" transform="translate(-266.869 -72.94)"/><path class="c" d="M54.776,223l-6.084,7.782,2.991.554-5.538,9.295h17.4l-5.6-9.295,2.785-.554L54.876,223" transform="translate(-20.364 -222.931)"/><path class="c" d="M54.027,223l-5.556,9.424,2.731.671L46.145,244.35h15.89L56.92,233.094l2.544-.671L54.119,223" transform="translate(12.201 -215.65)"/><path class="c" d="M55.59,223l-6.658,10.118,3.273.72-6.061,12.084H65.184l-6.127-12.084,3.048-.72L55.7,223" transform="translate(47.649 -222.222)"/><path class="c" d="M55.287,223l-6.444,8.243,3.168.587-5.866,9.845H64.574l-5.931-9.845,2.95-.587L55.393,223" transform="translate(79.6 -209.975)"/><path class="c" d="M57.887,223,49.61,233.587l4.069.754-7.534,12.645H69.814L62.2,234.34l3.789-.754L58.023,223" transform="translate(79.6 -135.285)"/><path class="c" d="M57.059,223l-7.693,9.84,3.782.7-7,11.753h22l-7.08-11.753,3.522-.7-7.4-9.84" transform="translate(103.27 -18.594)"/><path class="c" d="M54.576,223l-5.943,8.419,2.922.6-5.41,10.056h17l-5.47-10.056,2.721-.6L54.674,223" transform="translate(150.18 49.785)"/></g></svg>