<svg xmlns="http://www.w3.org/2000/svg" xmlns:xlink="http://www.w3.org/1999/xlink" width="240" height="196" viewBox="0 0 240 196" class="galianoIcon">
  <defs>
    <style>

      .galianoIcon .cls-2 {
        fill: #fff;
      }
    </style>
  </defs>
  <g id="galiano-icon" class="cls-1">
    <path id="Path_38" data-name="Path 38" class="cls-2" d="M451.356,1379.93c.369-1.274,8.747-1.361,6.072-5.573s-8.093-6.979-10.791-9.306-4.1,0-4.1,0l2.176,4.78-4.942-2.047-1.7-2.734,1.7-3.686s-16.012-14.39-20.733-15.646-28.529-14.69-28.529-14.69l-11.282-3.987s-7.9-6.438-11.016-6.971a15.612,15.612,0,0,1-6.153-3.065v-3.487h-4.929l-1.982-3.772-2.732,3.772s-15.663-9.41-16.948-13.49-17.242-16.472-17.242-16.472-10.919-12.979-11.305-15.064-4.172-3.52-6.448-7.206-.851-5.19-2.659-7.539-3.049.158-4.572-1.855-.01-3.649-1.52-6.2-3.388-.672-4.517-4,2-4.721,2-9.3-3.009-7.426-2-9.006,4.062,3.07,6.036,2.686-.515-4.681,1.862-4.223,4.693,2.411,7.647,6.057a25.064,25.064,0,0,1,4.17,8.524,7.508,7.508,0,0,1,4.406,2.9c1.483,2.314,1.525,6.356,1.525,6.356l7.484,8.2a46.485,46.485,0,0,0,5.806,8.394,134.74,134.74,0,0,0,11.621,12.865c3.049,2.773,23.821,17.336,27.363,22.174s10.5,6.816,14.1,6.506,11.282,0,11.282,0,4.317,5.077,9.032,5.915,15.874,7.259,15.874,7.259,4,6.831,7.383,8.011,4.986,1.36,9.921,4.025,7.014,5.305,9.817,6.635c2.671,1.267,14.642,10.44,23.515,13.935s7.631.618,11.979.042c4.275.978,1.989,2.1,5.851,3.91s6.309.214,9.6,3.325,6.269,4.927,7.547,8.162-3.555,2.859-2.434,4.78c1.809,3.09,2.179,5.9,5.254,7.432s4.559,3.349,5.228,5.8,6.335,4.837,6.335,2.578-5.335-2.4-3.706-5.714,6.274,1.908,7.943,3.976-1.457,1.763-1.457,2.92-.079,2.614,1.457,2.175l0,.005,1,1.765c4.014.409,2.912,2.9,2.042,6.22s-1.282.9-2.042,3.564.309,5.834-1,7.112-1.372-.18-4.237,0-7.187,1.638-8.316,0a9.742,9.742,0,0,0-11.327-3.375c-4.719,1.861-6.483,8.963-6.483,8.963s-2.91,1.508-11.25-1-12.751-7.3-15.613-7.963-4.986-5.139-4.986-5.139,2.48-1.263,1.593-5.594S451.258,1382.783,451.356,1379.93Z" transform="translate(-285 -1221)"/>
    <path id="Path_39" data-name="Path 39" class="cls-2" d="M443.645,1390.274l1.04,1.141s2.669,2.085,3.422.95,2.171-2.123,1.467-3.336a104.13,104.13,0,0,0-7.728-8.711c-.909-.79-4.071-3.611-3.613-4.5s2.762-1.043,3.072,0,.8,1.9,1.337,1.834a1.391,1.391,0,0,0,1-1.834c-.4-.961-6.775-4.621-6.775-4.621s-.8.893,0,1.581,1.977,1.178,1.364,1.416-1.392,1.678-1.944.718a8.149,8.149,0,0,0-3.109-2.793c-.877-.277-.775,1.325-.4,1.687s-2.958-1.964-3.746-1.687-.347,2.151.594,2.793,2.374-.086,2.41.456-1.76.9-.983,1.69,3.8,2.767,3.8,4.311,1.984,4.776,3.375,5.88,1.969,3.412,3.072,3.526.747-3.2,1.337-3.068.366.347.366.347Z" transform="translate(-285 -1221)"/>
  </g>
</svg>
