<svg xmlns="http://www.w3.org/2000/svg" xmlns:xlink="http://www.w3.org/1999/xlink" viewBox="0 0 92 86" class="gift">
  <defs>
    <style>
      .gift .cls-2 {
        fill: #fff;
      }

      .gift .cls-3 {
        fill: none;
        stroke: #fff;
        stroke-width: 4px;
      }
    </style>
  </defs>
  <g id="gift-icon" class="cls-1">
    <rect id="Rectangle_23" data-name="Rectangle 23" class="cls-2" width="36" height="32" transform="translate(6 54)"/>
    <rect id="Rectangle_24" data-name="Rectangle 24" class="cls-2" width="36" height="32" transform="translate(50 54)"/>
    <rect id="Rectangle_25" data-name="Rectangle 25" class="cls-2" width="42" height="22" transform="translate(50 24)"/>
    <rect id="Rectangle_26" data-name="Rectangle 26" class="cls-2" width="42" height="22" transform="translate(0 24)"/>
    <path id="Path_3" data-name="Path 3" class="cls-2" d="M8,0a8,8,0,0,1,8,8c.13.537-15.512.276-16,0A8,8,0,0,1,8,0Z" transform="translate(38 11)"/>
    <path id="Path_4" data-name="Path 4" class="cls-3" d="M677.123,718.312s19.287.091,19.2,0c6.808-3.746,2.832-14.984-1.968-14.984S677.123,718.312,677.123,718.312Z" transform="translate(-617 -701)"/>
    <path id="Path_5" data-name="Path 5" class="cls-3" d="M699.96,718.312s-19.287.091-19.2,0c-6.808-3.746-2.832-14.984,1.968-14.984S699.96,718.312,699.96,718.312Z" transform="translate(-668 -701)"/>
  </g>
</svg>
