<svg xmlns="http://www.w3.org/2000/svg" xmlns:xlink="http://www.w3.org/1999/xlink" viewBox="0 0 1920 891"><defs><style>.a,.k{fill:none;}.b{clip-path:url(#d);}.c{fill:url(#a);}.d{fill:#707070;stroke:#707070;}.e,.f,.q{fill:#fff;}.e{stroke:#fff;}.f{opacity:0.3;}.g{fill:#75a046;}.h{fill:#84b64d;}.i{fill:#63b1c8;}.j{fill:#338778;}.k{stroke:#338778;stroke-width:2px;}.l{fill:#8fbd49;}.m{fill:#4d811b;}.n{clip-path:url(#b);}.o{fill:#416e16;}.p{fill:#548921;}</style><linearGradient id="a" x1="0.5" x2="0.5" y2="1" gradientUnits="objectBoundingBox"><stop offset="0" stop-color="#5bbbce"/><stop offset="1" stop-color="#c2dfdc"/></linearGradient><clipPath id="b"><rect class="a" width="1112.414" height="134.475"/></clipPath><clipPath id="d"><rect width="1920" height="891"/></clipPath></defs><g id="c" class="b"><rect class="q" width="1920" height="891"/><rect class="c" width="1920" height="742"/><path class="d" d="M466.34,286.22S407.251,229.752,362,204.806,204.95,149.377,204.95,149.377s-76.584,19.013-87.33,39.855-54.2,140.5-54.2,140.5l329.357,18.11Z" transform="translate(183 90)"/><path class="e" d="M256.71,197.122c17.353,4.321,11.57,16.007,25.044,20.156s10.385-2.974,28.85-3.56,32.517,22.75,45.013,1.214,20.763-10.586,34.315-10,13.572,14.058,19.894,12.345,43.78-9.269,5.394-19.2C388.963,182.155,281.754,153.1,281.754,153.1s-90.922,23.477-89.762,44.025,28.8,0,28.8,0S239.357,192.8,256.71,197.122Z" transform="translate(107 86)"/><path class="f" d="M585.054,274.747a15.15,15.15,0,0,1-5.774-.05,15.052,15.052,0,0,1-10.639-1.776,15.007,15.007,0,0,1-22.24-9.535,15.115,15.115,0,0,1-7.33.3,15,15,0,0,1-22.157.824,15.1,15.1,0,0,1-8.444-.236,15,15,0,0,1-20.207-.379A14.954,14.954,0,0,1,482.6,265q-.619,0-1.226-.049a15,15,0,0,1-22.453,4.931,14.956,14.956,0,0,1-8.666-4.23,15.108,15.108,0,0,1-7.622-.3,15.025,15.025,0,0,1-14.678,4.161,15,15,0,0,1-21.48-.076,14.988,14.988,0,0,1-6.334-3.655,14.949,14.949,0,0,1-7.509-3.685,15,15,0,0,1-26.474-2.3,15,15,0,1,1-22.107-20.014,15.009,15.009,0,0,1-6.881-21.55,15,15,0,1,1,26.154-4.761A15,15,0,0,1,389,224c0,.044,0,.088,0,.132a15.018,15.018,0,0,1,16.759,12.173,14.97,14.97,0,0,1,7.406,3.918,14.965,14.965,0,0,1,8.01,4.164,15.023,15.023,0,0,1,14.988-3.734,15,15,0,0,1,21.422-.3,15.039,15.039,0,0,1,11.884,2.4,15,15,0,0,1,23.442-3.639,15.066,15.066,0,0,1,10.29-.379,15,15,0,0,1,20.6.764,15.125,15.125,0,0,1,6.886-.177,15.017,15.017,0,0,1,6.849-4.594,15.024,15.024,0,0,1,16.485-9.523,15,15,0,0,1,21.251-1.471,15.023,15.023,0,0,1,15.065,3.5,15.1,15.1,0,0,1,2.63-.23,14.938,14.938,0,0,1,6.956,1.707,15,15,0,0,1,26.964,4.3q.267-.009.537-.009a14.957,14.957,0,0,1,5.525,1.05,15,15,0,0,1,29.32,6.117,14.891,14.891,0,0,1,4.715,1.542,15.006,15.006,0,0,1,26.832-2.547,15.122,15.122,0,0,1,2.208-.161,14.959,14.959,0,0,1,5.525,1.05,15,15,0,0,1,28.949,0,15.024,15.024,0,0,1,14.736,2.109,15,15,0,0,1,25.581,0,15.121,15.121,0,0,1,2.209-.161,14.962,14.962,0,0,1,5.526,1.051,15,15,0,0,1,28.949,0,15.016,15.016,0,0,1,17.168,4.491,15.027,15.027,0,0,1,13.883-1.492,15.005,15.005,0,0,1,28.949,0,15.057,15.057,0,0,1,11.051,0,15,15,0,0,1,26.631-4.839,15.006,15.006,0,0,1,19.069,2.84,15,15,0,0,1,26.565-1.89,15.121,15.121,0,0,1,2.209-.161,14.962,14.962,0,0,1,5.526,1.051,15,15,0,0,1,28.949,0,15.017,15.017,0,0,1,17.168,4.491,15.027,15.027,0,0,1,13.883-1.492,15.005,15.005,0,0,1,28.949,0,15.057,15.057,0,0,1,11.051,0,15,15,0,0,1,26.631-4.839,15.008,15.008,0,0,1,17.479,1.293,15,15,0,0,1,23.446-1.614A14.976,14.976,0,0,1,1138.021,235a15.161,15.161,0,0,1,1.681.093,15.006,15.006,0,0,1,21.937-5.371,15.005,15.005,0,0,1,28.855.329,14.963,14.963,0,0,1,5.526-1.051c.179,0,.359,0,.537.009a15,15,0,0,1,26.106-5.467,15.005,15.005,0,0,1,19.465,2.377,15.018,15.018,0,0,1,15.327-1.472,15,15,0,0,1,19.923-2.9,15,15,0,0,1,24.027.992,15.014,15.014,0,0,1,20.376,7.485,14.991,14.991,0,0,1,11.883,6.905,14.9,14.9,0,0,1,6.058-1.869,15.005,15.005,0,0,1,21.917-5.334,15.006,15.006,0,0,1,28.856.328,14.958,14.958,0,0,1,5.525-1.05q.269,0,.537.009a15,15,0,0,1,26.107-5.467,15.005,15.005,0,0,1,19.464,2.377,15.017,15.017,0,0,1,15.327-1.472,15,15,0,0,1,19.922-2.905,15.026,15.026,0,0,1,14.736-5.223,15,15,0,0,1,29.381-2.268,15.045,15.045,0,0,1,11.982.406A15,15,0,1,1,1562.021,208a15.158,15.158,0,0,1-.119,1.9,15.031,15.031,0,0,1,13.334,1.552,15,15,0,0,1,29.768,1.871,15.007,15.007,0,0,1,22.49,8.732,15.014,15.014,0,0,1,20.218,10.915,15.016,15.016,0,0,1,19.781,10.085,15.017,15.017,0,0,1,17.169,4.491,15.027,15.027,0,0,1,13.883-1.491,15,15,0,0,1,28.949,0,15.056,15.056,0,0,1,11.051,0,15,15,0,0,1,26.632-4.839,15.009,15.009,0,0,1,17.479,1.293,15,15,0,0,1,24.364-.505,14.936,14.936,0,0,1,9-3,15.111,15.111,0,0,1,2.266.17,15,15,0,0,1,23.353-9.449,15.005,15.005,0,0,1,28.855.328,14.963,14.963,0,0,1,5.526-1.051c.179,0,.359,0,.537.009a15,15,0,0,1,26.106-5.467,15,15,0,0,1,19.464,2.377,15.017,15.017,0,0,1,15.328-1.472,15,15,0,0,1,19.922-2.905,15.014,15.014,0,0,1,17.876-4.189,15,15,0,0,1,29.339-.924,15.01,15.01,0,0,1,8.341,5.457,15.076,15.076,0,0,1,9.7-.16,15,15,0,0,1,25.075-6.244,15.005,15.005,0,0,1,28.782.57,15.014,15.014,0,0,1,20.1,10.391,15.011,15.011,0,0,1,21.068,10.291,14.921,14.921,0,0,1,2.5,1.076,15,15,0,0,1,24.324.852,15,15,0,0,1,20.688,3.552,15.026,15.026,0,0,1,13.963-.91,15.006,15.006,0,0,1,26.67-2.142,14.968,14.968,0,0,1,4.319-2.344,15.157,15.157,0,0,1-.109-1.815,15.012,15.012,0,0,1,17-14.868c0-.044,0-.088,0-.132a15,15,0,0,1,25.674-10.538,15,15,0,1,1,26.156,4.762,15.009,15.009,0,0,1-6.881,21.55,15,15,0,1,1-22.106,20.014A96.525,96.525,0,0,0,2215.021,266a14.991,14.991,0,0,1-12.79-7.16A15.019,15.019,0,0,1,2186.9,260.7a15,15,0,0,1-26.036,3.09,15.007,15.007,0,0,1-20.313-4.449,15.014,15.014,0,0,1-15.675.852A14.976,14.976,0,0,1,2113.021,266q-.483,0-.959-.03a15.006,15.006,0,0,1-22.921-6.272,15.016,15.016,0,0,1-15.756-2.2,15,15,0,0,1-24.007.963,15.012,15.012,0,0,1-16.2.33,15,15,0,0,1-24.8-.714,15.007,15.007,0,0,1-18.379-2.9q.022.41.022.826a15,15,0,0,1-25.5,10.712,15,15,0,0,1-21.17-.169,15,15,0,0,1-23.438,1.538,15,15,0,0,1-22.05-4.873,15,15,0,0,1-26.2-4.85q-.595-.18-1.168-.408a15,15,0,0,1-24.474,7.231,15,15,0,0,1-20,0,15,15,0,0,1-22-2.179,15,15,0,0,1-18.636-.505,15,15,0,0,1-24.521.293,15.033,15.033,0,0,1-13.368,1.16,15,15,0,0,1-28.949,0,15.057,15.057,0,0,1-11.051,0,15,15,0,0,1-26.118,5.509,15.007,15.007,0,0,1-22.832-8.509,15.057,15.057,0,0,1-11.051,0,15,15,0,0,1-23.515,8.021q-.476.03-.959.03a14.971,14.971,0,0,1-11.65-5.552c-.1-.051-.207-.1-.31-.158a15.006,15.006,0,0,1-27.859.552,15.026,15.026,0,0,1-13.823-5.384,15.011,15.011,0,0,1-16.2.331,15,15,0,0,1-24.8-.714,15.008,15.008,0,0,1-18.379-2.9q.022.41.022.825a15,15,0,0,1-25.5,10.712,15,15,0,0,1-21.17-.169,15,15,0,0,1-23.438,1.537,15.011,15.011,0,0,1-16.395.911c-.166.005-.331.008-.5.008a14.931,14.931,0,0,1-8.5-2.639,15.006,15.006,0,0,1-22.553-7.106,15.07,15.07,0,0,1-3.137,2.554,15,15,0,0,1-22.81,3.372,15,15,0,0,1-20,0,15,15,0,0,1-22-2.179,15.011,15.011,0,0,1-16.357,1.074,15,15,0,0,1-23.143,2.637,15,15,0,0,1-19.03,1.628,17.6,17.6,0,0,1-25.577-.259,15.018,15.018,0,0,1-15.327,1.472,15,15,0,0,1-23.209-.1,15,15,0,0,1-18.986-1.874,15.014,15.014,0,0,1-16.371-2.4q-.482.431-1,.82a15,15,0,0,1-22.63,1.583,15.029,15.029,0,0,1-13.516-.392,15,15,0,0,1-25.3-2.534,15,15,0,0,1-22.712-1.869,15.032,15.032,0,0,1-13.368,1.161,15.005,15.005,0,0,1-28.95,0,15.059,15.059,0,0,1-11.051,0,15,15,0,0,1-26.118,5.509,15.006,15.006,0,0,1-22.831-8.509,15.055,15.055,0,0,1-11.051,0,15.005,15.005,0,0,1-27.267,3.889,15.122,15.122,0,0,1-2.208.161,14.934,14.934,0,0,1-6.959-1.709,15.006,15.006,0,0,1-26.458,3.126,15.089,15.089,0,0,1-3.739-3.629,15.032,15.032,0,0,1-13.368,1.161,15,15,0,0,1-28.949,0,15.058,15.058,0,0,1-11.051,0,15,15,0,0,1-26.118,5.509,15.006,15.006,0,0,1-22.831-8.509,15.055,15.055,0,0,1-11.051,0,15.005,15.005,0,0,1-27.267,3.889,15.122,15.122,0,0,1-2.208.161,14.934,14.934,0,0,1-6.959-1.709,15,15,0,0,1-28.955-3.678,14.892,14.892,0,0,1-.56-1.663,15.057,15.057,0,0,1-11.051,0,15,15,0,0,1-27.266,3.889,15.123,15.123,0,0,1-2.209.161,14.936,14.936,0,0,1-6.96-1.709,15.023,15.023,0,0,1-17.209,9.374,15,15,0,0,1-23.906-7.715q-.573.227-1.168.408a15,15,0,0,1-25.218,5.989,15.009,15.009,0,0,1-21.506,6.4Zm1314.125-27.955q.318-.408.662-.792-.237-.265-.462-.542-.354.238-.721.456Q1898.932,246.344,1899.179,246.793Z" transform="translate(-347.021 142)"/><circle class="g" cx="6.752" cy="6.752" r="6.752" transform="translate(1333.443 361.415)"/><circle class="g" cx="6.752" cy="6.752" r="6.752" transform="translate(1341.16 369.132)"/><circle class="h" cx="6.752" cy="6.752" r="6.752" transform="translate(1337.302 374.92)"/><circle class="g" cx="6.752" cy="6.752" r="6.752" transform="translate(1323.797 357.557)"/><circle class="g" cx="6.752" cy="6.752" r="6.752" transform="translate(1316.08 357.557)"/><circle class="g" cx="6.752" cy="6.752" r="6.752" transform="translate(1304.505 359.486)"/><circle class="g" cx="6.752" cy="6.752" r="6.752" transform="translate(1296.505 361.486)"/><circle class="g" cx="6.752" cy="6.752" r="6.752" transform="translate(1288.505 361.486)"/><circle class="g" cx="6.752" cy="6.752" r="6.752" transform="translate(1280.505 364.486)"/><circle class="g" cx="6.752" cy="6.752" r="6.752" transform="translate(1269.505 362.486)"/><circle class="h" cx="6.752" cy="6.752" r="6.752" transform="translate(1329.585 369.132)"/><circle class="h" cx="6.752" cy="6.752" r="6.752" transform="translate(1319.939 371.061)"/><circle class="h" cx="6.752" cy="6.752" r="6.752" transform="translate(1310.292 367.203)"/><circle class="h" cx="6.752" cy="6.752" r="6.752" transform="translate(1319.939 363.345)"/><circle class="h" cx="6.752" cy="6.752" r="6.752" transform="translate(1300.646 365.274)"/><circle class="h" cx="6.752" cy="6.752" r="6.752" transform="translate(1310.292 359.486)"/><circle class="h" cx="6.752" cy="6.752" r="6.752" transform="translate(1291 367.203)"/><circle class="h" cx="6.752" cy="6.752" r="6.752" transform="translate(1282 368.203)"/><circle class="h" cx="6.752" cy="6.752" r="6.752" transform="translate(1273 366.203)"/><circle class="h" cx="6.752" cy="6.752" r="6.752" transform="translate(1263 367.203)"/><circle class="h" cx="6.752" cy="6.752" r="6.752" transform="translate(1381.674 384.566)"/><circle class="h" cx="6.752" cy="6.752" r="6.752" transform="translate(1389.391 386.495)"/><circle class="g" cx="6.752" cy="6.752" r="6.752" transform="translate(1375.886 365.274)"/><circle class="g" cx="6.752" cy="6.752" r="6.752" transform="translate(1383.603 371.061)"/><circle class="h" cx="6.752" cy="6.752" r="6.752" transform="translate(1385.532 378.778)"/><circle class="g" cx="6.752" cy="6.752" r="6.752" transform="translate(1366.24 367.203)"/><circle class="h" cx="6.752" cy="6.752" r="6.752" transform="translate(1372.028 382.637)"/><circle class="h" cx="6.752" cy="6.752" r="6.752" transform="translate(1377.816 374.92)"/><circle class="h" cx="6.752" cy="6.752" r="6.752" transform="translate(1368.169 374.92)"/><circle class="g" cx="6.752" cy="6.752" r="6.752" transform="translate(1350.806 367.203)"/><circle class="h" cx="6.752" cy="6.752" r="6.752" transform="translate(1360.452 380.708)"/><circle class="h" cx="6.752" cy="6.752" r="6.752" transform="translate(1358.523 371.061)"/><circle class="h" cx="6.752" cy="6.752" r="6.752" transform="translate(1348.877 376.849)"/><path class="i" d="M0,0H1920V680H0Z" transform="translate(0 400)"/><path class="d" d="M466.34,286.22S407.251,229.752,362,204.806,204.95,149.377,204.95,149.377s-76.584,19.013-87.33,39.855-54.2,140.5-54.2,140.5l329.357,18.11Z" transform="translate(50 60)"/><path class="j" d="M0,0H420V10H0Z" transform="translate(803 378)"/><path class="j" d="M0,0H96V10H0Z" transform="translate(1097 304) rotate(90)"/><path class="j" d="M0,0H96V10H0Z" transform="translate(939 304) rotate(90)"/><path class="k" d="M570,265s22.191,72.855,75.414,72.633S719.59,264,719.59,264" transform="translate(368 40)"/><path class="k" d="M719.59,264s-22.953,73.41-76.176,73.633" transform="translate(210 40)"/><path class="k" d="M570,264s20.191,73.855,73.414,73.633" transform="translate(526 40)"/><path class="j" d="M0,0H60V2H0Z" transform="translate(921 325) rotate(90)"/><path class="j" d="M0,0H40V2H0Z" transform="translate(911 342) rotate(90)"/><path class="j" d="M0,0H34V2H0Z" transform="translate(901 354) rotate(90)"/><path class="j" d="M0,0H20V2H0Z" transform="translate(891 365) rotate(90)"/><path class="j" d="M0,0H14V2H0Z" transform="translate(881 371) rotate(90)"/><path class="j" d="M0,0H6V2H0Z" transform="translate(871 374) rotate(90)"/><path class="j" d="M0,0H60V2H0Z" transform="translate(949 328) rotate(90)"/><path class="j" d="M0,0H36V2H0Z" transform="translate(959 345) rotate(90)"/><path class="j" d="M0,0H24V2H0Z" transform="translate(969 356) rotate(90)"/><path class="j" d="M0,0H18V2H0Z" transform="translate(979 365) rotate(90)"/><path class="j" d="M0,0H6V2H0Z" transform="translate(989 373) rotate(90)"/><path class="j" d="M0,0H60V2H0Z" transform="translate(1079 327) rotate(90)"/><path class="j" d="M0,0H36V2H0Z" transform="translate(1069 345) rotate(90)"/><path class="j" d="M0,0H24V2H0Z" transform="translate(1059 356) rotate(90)"/><path class="j" d="M0,0H16V2H0Z" transform="translate(1049 365) rotate(90)"/><path class="j" d="M0,0H8V2H0Z" transform="translate(1039 372) rotate(90)"/><path class="j" d="M0,0H6V2H0Z" transform="translate(1029 376) rotate(90)"/><path class="j" d="M0,0H50V2H0Z" transform="translate(1108 331) rotate(90)"/><path class="j" d="M0,0H34V2H0Z" transform="translate(1118 346) rotate(90)"/><path class="j" d="M0,0H24V2H0Z" transform="translate(1128 359) rotate(90)"/><path class="j" d="M0,0H14V2H0Z" transform="translate(1138 367) rotate(90)"/><path class="j" d="M0,0H8V2H0Z" transform="translate(1148 372) rotate(90)"/><path class="l" d="M-195.737-29.647C76.951-34.932,321.406,75.485,394.8,74.328s137.593-36,209.41-51.568,162.1,14.349,177.6,21.291,51.13,58.974,0,60.2-121.134,25.494-118.57,42.892,5.5,8.911,56.542,20.7,79.833,43.182,98.213,60.043-1.649,45.673-36.184,42.082-53.663,10.9-53.819,28.385,18.617,20.53,38.058,22.547,60.267,10.455,63.655,29.688,6.114,17.711-47.893,36.291S725.2,424.311,727.987,438.16s33.414,33.78,90,42.672,114.994,5.9,143.358,30.853,75.387,42.017,0,62.5-357.142,23.375-357.142,23.375H-739V6.895" transform="translate(619 354.239)"/><path class="h" d="M267,109.965c-.461-11.828-2.387-26.023,51.02-22.469s52.234-2.2,103.727,16.109-15.762,80.527,12.93,118.309,62.855,96.031,66.234,152.344-14.887,39.121-30.18,39.258-58.965-68.133-58.965-68.133-18.512-57.988-56.625-88.742-8.5-42.363-19.039-79.328S324.641,144,305.082,132.824,267,109.965,267,109.965Z" transform="translate(1322.131 294.06)"/><path class="m" d="M54.776,223l-6.084,7.782,2.991.554-5.538,9.295h17.4l-5.6-9.295,2.785-.554L54.876,223" transform="translate(1568.636 146.069)"/><path class="m" d="M54.027,223l-5.556,9.424,2.731.671L46.145,244.35h15.89L56.92,233.094l2.544-.671L54.119,223" transform="translate(1604.201 145.35)"/><path class="m" d="M55.59,223l-6.658,10.118,3.273.72-6.061,12.084H65.184l-6.127-12.084,3.048-.72L55.7,223" transform="translate(1636.649 146.778)"/><path class="m" d="M55.287,223l-6.444,8.243,3.168.587-5.866,9.845H64.574l-5.931-9.845,2.95-.587L55.393,223" transform="translate(1668.6 157.025)"/><path class="m" d="M55.287,223l-6.444,8.243,3.168.587-5.866,9.845H64.574l-5.931-9.845,2.95-.587L55.393,223" transform="translate(1318.6 158.025)"/><path class="m" d="M53.3,223l-5.042,6.45,2.479.459-4.59,7.7h14.42l-4.641-7.7,2.309-.459L53.381,223" transform="translate(1262.61 145.025)"/><path class="m" d="M52.214,223l-4.278,5.473,2.1.39L46.145,235.4H58.38l-3.938-6.536,1.959-.39L52.285,223" transform="translate(1194.794 145.238)"/><path class="m" d="M52.214,223l-4.278,5.473,2.1.39L46.145,235.4H58.38l-3.938-6.536,1.959-.39L52.285,223" transform="translate(1291.794 160.238)"/><path class="m" d="M52.214,223l-4.278,5.473,2.1.39L46.145,235.4H58.38l-3.938-6.536,1.959-.39L52.285,223" transform="translate(1231.794 154.238)"/><path class="m" d="M57.887,223,49.61,233.587l4.069.754-7.534,12.645H69.814L62.2,234.34l3.789-.754L58.023,223" transform="translate(1668.6 222.715)"/><path class="m" d="M57.059,223l-7.693,9.84,3.782.7-7,11.753h22l-7.08-11.753,3.522-.7-7.4-9.84" transform="translate(1692.27 339.406)"/><path class="m" d="M54.576,223l-5.943,8.419,2.922.6-5.41,10.056h17l-5.47-10.056,2.721-.6L54.674,223" transform="translate(1739.18 407.785)"/><path class="e" d="M256.71,197.122c17.353,4.321,11.57,16.007,25.044,20.156s10.385-2.974,28.85-3.56,32.517,22.75,45.013,1.214,20.763-10.586,34.315-10,13.572,14.058,19.894,12.345,34.39-.7,7.394-17.2C388.826,185.024,281.754,154.1,281.754,154.1s-90.922,22.477-89.762,43.025,28.8,0,28.8,0" transform="translate(-26 56)"/><g class="n" transform="translate(304 650.225)"><g transform="translate(-1037 -658.225)"><path class="o" d="M75.984,223,54.951,249.9l10.34,1.915L46.145,283.95h60.148L86.935,251.818l9.63-1.915L76.33,223" transform="translate(1286.121 452.731)"/><path class="o" d="M75.984,223,54.951,249.9l10.34,1.915L46.145,283.95h60.148L86.935,251.818l9.63-1.915L76.33,223" transform="translate(1265.114 449.229)"/><path class="o" d="M75.984,223,54.951,249.9l10.34,1.915L46.145,283.95h60.148L86.935,251.818l9.63-1.915L76.33,223" transform="translate(1240.606 456.232)"/><path class="o" d="M75.984,223,54.951,249.9l10.34,1.915L46.145,283.95h60.148L86.935,251.818l9.63-1.915L76.33,223" transform="translate(1205.594 444.561)"/><path class="o" d="M75.984,223,54.951,249.9l10.34,1.915L46.145,283.95h60.148L86.935,251.818l9.63-1.915L76.33,223" transform="translate(1170.582 456.232)"/><path class="o" d="M75.984,223,54.951,249.9l10.34,1.915L46.145,283.95h60.148L86.935,251.818l9.63-1.915L76.33,223" transform="translate(1191.589 442.227)"/><path class="o" d="M75.984,223,54.951,249.9l10.34,1.915L46.145,283.95h60.148L86.935,251.818l9.63-1.915L76.33,223" transform="translate(1149.575 442.227)"/><path class="p" d="M75.984,223,54.951,249.9l10.34,1.915L46.145,283.95h60.148L86.935,251.818l9.63-1.915L76.33,223" transform="translate(1217.265 465.568)"/><path class="p" d="M75.984,223,54.951,249.9l10.34,1.915L46.145,283.95h60.148L86.935,251.818l9.63-1.915L76.33,223" transform="translate(1267.448 462.067)"/><path class="p" d="M75.984,223,54.951,249.9l10.34,1.915L46.145,283.95h60.148L86.935,251.818l9.63-1.915L76.33,223" transform="translate(1234.771 485.408)"/><path class="o" d="M75.984,223,54.951,249.9l10.34,1.915L46.145,283.95h60.148L86.935,251.818l9.63-1.915L76.33,223" transform="translate(1134.404 446.895)"/><path class="o" d="M75.984,223,54.951,249.9l10.34,1.915L46.145,283.95h60.148L86.935,251.818l9.63-1.915L76.33,223" transform="translate(1111.062 435.225)"/><path class="o" d="M75.984,223,54.951,249.9l10.34,1.915L46.145,283.95h60.148L86.935,251.818l9.63-1.915L76.33,223" transform="translate(1076.051 458.566)"/><path class="o" d="M75.984,223,54.951,249.9l10.34,1.915L46.145,283.95h60.148L86.935,251.818l9.63-1.915L76.33,223" transform="translate(1052.71 446.895)"/><path class="o" d="M75.984,223,54.951,249.9l10.34,1.915L46.145,283.95h60.148L86.935,251.818l9.63-1.915L76.33,223" transform="translate(1029.368 435.225)"/><path class="o" d="M75.984,223,54.951,249.9l10.34,1.915L46.145,283.95h60.148L86.935,251.818l9.63-1.915L76.33,223" transform="translate(1008.361 448.062)"/><path class="o" d="M75.984,223,54.951,249.9l10.34,1.915L46.145,283.95h60.148L86.935,251.818l9.63-1.915L76.33,223" transform="translate(990.855 438.726)"/><path class="p" d="M75.984,223,54.951,249.9l10.34,1.915L46.145,283.95h60.148L86.935,251.818l9.63-1.915L76.33,223" transform="translate(1169.415 477.239)"/><path class="p" d="M75.984,223,54.951,249.9l10.34,1.915L46.145,283.95h60.148L86.935,251.818l9.63-1.915L76.33,223" transform="translate(1106.394 508.749)"/><path class="p" d="M75.984,223,54.951,249.9l10.34,1.915L46.145,283.95h60.148L86.935,251.818l9.63-1.915L76.33,223" transform="translate(1135.571 479.573)"/><path class="o" d="M75.984,223,54.951,249.9l10.34,1.915L46.145,283.95h60.148L86.935,251.818l9.63-1.915L76.33,223" transform="translate(1169.415 508.749)"/></g><g transform="translate(-661 -658.225)"><path class="o" d="M75.984,223,54.951,249.9l10.34,1.915L46.145,283.95h60.148L86.935,251.818l9.63-1.915L76.33,223" transform="translate(1286.121 452.731)"/><path class="o" d="M75.984,223,54.951,249.9l10.34,1.915L46.145,283.95h60.148L86.935,251.818l9.63-1.915L76.33,223" transform="translate(1265.114 449.229)"/><path class="o" d="M75.984,223,54.951,249.9l10.34,1.915L46.145,283.95h60.148L86.935,251.818l9.63-1.915L76.33,223" transform="translate(1240.606 456.232)"/><path class="o" d="M75.984,223,54.951,249.9l10.34,1.915L46.145,283.95h60.148L86.935,251.818l9.63-1.915L76.33,223" transform="translate(1205.594 444.561)"/><path class="o" d="M75.984,223,54.951,249.9l10.34,1.915L46.145,283.95h60.148L86.935,251.818l9.63-1.915L76.33,223" transform="translate(1170.582 456.232)"/><path class="o" d="M75.984,223,54.951,249.9l10.34,1.915L46.145,283.95h60.148L86.935,251.818l9.63-1.915L76.33,223" transform="translate(1191.589 442.227)"/><path class="o" d="M75.984,223,54.951,249.9l10.34,1.915L46.145,283.95h60.148L86.935,251.818l9.63-1.915L76.33,223" transform="translate(1149.575 442.227)"/><path class="p" d="M75.984,223,54.951,249.9l10.34,1.915L46.145,283.95h60.148L86.935,251.818l9.63-1.915L76.33,223" transform="translate(1217.265 465.568)"/><path class="p" d="M75.984,223,54.951,249.9l10.34,1.915L46.145,283.95h60.148L86.935,251.818l9.63-1.915L76.33,223" transform="translate(1267.448 462.067)"/><path class="p" d="M75.984,223,54.951,249.9l10.34,1.915L46.145,283.95h60.148L86.935,251.818l9.63-1.915L76.33,223" transform="translate(1234.771 485.408)"/><path class="o" d="M75.984,223,54.951,249.9l10.34,1.915L46.145,283.95h60.148L86.935,251.818l9.63-1.915L76.33,223" transform="translate(1134.404 446.895)"/><path class="o" d="M75.984,223,54.951,249.9l10.34,1.915L46.145,283.95h60.148L86.935,251.818l9.63-1.915L76.33,223" transform="translate(1111.062 435.225)"/><path class="o" d="M75.984,223,54.951,249.9l10.34,1.915L46.145,283.95h60.148L86.935,251.818l9.63-1.915L76.33,223" transform="translate(1076.051 458.566)"/><path class="o" d="M75.984,223,54.951,249.9l10.34,1.915L46.145,283.95h60.148L86.935,251.818l9.63-1.915L76.33,223" transform="translate(1052.71 446.895)"/><path class="o" d="M75.984,223,54.951,249.9l10.34,1.915L46.145,283.95h60.148L86.935,251.818l9.63-1.915L76.33,223" transform="translate(1029.368 435.225)"/><path class="o" d="M75.984,223,54.951,249.9l10.34,1.915L46.145,283.95h60.148L86.935,251.818l9.63-1.915L76.33,223" transform="translate(1008.361 448.062)"/><path class="o" d="M75.984,223,54.951,249.9l10.34,1.915L46.145,283.95h60.148L86.935,251.818l9.63-1.915L76.33,223" transform="translate(990.855 438.726)"/><path class="p" d="M75.984,223,54.951,249.9l10.34,1.915L46.145,283.95h60.148L86.935,251.818l9.63-1.915L76.33,223" transform="translate(1169.415 477.239)"/><path class="p" d="M75.984,223,54.951,249.9l10.34,1.915L46.145,283.95h60.148L86.935,251.818l9.63-1.915L76.33,223" transform="translate(1106.394 508.749)"/><path class="p" d="M75.984,223,54.951,249.9l10.34,1.915L46.145,283.95h60.148L86.935,251.818l9.63-1.915L76.33,223" transform="translate(1135.571 479.573)"/><path class="o" d="M75.984,223,54.951,249.9l10.34,1.915L46.145,283.95h60.148L86.935,251.818l9.63-1.915L76.33,223" transform="translate(1169.415 508.749)"/></g><g transform="translate(-285 -658.225)"><path class="o" d="M75.984,223,54.951,249.9l10.34,1.915L46.145,283.95h60.148L86.935,251.818l9.63-1.915L76.33,223" transform="translate(1286.121 452.731)"/><path class="o" d="M75.984,223,54.951,249.9l10.34,1.915L46.145,283.95h60.148L86.935,251.818l9.63-1.915L76.33,223" transform="translate(1265.114 449.229)"/><path class="o" d="M75.984,223,54.951,249.9l10.34,1.915L46.145,283.95h60.148L86.935,251.818l9.63-1.915L76.33,223" transform="translate(1240.606 456.232)"/><path class="o" d="M75.984,223,54.951,249.9l10.34,1.915L46.145,283.95h60.148L86.935,251.818l9.63-1.915L76.33,223" transform="translate(1205.594 444.561)"/><path class="o" d="M75.984,223,54.951,249.9l10.34,1.915L46.145,283.95h60.148L86.935,251.818l9.63-1.915L76.33,223" transform="translate(1170.582 456.232)"/><path class="o" d="M75.984,223,54.951,249.9l10.34,1.915L46.145,283.95h60.148L86.935,251.818l9.63-1.915L76.33,223" transform="translate(1191.589 442.227)"/><path class="o" d="M75.984,223,54.951,249.9l10.34,1.915L46.145,283.95h60.148L86.935,251.818l9.63-1.915L76.33,223" transform="translate(1149.575 442.227)"/><path class="p" d="M75.984,223,54.951,249.9l10.34,1.915L46.145,283.95h60.148L86.935,251.818l9.63-1.915L76.33,223" transform="translate(1217.265 465.568)"/><path class="p" d="M75.984,223,54.951,249.9l10.34,1.915L46.145,283.95h60.148L86.935,251.818l9.63-1.915L76.33,223" transform="translate(1267.448 462.067)"/><path class="p" d="M75.984,223,54.951,249.9l10.34,1.915L46.145,283.95h60.148L86.935,251.818l9.63-1.915L76.33,223" transform="translate(1234.771 485.408)"/><path class="o" d="M75.984,223,54.951,249.9l10.34,1.915L46.145,283.95h60.148L86.935,251.818l9.63-1.915L76.33,223" transform="translate(1134.404 446.895)"/><path class="o" d="M75.984,223,54.951,249.9l10.34,1.915L46.145,283.95h60.148L86.935,251.818l9.63-1.915L76.33,223" transform="translate(1111.062 435.225)"/><path class="o" d="M75.984,223,54.951,249.9l10.34,1.915L46.145,283.95h60.148L86.935,251.818l9.63-1.915L76.33,223" transform="translate(1076.051 458.566)"/><path class="o" d="M75.984,223,54.951,249.9l10.34,1.915L46.145,283.95h60.148L86.935,251.818l9.63-1.915L76.33,223" transform="translate(1052.71 446.895)"/><path class="o" d="M75.984,223,54.951,249.9l10.34,1.915L46.145,283.95h60.148L86.935,251.818l9.63-1.915L76.33,223" transform="translate(1029.368 435.225)"/><path class="o" d="M75.984,223,54.951,249.9l10.34,1.915L46.145,283.95h60.148L86.935,251.818l9.63-1.915L76.33,223" transform="translate(1008.361 448.062)"/><path class="o" d="M75.984,223,54.951,249.9l10.34,1.915L46.145,283.95h60.148L86.935,251.818l9.63-1.915L76.33,223" transform="translate(990.855 438.726)"/><path class="p" d="M75.984,223,54.951,249.9l10.34,1.915L46.145,283.95h60.148L86.935,251.818l9.63-1.915L76.33,223" transform="translate(1169.415 477.239)"/><path class="p" d="M75.984,223,54.951,249.9l10.34,1.915L46.145,283.95h60.148L86.935,251.818l9.63-1.915L76.33,223" transform="translate(1106.394 508.749)"/><path class="p" d="M75.984,223,54.951,249.9l10.34,1.915L46.145,283.95h60.148L86.935,251.818l9.63-1.915L76.33,223" transform="translate(1135.571 479.573)"/><path class="o" d="M75.984,223,54.951,249.9l10.34,1.915L46.145,283.95h60.148L86.935,251.818l9.63-1.915L76.33,223" transform="translate(1169.415 508.749)"/></g></g></g></svg>