<svg xmlns="http://www.w3.org/2000/svg" xmlns:xlink="http://www.w3.org/1999/xlink" viewBox="0 0 315 100"><defs><style>.a{clip-path:url(#b);}.b{fill:#338778;}.c{fill:none;stroke:#338778;stroke-width:2px;}</style><clipPath id="b"><rect width="315" height="100"/></clipPath></defs><g id="a" class="a"><path class="b" d="M0,0H316V10H0Z" transform="translate(0 74)"/><path class="b" d="M0,0H100V10H0Z" transform="translate(244) rotate(90)"/><path class="b" d="M0,0H100V10H0Z" transform="translate(86) rotate(90)"/><path class="c" d="M570,265s22.191,72.855,75.414,72.633S719.59,264,719.59,264" transform="translate(-485 -264)"/><path class="c" d="M719.59,264s-22.953,73.41-76.176,73.633" transform="translate(-643 -264)"/><path class="c" d="M570,264s20.191,73.855,73.414,73.633" transform="translate(-327 -264)"/><path class="b" d="M0,0H60V2H0Z" transform="translate(68 21) rotate(90)"/><path class="b" d="M0,0H40V2H0Z" transform="translate(58 38) rotate(90)"/><path class="b" d="M0,0H34V2H0Z" transform="translate(48 50) rotate(90)"/><path class="b" d="M0,0H20V2H0Z" transform="translate(38 61) rotate(90)"/><path class="b" d="M0,0H14V2H0Z" transform="translate(28 67) rotate(90)"/><path class="b" d="M0,0H6V2H0Z" transform="translate(18 70) rotate(90)"/><path class="b" d="M0,0H60V2H0Z" transform="translate(96 24) rotate(90)"/><path class="b" d="M0,0H36V2H0Z" transform="translate(106 41) rotate(90)"/><path class="b" d="M0,0H24V2H0Z" transform="translate(116 52) rotate(90)"/><path class="b" d="M0,0H18V2H0Z" transform="translate(126 61) rotate(90)"/><path class="b" d="M0,0H6V2H0Z" transform="translate(136 69) rotate(90)"/><path class="b" d="M0,0H60V2H0Z" transform="translate(226 23) rotate(90)"/><path class="b" d="M0,0H36V2H0Z" transform="translate(216 41) rotate(90)"/><path class="b" d="M0,0H24V2H0Z" transform="translate(206 52) rotate(90)"/><path class="b" d="M0,0H16V2H0Z" transform="translate(196 61) rotate(90)"/><path class="b" d="M0,0H8V2H0Z" transform="translate(186 68) rotate(90)"/><path class="b" d="M0,0H6V2H0Z" transform="translate(176 72) rotate(90)"/><path class="b" d="M0,0H50V2H0Z" transform="translate(255 27) rotate(90)"/><path class="b" d="M0,0H34V2H0Z" transform="translate(265 42) rotate(90)"/><path class="b" d="M0,0H24V2H0Z" transform="translate(275 55) rotate(90)"/><path class="b" d="M0,0H14V2H0Z" transform="translate(285 63) rotate(90)"/><path class="b" d="M0,0H8V2H0Z" transform="translate(295 68) rotate(90)"/></g></svg>