<svg xmlns="http://www.w3.org/2000/svg" xmlns:xlink="http://www.w3.org/1999/xlink" class="logo" viewBox="0 0 349 428">
  <defs>
    <style>
      .logo .cls-2, .logo .cls-4 {
        fill: #fa6640;
      }

      .logo .cls-3 {
        fill: none;
        stroke: #fa6640;
        stroke-width: 2px;
      }

      .logo .cls-4 {
        stroke: rgba(112,112,112,0);
      }

      .logo .cls-5 {
        fill: #fff;
      }
    </style>
  </defs>
  <g id="Web_1920_1" data-name="Web 1920 – 1" class="cls-1">
    <path id="Path_8" data-name="Path 8" class="cls-2" d="M-13.2-8.8c-9,9.6-12.6,17.4-12.6,26C-25.8,30.4-17.8,42-5,42c22.4,0,41.4-30.2,53.8-64,2.2-6.2,4.4-12.4,6.8-18.2,8.2-2.8,16.2-4.6,23-4.8,1-2.6-.2-5-4.8-4.8a84.7,84.7,0,0,0-15.6,2.6C69.4-75.4,81-100,95.6-119.6c2.6-3.4,3.6-4.4,3.6-5.8,0-2.4-5.4-7.8-9-7.6-4.6,0-14.6,11.2-24,29.4-8.4,16.4-15,32-24.4,59l-1.2,3.2C14.4-31.4-1.8-20.6-13.2-8.8ZM-7,32.6c-5.8,0-9.4-3.8-9.4-11.4,0-6.2,2.6-14,10.2-22.6C4-13.2,18.4-24.6,37.8-33.6,26.2-1.6,9,32.6-7,32.6Z" transform="translate(55 134)"/>
    <path id="Path_7" data-name="Path 7" class="cls-2" d="M-4.55-14.17C-4.55-5.59.26-1.43,8.32-1.43c12.74,0,27.17-13.13,32.5-20.54.78-1.04.91-1.43.91-1.95,0-.39-.13-.65-.52-.65s-.78,0-1.69,1.17C34.97-18.07,22.1-5.72,10.92-5.72c-4.42,0-6.37-1.82-6.37-5.72a23.523,23.523,0,0,1,1.82-8.32C21.71-23.14,33.54-32.5,33.54-38.87c0-3.64-2.21-6.24-8.45-6.24C13.65-45.11-4.55-28.34-4.55-14.17ZM28.73-40.3c0,3.9-9.36,14.69-21.19,17.94,4.68-9.75,13.65-19.63,19.5-19.76C28.08-42.12,28.73-41.6,28.73-40.3Zm59.02-4.68c-7.28,0-18.59,5.98-18.59,15.73,0,8.19,8.32,12.09,8.32,18.85,0,2.6-1.56,4.81-5.07,4.81a9.633,9.633,0,0,1-7.93-4.42c-.26-.52-.52-.91-.91-.91s-.78.26-.78,1.3c0,3.38,4.29,10.4,11.57,10.4,5.46,0,8.84-3.51,8.84-8.45,0-7.02-7.28-9.75-7.28-17.42,0-8.58,9.1-12.22,15.73-12.22a21.106,21.106,0,0,1,5.33.78c.52,0,.91-.39.91-1.3C97.89-40.17,95.16-44.98,87.75-44.98ZM62.14-50.31c-8.32,0-21.19,7.02-21.19,18.72,0,10.14,10.92,14.69,10.92,22.88,0,2.86-1.56,5.33-5.2,5.33a11.725,11.725,0,0,1-9.62-6.11c-.26-.52-.52-.91-.91-.91s-.78.26-.78,1.3c0,3.9,4.94,12.09,13.26,12.09,5.85,0,9.49-3.77,9.49-8.84,0-8.32-10.01-12.09-10.01-21.06,0-10.01,10.27-15.73,17.94-15.73,3.64,0,4.81.78,5.59.78.52,0,.91-.39.91-1.3C72.54-45.5,69.81-50.31,62.14-50.31Z" transform="translate(131 107)"/>
    <path id="Path_10" data-name="Path 10" class="cls-2" d="M-13.2-8.8c-9,9.6-12.6,17.4-12.6,26C-25.8,30.4-17.8,42-5,42c22.4,0,41.4-30.2,53.8-64,2.2-6.2,4.4-12.4,6.8-18.2,8.2-2.8,16.2-4.6,23-4.8,1-2.6-.2-5-4.8-4.8a84.7,84.7,0,0,0-15.6,2.6C69.4-75.4,81-100,95.6-119.6c2.6-3.4,3.6-4.4,3.6-5.8,0-2.4-5.4-7.8-9-7.6-4.6,0-14.6,11.2-24,29.4-8.4,16.4-15,32-24.4,59l-1.2,3.2C14.4-31.4-1.8-20.6-13.2-8.8ZM-7,32.6c-5.8,0-9.4-3.8-9.4-11.4,0-6.2,2.6-14,10.2-22.6C4-13.2,18.4-24.6,37.8-33.6,26.2-1.6,9,32.6-7,32.6Z" transform="translate(68 289)"/>
    <path id="Path_9" data-name="Path 9" class="cls-2" d="M40.82-41.47c1.17.52,1.82-.39,1.04-1.43-1.3-1.82-3.51-3.12-7.41-3.12-17.16,0-40.3,21.32-40.3,36.66,0,6.11,3.9,8.45,7.28,8.45,6.89,0,15.86-8.45,22.75-16.64a12.979,12.979,0,0,0-1.04,5.33,7.817,7.817,0,0,0,8.19,8.06c9.23,0,19.11-11.57,23.14-17.94a3.431,3.431,0,0,0,.78-1.95.614.614,0,0,0-.65-.65c-.39,0-.65.13-1.56,1.3C49.79-19.11,40.95-7.93,33.41-7.93c-1.95,0-3.51-1.04-3.51-4.29,0-5.59,6.37-11.57,6.37-14.3,0-1.95-2.6-5.07-4.16-5.07-.78,0-1.3,1.43-5.46,6.76C18.07-13.91,9.36-5.98,5.85-5.98c-1.17,0-2.21-.91-2.21-3.51,0-9.88,18.85-32.5,34.58-32.5A7.072,7.072,0,0,1,40.82-41.47Zm77.09,6.63a4.242,4.242,0,0,0-4.29-4.29c-7.67,0-23.66,18.98-27.95,25.35.26-8.19,12.74-23.14,12.74-30.16a6.463,6.463,0,0,0-6.5-6.24c-6.89,0-16.77,11.18-30.94,28.99,1.56-3.64,3.51-8.84,3.51-11.44,0-3.64-4.03-6.37-5.98-6.37-.91,0-1.17.39-1.17,1.43C56.94-27.69,45.76-11.7,45.76-5.72c0,2.99,2.34,5.85,4.42,5.85,3.12,0,5.98-7.8,11.96-16.51,8.32-12.35,22.88-28.86,26.39-28.86.52,0,.91.39.91,1.3,0,4.81-11.05,22.23-11.05,30.94,0,5.46,4.03,7.28,5.46,7.28,1.69,0,2.34-2.47,3.9-4.94,4.55-7.93,18.85-23.01,21.06-23.01.26,0,.52.26.52.78,0,2.34-5.59,8.71-5.59,17.81,0,5.07,4.03,8.58,9.23,8.58,8.06,0,16.9-9.62,20.28-14.95a4.749,4.749,0,0,0,.91-1.82.749.749,0,0,0-.78-.78c-.39,0-.78.13-1.56,1.3-2.47,3.51-9.62,12.09-15.73,12.09-2.6,0-4.42-1.43-4.42-5.2C111.67-24.57,117.91-29.77,117.91-34.84Zm10.14,20.67c0,8.58,4.81,12.74,12.87,12.74,12.74,0,27.17-13.13,32.5-20.54.78-1.04.91-1.43.91-1.95,0-.39-.13-.65-.52-.65s-.78,0-1.69,1.17c-4.55,5.33-17.42,17.68-28.6,17.68-4.42,0-6.37-1.82-6.37-5.72a23.523,23.523,0,0,1,1.82-8.32c15.34-3.38,27.17-12.74,27.17-19.11,0-3.64-2.21-6.24-8.45-6.24C146.25-45.11,128.05-28.34,128.05-14.17ZM161.33-40.3c0,3.9-9.36,14.69-21.19,17.94,4.68-9.75,13.65-19.63,19.5-19.76C160.68-42.12,161.33-41.6,161.33-40.3Zm31.85-5.59c-7.93,0-20.41,6.11-20.41,16.12,0,8.84,9.75,12.87,9.75,20.15,0,2.6-1.43,4.81-4.68,4.81-3.64,0-7.67-2.6-9.49-5.98-.26-.52-.52-.91-.91-.91s-.78.26-.78,1.3c0,3.9,4.94,11.96,13.13,11.96,5.46,0,8.97-3.51,8.97-8.32,0-7.41-8.97-10.4-8.97-18.46,0-9.1,9.88-13,17.29-13,3.77,0,5.07,1.17,5.85,1.17.52,0,.91-.39.91-1.3C203.84-40.82,200.98-45.89,193.18-45.89Z" transform="translate(144 262)"/>
    <path id="Path_11" data-name="Path 11" class="cls-2" d="M20.738-6.637q0,1.8-1.613,1.838a13.361,13.361,0,0,0,.825,2.325,1.782,1.782,0,0,1-.675,1.35,2.287,2.287,0,0,1-1.5.525A3.881,3.881,0,0,1,16.2-1.013a5.146,5.146,0,0,1-.488-2.325q0-.338.037-.975t.038-.937q0,.262-1.238.262-2.1,0-4.988.188-4.125.225-4.481.637T4.613-.15A1.453,1.453,0,0,1,3.375.563,2.611,2.611,0,0,1,1.763-.094,1.829,1.829,0,0,1,.938-1.5a12.906,12.906,0,0,1,.675-2.1q.75-2.663,2.438-7.987Q9.075-25.35,12.412-25.35q3.263,0,5.025,7.275A80.877,80.877,0,0,1,18.9-8.062a5.76,5.76,0,0,1,1.237.375A1.123,1.123,0,0,1,20.738-6.637Zm-5.25-1.425Q13.838-21.15,12.525-21.15q-1.05,0-3.675,6.15Q6.975-10.575,5.888-7.312q1.2-.262,3.562-.637A40.14,40.14,0,0,1,15.488-8.062Zm27.487-16.5a2.392,2.392,0,0,1-.338,1.05q-.412.825-.487,1.013a19.3,19.3,0,0,0-1.088,5.587L40.95-6.15a9.371,9.371,0,0,1-.75,3.375Q39.263-.6,37.875-.6q-2.062,0-4.088-3.45a40.085,40.085,0,0,1-2.962-7.05q-.863-2.925-1.763-5.85-.787,6.375-.788,8.55,0,4.8.581,5.512a2.107,2.107,0,0,1,.581,1.05,1.548,1.548,0,0,1-.75,1.256,2.546,2.546,0,0,1-1.5.544q-1.05,0-1.725-2.213a10.9,10.9,0,0,1-.525-3.15q0-.637.038-1.894t.038-1.894a40.815,40.815,0,0,1,.375-4.575,40.815,40.815,0,0,0,.375-4.575v-4.575a.718.718,0,0,0-.056-.225.718.718,0,0,1-.056-.225q0-.75,1.013-1.238a3.661,3.661,0,0,1,1.65-.413,3.045,3.045,0,0,1,2.737,1.237,6.052,6.052,0,0,1,.413,1.725q.113.9.225,1.838a68.732,68.732,0,0,0,2.362,8.55q2.288,6.938,3.413,6.937.412,0,.412-1.05a8.043,8.043,0,0,0-.094-.975,8.163,8.163,0,0,1-.094-1.05l.375-10.162a18.475,18.475,0,0,1,.787-4.5q.975-3.113,2.625-3.113a2.885,2.885,0,0,1,1.463.675A1.738,1.738,0,0,1,42.975-24.562Zm21.3,9a21.006,21.006,0,0,1-2.7,10.612Q58.35.675,52.912.675a6.872,6.872,0,0,1-3.375-.788A2.335,2.335,0,0,1,48,.6,1.779,1.779,0,0,1,46.95.112a17.026,17.026,0,0,1-.75-5.588q0-3,.169-9t.169-9a1.58,1.58,0,0,0-.038-.262,1.613,1.613,0,0,1-.037-.3,1.355,1.355,0,0,1,.487-1.088,1.741,1.741,0,0,1,1.162-.413,2.392,2.392,0,0,1,1.669.675,1.591,1.591,0,0,1,.544,1.575A6.19,6.19,0,0,1,55.763-26.1a7.557,7.557,0,0,1,6.563,3.225A12.683,12.683,0,0,1,64.275-15.562Zm-3.713-.15q0-7.65-4.5-7.65a5.137,5.137,0,0,0-3.638,1.875,8.884,8.884,0,0,0-2.156,3.581,14.724,14.724,0,0,0-.581,4.256v8.063q0,3.525,2.963,3.525A6.182,6.182,0,0,0,57.488-4.8a13.379,13.379,0,0,0,2.475-5.288A25.528,25.528,0,0,0,60.563-15.713Z" transform="translate(35.7 250.263) rotate(-30)"/>
    <line id="Line_1" data-name="Line 1" class="cls-3" y1="35" x2="54" transform="translate(40.5 224.5)"/>
    <line id="Line_2" data-name="Line 2" class="cls-3" y1="35" x2="54" transform="translate(43.5 227.5)"/>
    <line id="Line_3" data-name="Line 3" class="cls-3" y1="35" x2="54" transform="translate(22.5 186.5)"/>
    <line id="Line_4" data-name="Line 4" class="cls-3" y1="35" x2="54" transform="translate(20.5 182.5)"/>
    <path id="Path_1" data-name="Path 1" class="cls-4" d="M498.5,683.409s-3.309-3.673-6.881-2.248a7.451,7.451,0,0,0-4.363,4.84s3.923,1.941,6.129,1.574S498.5,683.409,498.5,683.409Z" transform="matrix(-0.574, 0.819, -0.819, -0.574, 871.216, 257.821)"/>
    <path id="Path_2" data-name="Path 2" class="cls-4" d="M498.524,683.414s-3.316-3.681-6.9-2.253a7.467,7.467,0,0,0-4.372,4.85s3.932,1.945,6.142,1.577S498.524,683.414,498.524,683.414Z" transform="translate(797.911 557.747) rotate(147)"/>
    <path id="Path_3" data-name="Path 3" class="cls-4" d="M497.993,683.292s-3.16-3.508-6.571-2.147a7.115,7.115,0,0,0-4.166,4.622s3.746,1.853,5.853,1.5S497.993,683.292,497.993,683.292Z" transform="translate(163.776 1056.424) rotate(-155)"/>
    <path id="Path_4" data-name="Path 4" class="cls-4" d="M498.692,683.452s-3.366-3.736-7-2.286a7.578,7.578,0,0,0-4.437,4.922s3.99,1.974,6.233,1.6S498.692,683.452,498.692,683.452Z" transform="translate(-738.766 352.036) rotate(-66)"/>
    <path id="Path_5" data-name="Path 5" class="cls-4" d="M499.584,683.657s-3.628-4.027-7.544-2.465a8.169,8.169,0,0,0-4.784,5.306s4.3,2.128,6.719,1.726S499.584,683.657,499.584,683.657Z" transform="translate(-640.614 -206.129) rotate(-26)"/>
    <path id="Path_6" data-name="Path 6" class="cls-4" d="M497.858,683.261s-3.12-3.464-6.488-2.12a7.026,7.026,0,0,0-4.114,4.564s3.7,1.83,5.779,1.484S497.858,683.261,497.858,683.261Z" transform="matrix(0.97, 0.242, -0.242, 0.97, -208.157, -566.21)"/>
    <path id="Path_12" data-name="Path 12" class="cls-2" d="M.173,273.168l18.234,22.215L.173,317.715H350.625l-20.293-22.332,20.293-22.215" transform="translate(0 69)"/>
    <path id="Path_13" data-name="Path 13" class="cls-5" d="M-117.81-16.324a4.178,4.178,0,0,0-4.092-2.86c-4.752,0-8.4,5.412-8.4,11.4,0,5.1,2.376,7.964,5.72,7.964,2.42,0,4.4-1.672,5.764-5.412h.088c0,3.916,1.364,5.412,3.124,5.412,1.364,0,2.86-1.276,2.86-2.156a1.007,1.007,0,0,0-.352-.748,2.991,2.991,0,0,1-1.716.7c-.88,0-1.364-1.32-1.364-4.928a33.243,33.243,0,0,1,.66-7.3,8.4,8.4,0,0,0,1.1-3.08c0-1.056-.88-2.112-1.628-2.112-.66,0-1.144.616-1.716,3.124Zm-1.012,7c-1.628,5.192-3.388,7.084-5.412,7.084-1.892,0-2.992-1.672-2.992-5.764,0-5.456,2.684-8.976,5.368-8.976,1.5,0,2.816.968,3.608,2.948C-118.47-12.892-118.734-10.648-118.822-9.328Zm16.764-1.1a1.9,1.9,0,0,0,1.1-1.54,2.029,2.029,0,0,0-2.024-2.068c-1.584,0-3.124,1.5-4.268,4.928h-.088c.264-3.608-.66-4.8-2.376-4.8-1.452,0-2.684,1.188-2.684,1.848a.992.992,0,0,0,.352.7,4.8,4.8,0,0,1,1.54-.308c.7,0,1.012.924,1.012,3.08,0,2.376-.4,4.532-.4,5.72,0,1.936.748,3.036,1.628,3.036A2.107,2.107,0,0,0-106.59-1.54c0-1.232-.484-2.376-.484-3.52,0-2.948,1.848-5.984,3.476-5.984A2.279,2.279,0,0,1-102.058-10.428Zm12.232,7.04a5.51,5.51,0,0,1-3.608,1.144c-2.772,0-4.224-1.452-4.224-4.488a8.177,8.177,0,0,0,3.652.968,4.234,4.234,0,0,0,4.532-4.268,3.952,3.952,0,0,0-4.268-4c-3.96,0-6.776,3.7-6.776,7.48,0,4.268,2.684,6.732,6.248,6.732,2.728,0,4.8-1.716,4.8-2.9A.724.724,0,0,0-89.826-3.388ZM-97.57-7.92c.352-2.6,1.848-4.136,3.564-4.136a2.074,2.074,0,0,1,2.112,2.068c0,1.452-.924,2.464-2.9,2.464A9.748,9.748,0,0,1-97.57-7.92Zm29.348-6.16c1.188-.308,1.8-1.012,1.8-1.98,0-1.672-2.068-3.124-5.148-3.124-5.192,0-9.416,4.708-9.416,10.868,0,4.928,2.9,8.492,7.48,8.492a5.858,5.858,0,0,0,4.312-1.8h.044a29.124,29.124,0,0,1-.528,5.94l.088.088c1.76-.044,2.992-1.056,2.992-2.244,0-1.628-.7-4.488-.528-6.38A8.165,8.165,0,0,0-66.066-7.48a1.785,1.785,0,0,0-1.628-1.452,1.05,1.05,0,0,0-1.012.748,15.884,15.884,0,0,0-.44,4.312,5.27,5.27,0,0,1-3.828,1.628c-2.992,0-4.928-1.76-4.928-6.6,0-4.884,2.6-8.14,5.676-8.14C-70.246-16.984-68.618-16.06-68.222-14.08Zm14.96,10.692A5.51,5.51,0,0,1-56.87-2.244c-2.772,0-4.224-1.452-4.224-4.488a8.177,8.177,0,0,0,3.652.968,4.234,4.234,0,0,0,4.532-4.268,3.952,3.952,0,0,0-4.268-4c-3.96,0-6.776,3.7-6.776,7.48,0,4.268,2.684,6.732,6.248,6.732,2.728,0,4.8-1.716,4.8-2.9A.724.724,0,0,0-53.262-3.388ZM-61.006-7.92c.352-2.6,1.848-4.136,3.564-4.136A2.074,2.074,0,0,1-55.33-9.988c0,1.452-.924,2.464-2.9,2.464A9.748,9.748,0,0,1-61.006-7.92Zm10.736-5.016a2.121,2.121,0,0,0-.66,1.76l2.6-.176c-.176,2.068-.7,5.148-.7,7.26,0,2.728,1.672,4.224,3.7,4.224,2.2,0,4-1.628,4-2.816a.906.906,0,0,0-.308-.748,4.243,4.243,0,0,1-2.86,1.364c-1.232,0-1.892-.66-1.892-2.816,0-1.672.176-5.324.264-6.512,1.056-.044,2.2-.088,3.344-.088a3.154,3.154,0,0,0,.616-1.76l-.088-.044c-1.144,0-2.86.132-3.652.22l.044-.528a6.793,6.793,0,0,0,1.276-3.388,2.153,2.153,0,0,0-1.98-1.848c-.7,0-1.144,1.188-1.364,3.96A2.55,2.55,0,0,1-50.27-12.936Zm9.592,0a2.121,2.121,0,0,0-.66,1.76l2.6-.176c-.176,2.068-.7,5.148-.7,7.26,0,2.728,1.672,4.224,3.7,4.224,2.2,0,4-1.628,4-2.816a.906.906,0,0,0-.308-.748,4.243,4.243,0,0,1-2.86,1.364c-1.232,0-1.892-.66-1.892-2.816,0-1.672.176-5.324.264-6.512,1.056-.044,2.2-.088,3.344-.088a3.154,3.154,0,0,0,.616-1.76l-.088-.044c-1.144,0-2.86.132-3.652.22l.044-.528A6.793,6.793,0,0,0-35-16.984a2.153,2.153,0,0,0-1.98-1.848c-.7,0-1.144,1.188-1.364,3.96A2.55,2.55,0,0,1-40.678-12.936Zm9.5,1.584a4.8,4.8,0,0,1,1.54-.308c.792,0,1.232.572,1.232,2.156,0,2.156-.4,4.18-.4,5.9,0,2.376,1.012,3.784,2.948,3.784,1.276,0,2.464-1.012,2.464-1.76a.906.906,0,0,0-.308-.748,2.922,2.922,0,0,1-1.32.308c-.792,0-1.188-.528-1.188-2.068,0-1.848.44-4.224.44-6.6,0-2.2-.968-3.212-2.42-3.212-1.584,0-3.344,1.188-3.344,1.848A.992.992,0,0,0-31.174-11.352Zm2.684-6.468a1.48,1.48,0,0,0,1.5,1.584,1.739,1.739,0,0,0,1.672-1.848,1.515,1.515,0,0,0-1.54-1.584A1.677,1.677,0,0,0-28.49-17.82Zm6.116,6.468a4.8,4.8,0,0,1,1.54-.308c.7,0,1.012.924,1.012,3.08,0,2.2-.4,4.532-.4,5.72,0,1.936.748,3.036,1.628,3.036A2.107,2.107,0,0,0-16.918-1.54c0-1.232-.484-2.376-.484-3.52,0-.616.088-1.276.132-1.8.7-2.2,2.6-4.4,4.092-4.4,1.012,0,1.5.792,1.5,2.728,0,1.8-.176,3.872-.176,4.928C-11.858-1.1-10.582.176-9,.176c1.408,0,2.464-1.012,2.464-1.76a.906.906,0,0,0-.308-.748,2.783,2.783,0,0,1-1.32.308c-.66,0-1.056-.4-1.056-1.848,0-1.716.176-3.828.176-5.456,0-2.772-1.408-4.576-3.388-4.576-1.892,0-3.7,1.364-5.016,4.532h-.044c.352-3.168-.836-4.532-2.552-4.532-1.452,0-2.684,1.188-2.684,1.848A.992.992,0,0,0-22.374-11.352Zm27.1.088A3.921,3.921,0,0,0,1.078-13.9c-2.992,0-5.9,3.608-5.9,7.612A5.564,5.564,0,0,0-1.078-.66v.044c-2.2,1.144-3.608,2.772-3.608,4.8,0,2.6,1.672,4.268,4.708,4.268,3.784,0,7.128-3.212,7.128-8.492,0-2.948-.44-4.664-.44-6.688A10.777,10.777,0,0,1,7.15-9.9a7.7,7.7,0,0,0,.968-3.256,1.683,1.683,0,0,0-1.5-1.408c-.748,0-1.408.88-1.848,3.3ZM4.554-9.24c-.352,4.048-2.332,7-4,7-1.452,0-2.508-1.232-2.508-4.048,0-3.344,1.54-5.192,3.344-5.192A3.661,3.661,0,0,1,4.554-9.24ZM4.51-3.564h.044A24.527,24.527,0,0,1,4.818.088c0,3.52-1.848,6.16-4.62,6.16A2.251,2.251,0,0,1-2.354,3.96c0-1.32.792-2.552,2.86-3.828C3.058-1.452,3.718-2.068,4.51-3.564ZM16.038-16.412a4.559,4.559,0,0,1,1.848-.528c.748,0,1.276.572,1.276,2.42,0,3.652-.792,7.656-.792,10.6,0,2.86.836,4.092,1.892,4.092a1.447,1.447,0,0,0,1.452-1.364c0-1.056-.44-2.376-.44-4.18.528-5.28,3.74-11.176,5.808-11.176.88,0,1.5.836,1.5,3.388,0,3.52-.528,5.852-.528,9.24,0,2.86.836,4.092,1.892,4.092a1.432,1.432,0,0,0,1.364-1.364c0-1.056-.44-2.376-.44-4.18.7-5.28,3.564-11.176,5.588-11.176.88,0,1.716.836,1.716,3.388,0,3.52-.528,5.852-.528,8.888s1.5,4.444,2.9,4.444c1.364,0,2.86-1.276,2.86-2.156a.94.94,0,0,0-.352-.748,2.991,2.991,0,0,1-1.716.7c-.66,0-1.056-.616-1.056-2.684,0-2.992.528-5.72.528-8.932,0-3.52-1.5-5.544-3.784-5.544-2.42,0-4.576,2.508-6.072,8.14h-.088c.088-.748.22-1.892.22-2.552,0-3.916-1.32-5.588-3.388-5.588-2.508,0-4.708,2.332-6.336,8.14h-.088a29,29,0,0,0,.308-4.62c0-2.244-1.188-3.52-2.816-3.52-1.672,0-3.256,1.1-3.256,1.98A.977.977,0,0,0,16.038-16.412ZM59.2-2.332a2.783,2.783,0,0,1-1.32.308c-.7,0-1.1-.792-1.188-3.52A18.562,18.562,0,0,1,57.046-9.9a7.7,7.7,0,0,0,.968-3.256,1.683,1.683,0,0,0-1.5-1.408c-.748,0-1.408.88-1.848,3.3h-.044A3.879,3.879,0,0,0,51.15-13.9c-3.168,0-6.072,3.476-6.072,7.964,0,3.74,2.2,6.116,4.8,6.116,2.156,0,3.7-1.628,4.488-4.18h.044c.176,2.992,1.32,4.18,2.64,4.18,1.408,0,2.464-1.012,2.464-1.76A.906.906,0,0,0,59.2-2.332Zm-4.84-7.04-.044,1.936c-.792,3.388-2.332,5.192-3.872,5.192-1.452,0-2.508-1.232-2.508-4.048,0-3.344,1.54-5.192,3.344-5.192A3.526,3.526,0,0,1,54.362-9.372Zm16.06-1.056a1.9,1.9,0,0,0,1.1-1.54A2.029,2.029,0,0,0,69.5-14.036c-1.584,0-3.124,1.5-4.268,4.928h-.088c.264-3.608-.66-4.8-2.376-4.8-1.452,0-2.684,1.188-2.684,1.848a.992.992,0,0,0,.352.7,4.8,4.8,0,0,1,1.54-.308c.7,0,1.012.924,1.012,3.08,0,2.376-.4,4.532-.4,5.72,0,1.936.748,3.036,1.628,3.036A2.107,2.107,0,0,0,65.89-1.54c0-1.232-.484-2.376-.484-3.52,0-2.948,1.848-5.984,3.476-5.984A2.279,2.279,0,0,1,70.422-10.428Zm11.88,0a1.9,1.9,0,0,0,1.1-1.54,2.029,2.029,0,0,0-2.024-2.068c-1.584,0-3.124,1.5-4.268,4.928h-.088c.264-3.608-.66-4.8-2.376-4.8-1.452,0-2.684,1.188-2.684,1.848a.992.992,0,0,0,.352.7,4.8,4.8,0,0,1,1.54-.308c.7,0,1.012.924,1.012,3.08,0,2.376-.4,4.532-.4,5.72,0,1.936.748,3.036,1.628,3.036A2.107,2.107,0,0,0,77.77-1.54c0-1.232-.484-2.376-.484-3.52,0-2.948,1.848-5.984,3.476-5.984A2.279,2.279,0,0,1,82.3-10.428Zm1.892-.924a4.8,4.8,0,0,1,1.54-.308c.792,0,1.232.572,1.232,2.156,0,2.156-.4,4.18-.4,5.9,0,2.376,1.012,3.784,2.948,3.784,1.276,0,2.464-1.012,2.464-1.76a.906.906,0,0,0-.308-.748,2.922,2.922,0,0,1-1.32.308c-.792,0-1.188-.528-1.188-2.068,0-1.848.44-4.224.44-6.6,0-2.2-.968-3.212-2.42-3.212-1.584,0-3.344,1.188-3.344,1.848A.992.992,0,0,0,84.194-11.352Zm2.684-6.468a1.48,1.48,0,0,0,1.5,1.584,1.739,1.739,0,0,0,1.672-1.848,1.515,1.515,0,0,0-1.54-1.584A1.677,1.677,0,0,0,86.878-17.82Zm17.2,14.432a5.51,5.51,0,0,1-3.608,1.144C97.7-2.244,96.25-3.7,96.25-6.732a8.177,8.177,0,0,0,3.652.968,4.234,4.234,0,0,0,4.532-4.268,3.952,3.952,0,0,0-4.268-4c-3.96,0-6.776,3.7-6.776,7.48,0,4.268,2.684,6.732,6.248,6.732,2.728,0,4.8-1.716,4.8-2.9A.724.724,0,0,0,104.082-3.388ZM96.338-7.92c.352-2.6,1.848-4.136,3.564-4.136a2.074,2.074,0,0,1,2.112,2.068c0,1.452-.924,2.464-2.9,2.464A9.748,9.748,0,0,1,96.338-7.92ZM121.2-2.332a2.783,2.783,0,0,1-1.32.308c-.7,0-1.188-.792-1.188-3.52a73.071,73.071,0,0,1,.66-8.756,19,19,0,0,0,1.276-4.928,2.572,2.572,0,0,0-2.112-2.068c-.748,0-1.144.352-1.408,2.068a56.192,56.192,0,0,0-.4,7.964h-.044c-.924-1.716-2.068-2.64-3.7-2.64-2.992,0-5.9,3.476-5.9,7.964,0,3.652,2.068,6.116,4.8,6.116,2.156,0,3.7-1.628,4.488-4.18h.044c.176,2.992,1.32,4.18,2.64,4.18,1.408,0,2.464-1.012,2.464-1.76A.906.906,0,0,0,121.2-2.332ZM116.49-9.064l-.132,1.628c-.88,3.52-2.376,5.192-3.916,5.192-1.452,0-2.508-1.232-2.508-4.048,0-3.344,1.54-5.192,3.3-5.192A3.874,3.874,0,0,1,116.49-9.064ZM127.578-7c.044-7.172,1.408-9.944,1.408-12.892,0-1.1-.572-1.628-1.452-1.628-1.232,0-2.112,1.232-2.112,3.828a57.173,57.173,0,0,0,.836,9.856A.939.939,0,0,0,127.578-7ZM125.29-1.584a1.765,1.765,0,0,0,1.76,1.76,1.765,1.765,0,0,0,1.76-1.76,1.765,1.765,0,0,0-1.76-1.76A1.765,1.765,0,0,0,125.29-1.584Z" transform="translate(175 372)"/>
    <path id="Path_14" data-name="Path 14" class="cls-2" d="M-99.682-14.08c1.188-.308,1.8-1.012,1.8-1.98,0-1.672-2.068-3.124-5.148-3.124-5.192,0-9.416,4.708-9.416,10.868,0,4.928,2.9,8.492,7.48,8.492a5.858,5.858,0,0,0,4.312-1.8h.044a29.124,29.124,0,0,1-.528,5.94l.088.088c1.76-.044,2.992-1.056,2.992-2.244,0-1.628-.7-4.488-.528-6.38A8.165,8.165,0,0,0-97.526-7.48a1.785,1.785,0,0,0-1.628-1.452,1.05,1.05,0,0,0-1.012.748,15.884,15.884,0,0,0-.44,4.312,5.27,5.27,0,0,1-3.828,1.628c-2.992,0-4.928-1.76-4.928-6.6,0-4.884,2.6-8.14,5.676-8.14C-101.706-16.984-100.078-16.06-99.682-14.08ZM-81.07-2.332a2.783,2.783,0,0,1-1.32.308c-.7,0-1.1-.792-1.188-3.52A18.562,18.562,0,0,1-83.226-9.9a7.7,7.7,0,0,0,.968-3.256,1.683,1.683,0,0,0-1.5-1.408c-.748,0-1.408.88-1.848,3.3h-.044a3.879,3.879,0,0,0-3.476-2.64c-3.168,0-6.072,3.476-6.072,7.964,0,3.74,2.2,6.116,4.8,6.116,2.156,0,3.7-1.628,4.488-4.18h.044c.176,2.992,1.32,4.18,2.64,4.18,1.408,0,2.464-1.012,2.464-1.76A.906.906,0,0,0-81.07-2.332Zm-4.84-7.04-.044,1.936c-.792,3.388-2.332,5.192-3.872,5.192-1.452,0-2.508-1.232-2.508-4.048,0-3.344,1.54-5.192,3.344-5.192A3.526,3.526,0,0,1-85.91-9.372Zm13.64,6.38a2.8,2.8,0,0,1-1.936.748c-.968,0-1.584-.836-1.584-4.752a43.129,43.129,0,0,1,.484-7.392,16.844,16.844,0,0,0,1.76-4.84A2.572,2.572,0,0,0-75.658-21.3c-.748,0-1.144.572-1.54,2.244A57.49,57.49,0,0,0-78.43-6.864c0,5.632,1.408,7.04,3.784,7.04,1.5,0,2.86-1.232,2.86-2.288A1,1,0,0,0-72.27-2.992Zm.4-8.36a4.8,4.8,0,0,1,1.54-.308c.792,0,1.232.572,1.232,2.156,0,2.156-.4,4.18-.4,5.9,0,2.376,1.012,3.784,2.948,3.784,1.276,0,2.464-1.012,2.464-1.76a.906.906,0,0,0-.308-.748,2.922,2.922,0,0,1-1.32.308c-.792,0-1.188-.528-1.188-2.068,0-1.848.44-4.224.44-6.6,0-2.2-.968-3.212-2.42-3.212-1.584,0-3.344,1.188-3.344,1.848A.992.992,0,0,0-71.874-11.352Zm2.684-6.468a1.48,1.48,0,0,0,1.5,1.584,1.739,1.739,0,0,0,1.672-1.848,1.515,1.515,0,0,0-1.54-1.584A1.677,1.677,0,0,0-69.19-17.82ZM-48.334-2.332a2.783,2.783,0,0,1-1.32.308c-.7,0-1.1-.792-1.188-3.52A18.562,18.562,0,0,1-50.49-9.9a7.7,7.7,0,0,0,.968-3.256,1.683,1.683,0,0,0-1.5-1.408c-.748,0-1.408.88-1.848,3.3h-.044a3.879,3.879,0,0,0-3.476-2.64c-3.168,0-6.072,3.476-6.072,7.964,0,3.74,2.2,6.116,4.8,6.116,2.156,0,3.7-1.628,4.488-4.18h.044c.176,2.992,1.32,4.18,2.64,4.18,1.408,0,2.464-1.012,2.464-1.76A.906.906,0,0,0-48.334-2.332Zm-4.84-7.04-.044,1.936c-.792,3.388-2.332,5.192-3.872,5.192-1.452,0-2.508-1.232-2.508-4.048,0-3.344,1.54-5.192,3.344-5.192A3.526,3.526,0,0,1-53.174-9.372Zm6.2-1.98a4.8,4.8,0,0,1,1.54-.308c.7,0,1.012.924,1.012,3.08,0,2.2-.4,4.532-.4,5.72,0,1.936.748,3.036,1.628,3.036A2.107,2.107,0,0,0-41.514-1.54c0-1.232-.484-2.376-.484-3.52,0-.616.088-1.276.132-1.8.7-2.2,2.6-4.4,4.092-4.4,1.012,0,1.5.792,1.5,2.728,0,1.8-.176,3.872-.176,4.928,0,2.508,1.276,3.784,2.86,3.784,1.408,0,2.464-1.012,2.464-1.76a.906.906,0,0,0-.308-.748,2.783,2.783,0,0,1-1.32.308c-.66,0-1.056-.4-1.056-1.848,0-1.716.176-3.828.176-5.456,0-2.772-1.408-4.576-3.388-4.576-1.892,0-3.7,1.364-5.016,4.532h-.044c.352-3.168-.836-4.532-2.552-4.532-1.452,0-2.684,1.188-2.684,1.848A.992.992,0,0,0-46.97-11.352ZM-23.826.176c3.608,0,6.556-3.168,6.556-7.568,0-3.96-2.64-6.644-5.852-6.644-3.608,0-6.556,3.256-6.556,7.656C-29.678-2.42-27.038.176-23.826.176Zm.484-12.012c1.76,0,3.212,1.5,3.212,4.576,0,3.3-1.5,5.236-3.476,5.236-1.76,0-3.212-1.408-3.212-4.488C-26.818-9.812-25.322-11.836-23.342-11.836Zm19.4-6.908a3.686,3.686,0,0,0-1.584-.44,1.325,1.325,0,0,0-1.232.88c-.572,1.364-1.364,6.38-1.364,11.836,0,5.1.66,6.644,1.936,6.644A2.2,2.2,0,0,0-4.73-.616a26.815,26.815,0,0,1-.528-6.512A49.717,49.717,0,0,1-3.938-18.744Zm3.3,13.772a1.975,1.975,0,0,0-1.54,1.936C-2.178-1.32-.242.22,2.662.22c3.036,0,5.28-2.112,5.28-4.708,0-1.8-.924-2.86-3.784-3.872C1.782-9.2,1.122-9.68,1.122-10.472c0-1.012,1.012-1.672,2.2-1.672A2.686,2.686,0,0,1,5.962-10.3a1.568,1.568,0,0,0,1.364-1.452c0-1.32-1.232-2.376-3.3-2.376A4.877,4.877,0,0,0-.99-9.592c0,1.892,1.144,3.08,3.7,3.872,2.6.836,3.256,1.32,3.256,2.244,0,1.012-.836,1.716-2.42,1.716A4.209,4.209,0,0,1-.638-4.972Zm17.512,1.98a2.8,2.8,0,0,1-1.936.748c-.968,0-1.584-.836-1.584-4.752a43.13,43.13,0,0,1,.484-7.392,16.844,16.844,0,0,0,1.76-4.84A2.572,2.572,0,0,0,13.486-21.3c-.748,0-1.144.572-1.54,2.244A57.49,57.49,0,0,0,10.714-6.864c0,5.632,1.408,7.04,3.784,7.04,1.5,0,2.86-1.232,2.86-2.288A1,1,0,0,0,16.874-2.992Zm15.708.66a2.783,2.783,0,0,1-1.32.308c-.7,0-1.1-.792-1.188-3.52A18.562,18.562,0,0,1,30.426-9.9a7.7,7.7,0,0,0,.968-3.256,1.683,1.683,0,0,0-1.5-1.408c-.748,0-1.408.88-1.848,3.3h-.044A3.879,3.879,0,0,0,24.53-13.9c-3.168,0-6.072,3.476-6.072,7.964,0,3.74,2.2,6.116,4.8,6.116,2.156,0,3.7-1.628,4.488-4.18h.044c.176,2.992,1.32,4.18,2.64,4.18,1.408,0,2.464-1.012,2.464-1.76A.906.906,0,0,0,32.582-2.332Zm-4.84-7.04L27.7-7.436c-.792,3.388-2.332,5.192-3.872,5.192-1.452,0-2.508-1.232-2.508-4.048,0-3.344,1.54-5.192,3.344-5.192A3.526,3.526,0,0,1,27.742-9.372Zm6.2-1.98a4.8,4.8,0,0,1,1.54-.308c.7,0,1.012.924,1.012,3.08,0,2.2-.4,4.532-.4,5.72C36.1-.924,36.85.176,37.73.176A2.107,2.107,0,0,0,39.4-1.54c0-1.232-.484-2.376-.484-3.52,0-.616.088-1.276.132-1.8.7-2.2,2.6-4.4,4.092-4.4,1.012,0,1.5.792,1.5,2.728,0,1.8-.176,3.872-.176,4.928,0,2.508,1.276,3.784,2.86,3.784,1.408,0,2.464-1.012,2.464-1.76a.906.906,0,0,0-.308-.748,2.783,2.783,0,0,1-1.32.308c-.66,0-1.056-.4-1.056-1.848,0-1.716.176-3.828.176-5.456,0-2.772-1.408-4.576-3.388-4.576-1.892,0-3.7,1.364-5.016,4.532H38.83c.352-3.168-.836-4.532-2.552-4.532-1.452,0-2.684,1.188-2.684,1.848A.992.992,0,0,0,33.946-11.352Zm31.636,9.02a2.783,2.783,0,0,1-1.32.308c-.7,0-1.188-.792-1.188-3.52a73.071,73.071,0,0,1,.66-8.756,19,19,0,0,0,1.276-4.928A2.572,2.572,0,0,0,62.9-21.3c-.748,0-1.144.352-1.408,2.068a56.192,56.192,0,0,0-.4,7.964H61.05c-.924-1.716-2.068-2.64-3.7-2.64-2.992,0-5.9,3.476-5.9,7.964,0,3.652,2.068,6.116,4.8,6.116,2.156,0,3.7-1.628,4.488-4.18h.044c.176,2.992,1.32,4.18,2.64,4.18,1.408,0,2.464-1.012,2.464-1.76A.906.906,0,0,0,65.582-2.332ZM60.874-9.064l-.132,1.628c-.88,3.52-2.376,5.192-3.916,5.192-1.452,0-2.508-1.232-2.508-4.048,0-3.344,1.54-5.192,3.3-5.192A3.874,3.874,0,0,1,60.874-9.064Zm6.6,13.2c2.772-.7,4.8-2.552,4.8-5.324,0-1.5-.88-2.64-1.8-2.64a1.867,1.867,0,0,0-1.8,1.452c0,.924.836,1.716.836,2.64,0,1.144-.7,1.892-1.892,2.728a.7.7,0,0,0-.352.572A1.019,1.019,0,0,0,67.474,4.136ZM88.638-2.42a1.131,1.131,0,0,0-.528.968C88.11-.7,89.254.4,91.85.4A5.325,5.325,0,0,0,97.438-4.8c0-2.288-1.54-3.916-4.136-4.884v-.044a4.641,4.641,0,0,0,2.728-3.96c0-3.124-2.992-5.5-7.612-5.5-4.664,0-7.656,1.54-7.656,2.64a.977.977,0,0,0,.528.792,4.833,4.833,0,0,1,2.024-.616c.7,0,.968.484.968,1.408,0,3.08-1.32,7.128-1.32,10.472,0,2.772.528,4.664,1.452,4.664a3.317,3.317,0,0,0,1.848-.792,14.066,14.066,0,0,1-.4-4.356c0-5.5.836-8.668.836-10.692a8.149,8.149,0,0,0-.044-1.1,5.924,5.924,0,0,1,1.672-.22c2.948,0,5.06,1.364,5.06,3.564a3.478,3.478,0,0,1-1.628,3.036,7.558,7.558,0,0,0-2.288-.352c-.968,0-1.848.528-1.848,1.232a1.363,1.363,0,0,0,1.32,1.364,8.068,8.068,0,0,0,2.42-.572A4.319,4.319,0,0,1,94.578-4.62,2.879,2.879,0,0,1,91.41-1.584,4.712,4.712,0,0,1,88.638-2.42Zm23.32-11.792a1.936,1.936,0,0,0,1.716-1.8c0-1.452-1.672-3.168-4.4-3.168-5.324,0-8.888,5.1-8.888,10.868,0,4.928,2.86,8.492,7.348,8.492,3.388,0,5.9-2.244,5.9-3.916a.759.759,0,0,0-.44-.748,5.656,5.656,0,0,1-4.664,2.244c-2.86,0-5.06-1.76-5.06-6.6,0-4.884,2.6-8.14,5.28-8.14C110.418-16.984,111.254-16.236,111.958-14.212Z" transform="translate(175 422)"/>
  </g>
</svg>
