<svg xmlns="http://www.w3.org/2000/svg" xmlns:xlink="http://www.w3.org/1999/xlink" viewBox="0 0 349 387" class="logo">
  <defs>
    <style>
      .logo .cls-1 {
        clip-path: url(#clip-Web_1920_1);
      }

      .logo .cls-2, .logo .cls-4 {
        fill: #fa6640;
      }

      .logo .cls-3 {
        fill: none;
        stroke: #fa6640;
        stroke-width: 2px;
      }

      .logo .cls-4 {
        stroke: rgba(112,112,112,0);
      }

      .logo .cls-5 {
        fill: #fff;
      }
    </style>
    <clipPath id="clip-Web_1920_1">
      <rect width="349" height="387"/>
    </clipPath>
  </defs>
  <g id="Web_1920_1" data-name="Web 1920 – 1" class="cls-1">
    <path id="Path_8" data-name="Path 8" class="cls-2" d="M-13.2-8.8c-9,9.6-12.6,17.4-12.6,26C-25.8,30.4-17.8,42-5,42c22.4,0,41.4-30.2,53.8-64,2.2-6.2,4.4-12.4,6.8-18.2,8.2-2.8,16.2-4.6,23-4.8,1-2.6-.2-5-4.8-4.8a84.7,84.7,0,0,0-15.6,2.6C69.4-75.4,81-100,95.6-119.6c2.6-3.4,3.6-4.4,3.6-5.8,0-2.4-5.4-7.8-9-7.6-4.6,0-14.6,11.2-24,29.4-8.4,16.4-15,32-24.4,59l-1.2,3.2C14.4-31.4-1.8-20.6-13.2-8.8ZM-7,32.6c-5.8,0-9.4-3.8-9.4-11.4,0-6.2,2.6-14,10.2-22.6C4-13.2,18.4-24.6,37.8-33.6,26.2-1.6,9,32.6-7,32.6Z" transform="translate(55 134)"/>
    <path id="Path_7" data-name="Path 7" class="cls-2" d="M-4.55-14.17C-4.55-5.59.26-1.43,8.32-1.43c12.74,0,27.17-13.13,32.5-20.54.78-1.04.91-1.43.91-1.95,0-.39-.13-.65-.52-.65s-.78,0-1.69,1.17C34.97-18.07,22.1-5.72,10.92-5.72c-4.42,0-6.37-1.82-6.37-5.72a23.523,23.523,0,0,1,1.82-8.32C21.71-23.14,33.54-32.5,33.54-38.87c0-3.64-2.21-6.24-8.45-6.24C13.65-45.11-4.55-28.34-4.55-14.17ZM28.73-40.3c0,3.9-9.36,14.69-21.19,17.94,4.68-9.75,13.65-19.63,19.5-19.76C28.08-42.12,28.73-41.6,28.73-40.3Zm59.02-4.68c-7.28,0-18.59,5.98-18.59,15.73,0,8.19,8.32,12.09,8.32,18.85,0,2.6-1.56,4.81-5.07,4.81a9.633,9.633,0,0,1-7.93-4.42c-.26-.52-.52-.91-.91-.91s-.78.26-.78,1.3c0,3.38,4.29,10.4,11.57,10.4,5.46,0,8.84-3.51,8.84-8.45,0-7.02-7.28-9.75-7.28-17.42,0-8.58,9.1-12.22,15.73-12.22a21.106,21.106,0,0,1,5.33.78c.52,0,.91-.39.91-1.3C97.89-40.17,95.16-44.98,87.75-44.98ZM62.14-50.31c-8.32,0-21.19,7.02-21.19,18.72,0,10.14,10.92,14.69,10.92,22.88,0,2.86-1.56,5.33-5.2,5.33a11.725,11.725,0,0,1-9.62-6.11c-.26-.52-.52-.91-.91-.91s-.78.26-.78,1.3c0,3.9,4.94,12.09,13.26,12.09,5.85,0,9.49-3.77,9.49-8.84,0-8.32-10.01-12.09-10.01-21.06,0-10.01,10.27-15.73,17.94-15.73,3.64,0,4.81.78,5.59.78.52,0,.91-.39.91-1.3C72.54-45.5,69.81-50.31,62.14-50.31Z" transform="translate(131 107)"/>
    <path id="Path_10" data-name="Path 10" class="cls-2" d="M-13.2-8.8c-9,9.6-12.6,17.4-12.6,26C-25.8,30.4-17.8,42-5,42c22.4,0,41.4-30.2,53.8-64,2.2-6.2,4.4-12.4,6.8-18.2,8.2-2.8,16.2-4.6,23-4.8,1-2.6-.2-5-4.8-4.8a84.7,84.7,0,0,0-15.6,2.6C69.4-75.4,81-100,95.6-119.6c2.6-3.4,3.6-4.4,3.6-5.8,0-2.4-5.4-7.8-9-7.6-4.6,0-14.6,11.2-24,29.4-8.4,16.4-15,32-24.4,59l-1.2,3.2C14.4-31.4-1.8-20.6-13.2-8.8ZM-7,32.6c-5.8,0-9.4-3.8-9.4-11.4,0-6.2,2.6-14,10.2-22.6C4-13.2,18.4-24.6,37.8-33.6,26.2-1.6,9,32.6-7,32.6Z" transform="translate(68 289)"/>
    <path id="Path_9" data-name="Path 9" class="cls-2" d="M40.82-41.47c1.17.52,1.82-.39,1.04-1.43-1.3-1.82-3.51-3.12-7.41-3.12-17.16,0-40.3,21.32-40.3,36.66,0,6.11,3.9,8.45,7.28,8.45,6.89,0,15.86-8.45,22.75-16.64a12.979,12.979,0,0,0-1.04,5.33,7.817,7.817,0,0,0,8.19,8.06c9.23,0,19.11-11.57,23.14-17.94a3.431,3.431,0,0,0,.78-1.95.614.614,0,0,0-.65-.65c-.39,0-.65.13-1.56,1.3C49.79-19.11,40.95-7.93,33.41-7.93c-1.95,0-3.51-1.04-3.51-4.29,0-5.59,6.37-11.57,6.37-14.3,0-1.95-2.6-5.07-4.16-5.07-.78,0-1.3,1.43-5.46,6.76C18.07-13.91,9.36-5.98,5.85-5.98c-1.17,0-2.21-.91-2.21-3.51,0-9.88,18.85-32.5,34.58-32.5A7.072,7.072,0,0,1,40.82-41.47Zm77.09,6.63a4.242,4.242,0,0,0-4.29-4.29c-7.67,0-23.66,18.98-27.95,25.35.26-8.19,12.74-23.14,12.74-30.16a6.463,6.463,0,0,0-6.5-6.24c-6.89,0-16.77,11.18-30.94,28.99,1.56-3.64,3.51-8.84,3.51-11.44,0-3.64-4.03-6.37-5.98-6.37-.91,0-1.17.39-1.17,1.43C56.94-27.69,45.76-11.7,45.76-5.72c0,2.99,2.34,5.85,4.42,5.85,3.12,0,5.98-7.8,11.96-16.51,8.32-12.35,22.88-28.86,26.39-28.86.52,0,.91.39.91,1.3,0,4.81-11.05,22.23-11.05,30.94,0,5.46,4.03,7.28,5.46,7.28,1.69,0,2.34-2.47,3.9-4.94,4.55-7.93,18.85-23.01,21.06-23.01.26,0,.52.26.52.78,0,2.34-5.59,8.71-5.59,17.81,0,5.07,4.03,8.58,9.23,8.58,8.06,0,16.9-9.62,20.28-14.95a4.749,4.749,0,0,0,.91-1.82.749.749,0,0,0-.78-.78c-.39,0-.78.13-1.56,1.3-2.47,3.51-9.62,12.09-15.73,12.09-2.6,0-4.42-1.43-4.42-5.2C111.67-24.57,117.91-29.77,117.91-34.84Zm10.14,20.67c0,8.58,4.81,12.74,12.87,12.74,12.74,0,27.17-13.13,32.5-20.54.78-1.04.91-1.43.91-1.95,0-.39-.13-.65-.52-.65s-.78,0-1.69,1.17c-4.55,5.33-17.42,17.68-28.6,17.68-4.42,0-6.37-1.82-6.37-5.72a23.523,23.523,0,0,1,1.82-8.32c15.34-3.38,27.17-12.74,27.17-19.11,0-3.64-2.21-6.24-8.45-6.24C146.25-45.11,128.05-28.34,128.05-14.17ZM161.33-40.3c0,3.9-9.36,14.69-21.19,17.94,4.68-9.75,13.65-19.63,19.5-19.76C160.68-42.12,161.33-41.6,161.33-40.3Zm31.85-5.59c-7.93,0-20.41,6.11-20.41,16.12,0,8.84,9.75,12.87,9.75,20.15,0,2.6-1.43,4.81-4.68,4.81-3.64,0-7.67-2.6-9.49-5.98-.26-.52-.52-.91-.91-.91s-.78.26-.78,1.3c0,3.9,4.94,11.96,13.13,11.96,5.46,0,8.97-3.51,8.97-8.32,0-7.41-8.97-10.4-8.97-18.46,0-9.1,9.88-13,17.29-13,3.77,0,5.07,1.17,5.85,1.17.52,0,.91-.39.91-1.3C203.84-40.82,200.98-45.89,193.18-45.89Z" transform="translate(144 262)"/>
    <path id="Path_11" data-name="Path 11" class="cls-2" d="M20.738-6.637q0,1.8-1.613,1.838a13.361,13.361,0,0,0,.825,2.325,1.782,1.782,0,0,1-.675,1.35,2.287,2.287,0,0,1-1.5.525A3.881,3.881,0,0,1,16.2-1.013a5.146,5.146,0,0,1-.488-2.325q0-.338.037-.975t.038-.937q0,.262-1.238.262-2.1,0-4.988.188-4.125.225-4.481.637T4.613-.15A1.453,1.453,0,0,1,3.375.563,2.611,2.611,0,0,1,1.763-.094,1.829,1.829,0,0,1,.938-1.5a12.906,12.906,0,0,1,.675-2.1q.75-2.663,2.438-7.987Q9.075-25.35,12.412-25.35q3.263,0,5.025,7.275A80.877,80.877,0,0,1,18.9-8.062a5.76,5.76,0,0,1,1.237.375A1.123,1.123,0,0,1,20.738-6.637Zm-5.25-1.425Q13.838-21.15,12.525-21.15q-1.05,0-3.675,6.15Q6.975-10.575,5.888-7.312q1.2-.262,3.562-.637A40.14,40.14,0,0,1,15.488-8.062Zm27.487-16.5a2.392,2.392,0,0,1-.338,1.05q-.412.825-.487,1.013a19.3,19.3,0,0,0-1.088,5.587L40.95-6.15a9.371,9.371,0,0,1-.75,3.375Q39.263-.6,37.875-.6q-2.062,0-4.088-3.45a40.085,40.085,0,0,1-2.962-7.05q-.863-2.925-1.763-5.85-.787,6.375-.788,8.55,0,4.8.581,5.512a2.107,2.107,0,0,1,.581,1.05,1.548,1.548,0,0,1-.75,1.256,2.546,2.546,0,0,1-1.5.544q-1.05,0-1.725-2.213a10.9,10.9,0,0,1-.525-3.15q0-.637.038-1.894t.038-1.894a40.815,40.815,0,0,1,.375-4.575,40.815,40.815,0,0,0,.375-4.575v-4.575a.718.718,0,0,0-.056-.225.718.718,0,0,1-.056-.225q0-.75,1.013-1.238a3.661,3.661,0,0,1,1.65-.413,3.045,3.045,0,0,1,2.737,1.237,6.052,6.052,0,0,1,.413,1.725q.113.9.225,1.838a68.732,68.732,0,0,0,2.362,8.55q2.288,6.938,3.413,6.937.412,0,.412-1.05a8.043,8.043,0,0,0-.094-.975,8.163,8.163,0,0,1-.094-1.05l.375-10.162a18.475,18.475,0,0,1,.787-4.5q.975-3.113,2.625-3.113a2.885,2.885,0,0,1,1.463.675A1.738,1.738,0,0,1,42.975-24.562Zm21.3,9a21.006,21.006,0,0,1-2.7,10.612Q58.35.675,52.912.675a6.872,6.872,0,0,1-3.375-.788A2.335,2.335,0,0,1,48,.6,1.779,1.779,0,0,1,46.95.112a17.026,17.026,0,0,1-.75-5.588q0-3,.169-9t.169-9a1.58,1.58,0,0,0-.038-.262,1.613,1.613,0,0,1-.037-.3,1.355,1.355,0,0,1,.487-1.088,1.741,1.741,0,0,1,1.162-.413,2.392,2.392,0,0,1,1.669.675,1.591,1.591,0,0,1,.544,1.575A6.19,6.19,0,0,1,55.763-26.1a7.557,7.557,0,0,1,6.563,3.225A12.683,12.683,0,0,1,64.275-15.562Zm-3.713-.15q0-7.65-4.5-7.65a5.137,5.137,0,0,0-3.638,1.875,8.884,8.884,0,0,0-2.156,3.581,14.724,14.724,0,0,0-.581,4.256v8.063q0,3.525,2.963,3.525A6.182,6.182,0,0,0,57.488-4.8a13.379,13.379,0,0,0,2.475-5.288A25.528,25.528,0,0,0,60.563-15.713Z" transform="translate(35.7 250.263) rotate(-30)"/>
    <line id="Line_1" data-name="Line 1" class="cls-3" y1="35" x2="54" transform="translate(40.5 224.5)"/>
    <line id="Line_2" data-name="Line 2" class="cls-3" y1="35" x2="54" transform="translate(43.5 227.5)"/>
    <line id="Line_3" data-name="Line 3" class="cls-3" y1="35" x2="54" transform="translate(22.5 186.5)"/>
    <line id="Line_4" data-name="Line 4" class="cls-3" y1="35" x2="54" transform="translate(20.5 182.5)"/>
    <path id="Path_1" data-name="Path 1" class="cls-4" d="M498.5,683.409s-3.309-3.673-6.881-2.248a7.451,7.451,0,0,0-4.363,4.84s3.923,1.941,6.129,1.574S498.5,683.409,498.5,683.409Z" transform="matrix(-0.574, 0.819, -0.819, -0.574, 871.216, 257.821)"/>
    <path id="Path_2" data-name="Path 2" class="cls-4" d="M498.524,683.414s-3.316-3.681-6.9-2.253a7.467,7.467,0,0,0-4.372,4.85s3.932,1.945,6.142,1.577S498.524,683.414,498.524,683.414Z" transform="translate(797.911 557.747) rotate(147)"/>
    <path id="Path_3" data-name="Path 3" class="cls-4" d="M497.993,683.292s-3.16-3.508-6.571-2.147a7.115,7.115,0,0,0-4.166,4.622s3.746,1.853,5.853,1.5S497.993,683.292,497.993,683.292Z" transform="translate(163.776 1056.424) rotate(-155)"/>
    <path id="Path_4" data-name="Path 4" class="cls-4" d="M498.692,683.452s-3.366-3.736-7-2.286a7.578,7.578,0,0,0-4.437,4.922s3.99,1.974,6.233,1.6S498.692,683.452,498.692,683.452Z" transform="translate(-738.766 352.036) rotate(-66)"/>
    <path id="Path_5" data-name="Path 5" class="cls-4" d="M499.584,683.657s-3.628-4.027-7.544-2.465a8.169,8.169,0,0,0-4.784,5.306s4.3,2.128,6.719,1.726S499.584,683.657,499.584,683.657Z" transform="translate(-640.614 -206.129) rotate(-26)"/>
    <path id="Path_6" data-name="Path 6" class="cls-4" d="M497.858,683.261s-3.12-3.464-6.488-2.12a7.026,7.026,0,0,0-4.114,4.564s3.7,1.83,5.779,1.484S497.858,683.261,497.858,683.261Z" transform="matrix(0.97, 0.242, -0.242, 0.97, -208.157, -566.21)"/>
    <path id="Path_12" data-name="Path 12" class="cls-2" d="M.173,273.168l18.234,22.215L.173,317.715H350.625l-20.293-22.332,20.293-22.215" transform="translate(0 69)"/>
    <path id="Path_13" data-name="Path 13" class="cls-5" d="M-143.16-12.792a7.2,7.2,0,0,1-.7-2.232l-1.272.072V-16.8h7.08v1.584a2.234,2.234,0,0,0-1.164.2.849.849,0,0,0-.4.8,2.876,2.876,0,0,0,.144.792l1.44,5.472q.048.192.288,1.116t.5,2.292h.024l1.368-4.92,2.232-7.344h2.16l2.736,8.832q.336,1.1.864,3.456h.024l.912-3.312,1.344-5.016a5.258,5.258,0,0,1,.984-2.184v-.024l-1.248.072-.6.024V-16.8h5.4v1.584a2.264,2.264,0,0,0-1.464.636,4.737,4.737,0,0,0-1.08,1.932L-127.488.144h-2.136l-2.832-8.592a26.246,26.246,0,0,1-.768-2.952,4.872,4.872,0,0,0-.12-.6h-.024a25.227,25.227,0,0,1-.7,3.144l-2.736,9h-2.088ZM-116.016.384a6.055,6.055,0,0,1-3.1-.78,5.333,5.333,0,0,1-2.088-2.22,7.223,7.223,0,0,1-.744-3.36,6.825,6.825,0,0,1,.756-3.156,6.059,6.059,0,0,1,2.124-2.364,5.6,5.6,0,0,1,3.12-.888,5.639,5.639,0,0,1,3.876,1.368q1.548,1.368,1.524,4.56l-7.872.144a6.018,6.018,0,0,0,.8,3.336,2.859,2.859,0,0,0,2.58,1.224,4.4,4.4,0,0,0,1.8-.432A4.78,4.78,0,0,0-111.5-3.552l1.08,1.008A6.457,6.457,0,0,1-116.016.384Zm2.16-8.376q-.072-2.712-1.968-2.712a2.033,2.033,0,0,0-1.644.732,3.967,3.967,0,0,0-.8,1.98Zm9.7,8.376a4.388,4.388,0,0,1-2.532-.744,4.891,4.891,0,0,1-1.7-2.124,7.84,7.84,0,0,1-.612-3.2,7.749,7.749,0,0,1,.744-3.444,5.758,5.758,0,0,1,2.1-2.388,5.659,5.659,0,0,1,3.108-.864,6.406,6.406,0,0,1,2.136.432v-1.584q0-1.152.1-2.112-.792.072-1.7.072V-17.4a11.25,11.25,0,0,0,2.448-.216,2.929,2.929,0,0,0,1.248-.5h1.3V-3.864q0,1.152-.1,2.112.792-.072,1.56-.072V0h-4.56l-.12-1.1h-.024A4.51,4.51,0,0,1-104.16.384Zm1.248-2.184a2.181,2.181,0,0,0,1.128-.312,2.551,2.551,0,0,0,.864-.84v-7.2a2.322,2.322,0,0,0-.744-.324,3.606,3.606,0,0,0-.96-.132,2.321,2.321,0,0,0-2.2,1.32,7.1,7.1,0,0,0-.66,3.24,6.558,6.558,0,0,0,.636,2.988A2.054,2.054,0,0,0-102.912-1.8Zm8.424.24q.912,0,1.164-.5A3.885,3.885,0,0,0-93.072-3.7V-7.728q0-1.08.1-2.04l-1.68.072V-11.52a11.25,11.25,0,0,0,2.448-.216,2.929,2.929,0,0,0,1.248-.5h1.176q0,.048.1,1.2h.048a6.572,6.572,0,0,1,1.716-.948,4.967,4.967,0,0,1,1.74-.4,3.65,3.65,0,0,1,3.12,1.248,6.856,6.856,0,0,1,.936,4.056v3.216q0,1.152-.1,2.112.792-.072,1.56-.072V0h-6.288V-1.56q.912,0,1.176-.5A3.727,3.727,0,0,0-85.512-3.7L-85.536-7.1a4.694,4.694,0,0,0-.444-2.328,1.606,1.606,0,0,0-1.5-.744,3.024,3.024,0,0,0-1.176.252,3.34,3.34,0,0,0-1.008.636v5.424q0,1.152-.1,2.112.768-.072,1.56-.072V0h-6.288ZM-73.536.384a6.055,6.055,0,0,1-3.1-.78,5.333,5.333,0,0,1-2.088-2.22,7.223,7.223,0,0,1-.744-3.36,6.825,6.825,0,0,1,.756-3.156A6.059,6.059,0,0,1-76.584-11.5a5.6,5.6,0,0,1,3.12-.888,5.639,5.639,0,0,1,3.876,1.368q1.548,1.368,1.524,4.56l-7.872.144a6.018,6.018,0,0,0,.8,3.336,2.859,2.859,0,0,0,2.58,1.224,4.4,4.4,0,0,0,1.8-.432,4.78,4.78,0,0,0,1.728-1.368l1.08,1.008A6.457,6.457,0,0,1-73.536.384Zm2.16-8.376q-.072-2.712-1.968-2.712a2.033,2.033,0,0,0-1.644.732,3.967,3.967,0,0,0-.8,1.98ZM-60.792.384A7.746,7.746,0,0,1-62.808.12a4.6,4.6,0,0,1-1.536-.672h-.024l.072.72H-66.12l-.1-4.128h1.56A2.6,2.6,0,0,0-63.492-2.1a4.241,4.241,0,0,0,2.556.756,2.127,2.127,0,0,0,1.164-.312.993.993,0,0,0,.492-.888.939.939,0,0,0-.312-.72,2.706,2.706,0,0,0-.744-.48q-.432-.192-1.728-.7-1.536-.6-2.3-.984a4.193,4.193,0,0,1-1.38-1.14A3.011,3.011,0,0,1-66.36-8.52a3.74,3.74,0,0,1,.492-1.86,3.762,3.762,0,0,1,1.512-1.44,5.121,5.121,0,0,1,2.508-.564,5.936,5.936,0,0,1,1.512.216,4.311,4.311,0,0,1,1.368.6h.024l-.024-.7h1.824v4.248H-58.7a3.118,3.118,0,0,0-1.1-1.968,3.356,3.356,0,0,0-2.184-.72,1.951,1.951,0,0,0-1.128.312,1.083,1.083,0,0,0-.456.96,1.087,1.087,0,0,0,.528,1,9.1,9.1,0,0,0,1.776.732,5.07,5.07,0,0,1,.624.192,9.561,9.561,0,0,1,3.132,1.68,3.194,3.194,0,0,1,1.092,2.52,3.317,3.317,0,0,1-.612,2.028A3.783,3.783,0,0,1-58.644-.036,5.471,5.471,0,0,1-60.792.384Zm10.752,0A4.388,4.388,0,0,1-52.572-.36a4.891,4.891,0,0,1-1.7-2.124,7.84,7.84,0,0,1-.612-3.2,7.749,7.749,0,0,1,.744-3.444,5.758,5.758,0,0,1,2.1-2.388,5.658,5.658,0,0,1,3.108-.864,6.406,6.406,0,0,1,2.136.432v-1.584q0-1.152.1-2.112-.792.072-1.7.072V-17.4a11.25,11.25,0,0,0,2.448-.216,2.929,2.929,0,0,0,1.248-.5h1.3V-3.864q0,1.152-.1,2.112.792-.072,1.56-.072V0h-4.56l-.12-1.1h-.024A4.51,4.51,0,0,1-50.04.384ZM-48.792-1.8a2.181,2.181,0,0,0,1.128-.312,2.551,2.551,0,0,0,.864-.84v-7.2a2.322,2.322,0,0,0-.744-.324,3.606,3.606,0,0,0-.96-.132,2.321,2.321,0,0,0-2.2,1.32,7.1,7.1,0,0,0-.66,3.24,6.558,6.558,0,0,0,.636,2.988A2.054,2.054,0,0,0-48.792-1.8ZM-37.368.384a3.178,3.178,0,0,1-2.388-.9,3.15,3.15,0,0,1-.876-2.292,3.473,3.473,0,0,1,1.968-3.2,10.578,10.578,0,0,1,4.728-1.212V-8.472q0-2.184-1.632-2.184a2.339,2.339,0,0,0-1.728.672,1.355,1.355,0,0,1,.288.912,1.532,1.532,0,0,1-.4,1.032,1.458,1.458,0,0,1-1.164.456A1.418,1.418,0,0,1-39.7-8.052,1.708,1.708,0,0,1-40.1-9.216a2.356,2.356,0,0,1,.672-1.656A4.387,4.387,0,0,1-37.6-11.988a7.893,7.893,0,0,1,2.556-.4q4.44,0,4.44,4.584l-.024,3.936q0,1.152-.1,2.112.792-.072,1.56-.072V0H-33.7q-.048-.312-.1-1.1h-.024A4.8,4.8,0,0,1-37.368.384Zm1.512-2.352a2.534,2.534,0,0,0,1.9-.864V-5.52a5.419,5.419,0,0,0-2.34.72,1.763,1.763,0,0,0-.924,1.56,1.147,1.147,0,0,0,.4.96A1.522,1.522,0,0,0-35.856-1.968ZM-25.536,6.5a2.268,2.268,0,0,1-1.56-.552,1.805,1.805,0,0,1-.624-1.416,1.68,1.68,0,0,1,.444-1.164A1.44,1.44,0,0,1-26.16,2.88a1.149,1.149,0,0,1,.876.372,1.365,1.365,0,0,1,.348.972,1.645,1.645,0,0,1-.024.312V4.56q.456,0,1.02-1.152A16.445,16.445,0,0,0-22.92.624l-3.792-7.608a12.8,12.8,0,0,1-.84-1.884,8.486,8.486,0,0,1-.312-1.356l-1.1.048V-12h5.976v1.536Q-24-10.344-24-9.528a2.31,2.31,0,0,0,.24.936l2.352,5.376h.024l.5-1.608q.264-.912,1.008-3.168a7.24,7.24,0,0,1,1.008-2.256v-.024l-1.368.1V-12h4.272v1.536a2.085,2.085,0,0,0-1.2.864,7.285,7.285,0,0,0-.912,1.872l-3,8.568a25.637,25.637,0,0,1-1.32,3.312,5.332,5.332,0,0,1-1.332,1.764A2.8,2.8,0,0,1-25.536,6.5ZM-6.1.384A4,4,0,0,1-8.532-.348a2.2,2.2,0,0,1-1-1.836A2.138,2.138,0,0,1-9.048-3.6a1.626,1.626,0,0,1,1.32-.576,1.458,1.458,0,0,1,1.164.456,1.728,1.728,0,0,1,.42,1.1,1.842,1.842,0,0,1-.216.888.546.546,0,0,0,.324.3,1.223,1.223,0,0,0,.42.084q1.056,0,1.056-1.9v-9.624a15.423,15.423,0,0,1,.1-2.16l-1.8.072V-16.8H.624v1.584a3.143,3.143,0,0,0-.984.156,1,1,0,0,0-.528.564,3.594,3.594,0,0,0-.192,1.368V-6.1q0,3.384-1.26,4.932A4.558,4.558,0,0,1-6.1.384ZM6.72.384A3.557,3.557,0,0,1,3.66-.864,6.927,6.927,0,0,1,2.736-4.92V-7.68q0-1.008.072-2.088L1.128-9.7V-11.52a11.25,11.25,0,0,0,2.448-.216,2.929,2.929,0,0,0,1.248-.5h1.32V-4.9a5.048,5.048,0,0,0,.408,2.328,1.373,1.373,0,0,0,1.3.744A2.639,2.639,0,0,0,9.084-2.16a3.818,3.818,0,0,0,1.068-.816v-4.7q0-1.128.1-2.088L8.568-9.7V-11.52A11.08,11.08,0,0,0,11-11.736a2.91,2.91,0,0,0,1.236-.5h1.32v8.376q0,1.152-.1,2.112.768-.072,1.56-.072V0h-4.56L10.32-1.248H10.3A9.1,9.1,0,0,1,8.58-.048,3.96,3.96,0,0,1,6.72.384ZM16.2-1.56a1.461,1.461,0,0,0,.948-.252,1.146,1.146,0,0,0,.384-.684,6.633,6.633,0,0,0,.084-1.2V-13.56a20.6,20.6,0,0,1,.1-2.088l-1.68.072V-17.4a11.25,11.25,0,0,0,2.448-.216,2.929,2.929,0,0,0,1.248-.5h1.3V-3.864q0,1.152-.1,2.112.792-.072,1.56-.072V0H16.2ZM26.448,6.5a2.268,2.268,0,0,1-1.56-.552,1.805,1.805,0,0,1-.624-1.416,1.68,1.68,0,0,1,.444-1.164,1.44,1.44,0,0,1,1.116-.492,1.149,1.149,0,0,1,.876.372,1.365,1.365,0,0,1,.348.972,1.645,1.645,0,0,1-.024.312V4.56q.456,0,1.02-1.152A16.445,16.445,0,0,0,29.064.624L25.272-6.984a12.8,12.8,0,0,1-.84-1.884,8.486,8.486,0,0,1-.312-1.356l-1.1.048V-12h5.976v1.536q-1.008.12-1.008.936a2.31,2.31,0,0,0,.24.936l2.352,5.376H30.6l.5-1.608q.264-.912,1.008-3.168a7.24,7.24,0,0,1,1.008-2.256v-.024l-1.368.1V-12h4.272v1.536a2.085,2.085,0,0,0-1.2.864,7.285,7.285,0,0,0-.912,1.872l-3,8.568a25.637,25.637,0,0,1-1.32,3.312A5.332,5.332,0,0,1,28.26,5.916,2.8,2.8,0,0,1,26.448,6.5ZM48.48.384A7.159,7.159,0,0,1,45.6-.132a4.125,4.125,0,0,1-1.752-1.32,2.86,2.86,0,0,1-.576-1.692,1.884,1.884,0,0,1,.468-1.3,1.544,1.544,0,0,1,1.212-.528,1.352,1.352,0,0,1,1.14.48,1.685,1.685,0,0,1,.372,1.056,1.855,1.855,0,0,1-.1.564,1.672,1.672,0,0,1-.288.54,1.691,1.691,0,0,0,.852.7,3.267,3.267,0,0,0,1.308.264A2.885,2.885,0,0,0,50.5-2.244a3.287,3.287,0,0,0,.792-2.292,3.863,3.863,0,0,0-.828-2.5A3.236,3.236,0,0,0,47.736-8.04q-.384,0-1.248.072V-9.7q.264.024.7.024a3.424,3.424,0,0,0,2.472-.852,2.967,2.967,0,0,0,.888-2.244,3.311,3.311,0,0,0-.54-2,1.963,1.963,0,0,0-1.692-.732,2.292,2.292,0,0,0-1.152.3,1.825,1.825,0,0,0-.744.708,1.624,1.624,0,0,1,.288.576,2.212,2.212,0,0,1,.1.6,1.658,1.658,0,0,1-.4,1.032,1.391,1.391,0,0,1-1.164.5,1.448,1.448,0,0,1-1.164-.492,1.837,1.837,0,0,1-.42-1.236,2.936,2.936,0,0,1,.588-1.632A4.555,4.555,0,0,1,45.972-16.6a5.875,5.875,0,0,1,2.724-.588,6.619,6.619,0,0,1,3.876,1.02,3.67,3.67,0,0,1,1.452,3.228,3.362,3.362,0,0,1-.372,1.464,4.075,4.075,0,0,1-1.176,1.4,4.886,4.886,0,0,1-2.052.9v.024a5.929,5.929,0,0,1,3.348,1.62,3.988,3.988,0,0,1,1.14,2.82A4.429,4.429,0,0,1,53.136-.96,7.515,7.515,0,0,1,48.48.384ZM56.856-1.56q.912,0,1.164-.5A3.885,3.885,0,0,0,58.272-3.7V-7.728q0-1.08.1-2.04l-1.68.072V-11.52a11.25,11.25,0,0,0,2.448-.216,2.929,2.929,0,0,0,1.248-.5H61.56q.048.36.072.936t.024,1.128H61.7q1.632-2.208,3.456-2.208a2.223,2.223,0,0,1,1.5.5,1.852,1.852,0,0,1,.588,1.488A1.844,1.844,0,0,1,66.84-9.24a1.451,1.451,0,0,1-1.224.528,1.881,1.881,0,0,1-1.068-.312,1.365,1.365,0,0,1-.54-1.08,1.953,1.953,0,0,0-1.38.78,4.223,4.223,0,0,0-.948,1.548v3.912q0,1.152-.1,2.112.768-.072,1.56-.072V0H56.856ZM72.816.384A4.388,4.388,0,0,1,70.284-.36a4.891,4.891,0,0,1-1.7-2.124,7.84,7.84,0,0,1-.612-3.2,7.749,7.749,0,0,1,.744-3.444,5.758,5.758,0,0,1,2.1-2.388,5.659,5.659,0,0,1,3.108-.864,6.406,6.406,0,0,1,2.136.432v-1.584q0-1.152.1-2.112-.792.072-1.7.072V-17.4a11.25,11.25,0,0,0,2.448-.216,2.929,2.929,0,0,0,1.248-.5h1.3V-3.864q0,1.152-.1,2.112.792-.072,1.56-.072V0h-4.56l-.12-1.1H76.2A4.51,4.51,0,0,1,72.816.384ZM74.064-1.8a2.181,2.181,0,0,0,1.128-.312,2.551,2.551,0,0,0,.864-.84v-7.2a2.322,2.322,0,0,0-.744-.324,3.606,3.606,0,0,0-.96-.132,2.321,2.321,0,0,0-2.2,1.32,7.1,7.1,0,0,0-.66,3.24,6.558,6.558,0,0,0,.636,2.988A2.054,2.054,0,0,0,74.064-1.8Zm9.288,5.616a7.623,7.623,0,0,0,.936-1.74A5.115,5.115,0,0,0,84.72.024a1.6,1.6,0,0,1-.5.072A1.787,1.787,0,0,1,83.04-.3a1.451,1.451,0,0,1-.48-1.188,1.788,1.788,0,0,1,.492-1.284,1.693,1.693,0,0,1,1.284-.516,1.923,1.923,0,0,1,1.6.708A2.818,2.818,0,0,1,86.5-.768a6.71,6.71,0,0,1-.564,2.544,11.124,11.124,0,0,1-1.644,2.712ZM94.752,0a6.932,6.932,0,0,1,.516-2.76,7.739,7.739,0,0,1,1.26-2.052A26.487,26.487,0,0,1,98.5-6.792a12.875,12.875,0,0,0,2.46-2.916,5.336,5.336,0,0,0,.756-2.652,4.4,4.4,0,0,0-.516-2.22,1.842,1.842,0,0,0-1.74-.9,2.436,2.436,0,0,0-1.164.288,2.227,2.227,0,0,0-.828.72,1.517,1.517,0,0,1,.36.588,2.026,2.026,0,0,1,.12.66,1.63,1.63,0,0,1-.408,1.032,1.425,1.425,0,0,1-1.176.5,1.441,1.441,0,0,1-1.152-.5,1.851,1.851,0,0,1-.432-1.248,2.849,2.849,0,0,1,.636-1.644,5.06,5.06,0,0,1,1.824-1.488,5.973,5.973,0,0,1,2.772-.612,7.433,7.433,0,0,1,2.616.456,4.332,4.332,0,0,1,1.992,1.476,4.21,4.21,0,0,1,.768,2.6,4.058,4.058,0,0,1-.432,1.764,9.048,9.048,0,0,1-1.584,2.124A35.373,35.373,0,0,1,100.1-5.808a10.806,10.806,0,0,0-1.9,1.884,4.216,4.216,0,0,0-.792,1.452l4.7.12a2.056,2.056,0,0,0,1.344-.288,1.494,1.494,0,0,0,.456-1.272h1.536L105.264,0ZM114.24.384A5.551,5.551,0,0,1,110.46-.9a7.371,7.371,0,0,1-2.148-3.264,12.867,12.867,0,0,1-.672-4.164,11.8,11.8,0,0,1,.768-4.164,8.143,8.143,0,0,1,2.292-3.372,5.37,5.37,0,0,1,3.636-1.32,5.3,5.3,0,0,1,3.648,1.3,7.588,7.588,0,0,1,2.148,3.288,12.7,12.7,0,0,1,.684,4.152,12.033,12.033,0,0,1-.744,4.152,8.114,8.114,0,0,1-2.232,3.36A5.236,5.236,0,0,1,114.24.384Zm.144-1.7a2.239,2.239,0,0,0,2.172-1.8,15.418,15.418,0,0,0,.612-4.824,20.283,20.283,0,0,0-.6-5.52q-.6-2.04-2.28-2.04a2.407,2.407,0,0,0-2.3,1.836,13.912,13.912,0,0,0-.7,4.836,19.5,19.5,0,0,0,.624,5.388A2.5,2.5,0,0,0,114.384-1.32Zm9.408-.264a3.143,3.143,0,0,0,.984-.156A1,1,0,0,0,125.3-2.3a3.594,3.594,0,0,0,.192-1.368V-13.3l-2.616,1.56-.864-1.44,5.5-4.008h1.44V-3.936q0,1.536-.072,2.16.768-.072,1.8-.072V0h-6.888ZM137.736.384a5.1,5.1,0,0,1-3.312-.9,2.805,2.805,0,0,1-1.08-2.244A1.891,1.891,0,0,1,133.788-4a1.41,1.41,0,0,1,1.14-.54,1.409,1.409,0,0,1,1.176.456,1.656,1.656,0,0,1,.36,1.056,1.853,1.853,0,0,1-.1.528,1.643,1.643,0,0,1-.24.5,1.263,1.263,0,0,0,.564.48,2.1,2.1,0,0,0,.924.192,2.662,2.662,0,0,0,2.52-1.788,9.376,9.376,0,0,0,.7-4.356,3.972,3.972,0,0,1-1.38.936,4.416,4.416,0,0,1-1.836.432,4.517,4.517,0,0,1-3.708-1.536,6.194,6.194,0,0,1-1.26-4.056,5.557,5.557,0,0,1,.732-2.844,5.057,5.057,0,0,1,2.04-1.956,6.315,6.315,0,0,1,3.012-.7A4.934,4.934,0,0,1,142.9-15a10.8,10.8,0,0,1,1.416,5.928,14.631,14.631,0,0,1-1.428,6.564Q141.456.384,137.736.384Zm.744-8.4a2.339,2.339,0,0,0,1.368-.456,3.017,3.017,0,0,0,.984-1.128,13.389,13.389,0,0,0-.564-4.26q-.564-1.644-1.86-1.644a1.736,1.736,0,0,0-1.584.96,4.548,4.548,0,0,0-.552,2.3,8.815,8.815,0,0,0,.456,2.916A1.734,1.734,0,0,0,138.48-8.016Z" transform="translate(175 373)"/>
  </g>
</svg>
