<svg xmlns="http://www.w3.org/2000/svg" xmlns:xlink="http://www.w3.org/1999/xlink" viewBox="0 0 349 332" class="logo">
  <defs>
    <style>
      .logo .cls-1 {
        clip-path: url(#clip-Web_1920_1);
      }

      .logo .cls-2, .logo .cls-3, .logo .cls-4, .logo .cls-6 {
        fill: #fa6640;
      }

      .logo .cls-2 {
        font-size: 200px;
      }

      .logo .cls-2, .logo .cls-3 {
        font-family: Alisha-Regular, Alisha;
      }

      .logo .cls-3 {
        font-size: 130px;
      }

      .logo .cls-4 {
        font-size: 30px;
        font-family: Noteworthy-Bold, Noteworthy;
        font-weight: 700;
      }

      .logo .cls-5 {
        fill: none;
        stroke: #fa6640;
        stroke-width: 2px;
      }

      .logo .cls-6 {
        stroke: rgba(112,112,112,0);
      }
    </style>
    <clipPath id="clip-Web_1920_1">
      <rect width="349" height="332"/>
    </clipPath>
  </defs>
  <g id="Web_1920_1" data-name="Web 1920 – 1" class="cls-1">
    <g id="Jess">
      <text id="J" class="cls-2" transform="translate(55 134)"><tspan x="0" y="0">J</tspan></text>
      <text id="ess" class="cls-3" transform="translate(131 107)"><tspan x="0" y="0">ess</tspan></text>
    </g>
    <g id="James">
      <text id="J-2" data-name="J" class="cls-2" transform="translate(68 289)"><tspan x="0" y="0">J</tspan></text>
      <text id="ames" class="cls-3" transform="translate(144 262)"><tspan x="0" y="0">ames</tspan></text>
    </g>
    <text id="AND" class="cls-4" transform="translate(35.7 250.263) rotate(-30)"><tspan x="0" y="0">AND</tspan></text>
    <line id="Line_1" data-name="Line 1" class="cls-5" y1="35" x2="54" transform="translate(40.5 224.5)"/>
    <line id="Line_2" data-name="Line 2" class="cls-5" y1="35" x2="54" transform="translate(43.5 227.5)"/>
    <line id="Line_3" data-name="Line 3" class="cls-5" y1="35" x2="54" transform="translate(22.5 186.5)"/>
    <line id="Line_4" data-name="Line 4" class="cls-5" y1="35" x2="54" transform="translate(20.5 182.5)"/>
    <path id="Path_1" data-name="Path 1" class="cls-6" d="M498.5,683.409s-3.309-3.673-6.881-2.248a7.451,7.451,0,0,0-4.363,4.84s3.923,1.941,6.129,1.574S498.5,683.409,498.5,683.409Z" transform="matrix(-0.574, 0.819, -0.819, -0.574, 871.216, 257.821)"/>
    <path id="Path_2" data-name="Path 2" class="cls-6" d="M498.524,683.414s-3.316-3.681-6.9-2.253a7.467,7.467,0,0,0-4.372,4.85s3.932,1.945,6.142,1.577S498.524,683.414,498.524,683.414Z" transform="translate(797.911 557.747) rotate(147)"/>
    <path id="Path_3" data-name="Path 3" class="cls-6" d="M497.993,683.292s-3.16-3.508-6.571-2.147a7.115,7.115,0,0,0-4.166,4.622s3.746,1.853,5.853,1.5S497.993,683.292,497.993,683.292Z" transform="translate(163.776 1056.424) rotate(-155)"/>
    <path id="Path_4" data-name="Path 4" class="cls-6" d="M498.692,683.452s-3.366-3.736-7-2.286a7.578,7.578,0,0,0-4.437,4.922s3.99,1.974,6.233,1.6S498.692,683.452,498.692,683.452Z" transform="translate(-738.766 352.036) rotate(-66)"/>
    <path id="Path_5" data-name="Path 5" class="cls-6" d="M499.584,683.657s-3.628-4.027-7.544-2.465a8.169,8.169,0,0,0-4.784,5.306s4.3,2.128,6.719,1.726S499.584,683.657,499.584,683.657Z" transform="translate(-640.614 -206.129) rotate(-26)"/>
    <path id="Path_6" data-name="Path 6" class="cls-6" d="M497.858,683.261s-3.12-3.464-6.488-2.12a7.026,7.026,0,0,0-4.114,4.564s3.7,1.83,5.779,1.484S497.858,683.261,497.858,683.261Z" transform="matrix(0.97, 0.242, -0.242, 0.97, -208.157, -566.21)"/>
  </g>
</svg>
