<svg xmlns="http://www.w3.org/2000/svg" xmlns:xlink="http://www.w3.org/1999/xlink" viewBox="0 0 838 177" class="logoTop">
  <defs>
    <style>
      .logoTop .cls-1 {
        clip-path: url(#clip-Artboard_1);
      }

      .logoTop .cls-2 {
        fill: #fa6640;
      }
    </style>
    <clipPath id="clip-Artboard_1">
      <rect width="838" height="177"/>
    </clipPath>
  </defs>
  <g id="Artboard_1" data-name="Artboard – 1" class="cls-1">
    <path id="Path_1" data-name="Path 1" class="cls-2" d="M-13.2-8.8c-9,9.6-12.6,17.4-12.6,26C-25.8,30.4-17.8,42-5,42c22.4,0,41.4-30.2,53.8-64,2.2-6.2,4.4-12.4,6.8-18.2,8.2-2.8,16.2-4.6,23-4.8,1-2.6-.2-5-4.8-4.8a84.7,84.7,0,0,0-15.6,2.6C69.4-75.4,81-100,95.6-119.6c2.6-3.4,3.6-4.4,3.6-5.8,0-2.4-5.4-7.8-9-7.6-4.6,0-14.6,11.2-24,29.4-8.4,16.4-15,32-24.4,59l-1.2,3.2C14.4-31.4-1.8-20.6-13.2-8.8ZM-7,32.6c-5.8,0-9.4-3.8-9.4-11.4,0-6.2,2.6-14,10.2-22.6C4-13.2,18.4-24.6,37.8-33.6,26.2-1.6,9,32.6-7,32.6ZM76.6-21.8C76.6-8.6,84-2.2,96.4-2.2c19.6,0,41.8-20.2,50-31.6,1.2-1.6,1.4-2.2,1.4-3,0-.6-.2-1-.8-1s-1.2,0-2.6,1.8c-7,8.2-26.8,27.2-44,27.2-6.8,0-9.8-2.8-9.8-8.8a36.189,36.189,0,0,1,2.8-12.8C117-35.6,135.2-50,135.2-59.8c0-5.6-3.4-9.6-13-9.6C104.6-69.4,76.6-43.6,76.6-21.8ZM127.8-62c0,6-14.4,22.6-32.6,27.6,7.2-15,21-30.2,30-30.4C126.8-64.8,127.8-64,127.8-62Zm90.8-7.2C207.4-69.2,190-60,190-45c0,12.6,12.8,18.6,12.8,29,0,4-2.4,7.4-7.8,7.4-4.6,0-10-2.8-12.2-6.8-.4-.8-.8-1.4-1.4-1.4s-1.2.4-1.2,2c0,5.2,6.6,16,17.8,16,8.4,0,13.6-5.4,13.6-13,0-10.8-11.2-15-11.2-26.8,0-13.2,14-18.8,24.2-18.8,5.2,0,7.2,1.2,8.2,1.2.8,0,1.4-.6,1.4-2C234.2-61.8,230-69.2,218.6-69.2Zm-39.4-8.2c-12.8,0-32.6,10.8-32.6,28.8,0,15.6,16.8,22.6,16.8,35.2,0,4.4-2.4,8.2-8,8.2s-12-4-14.8-9.4c-.4-.8-.8-1.4-1.4-1.4s-1.2.4-1.2,2c0,6,7.6,18.6,20.4,18.6,9,0,14.6-5.8,14.6-13.6,0-12.8-15.4-18.6-15.4-32.4,0-15.4,15.8-24.2,27.6-24.2,5.6,0,7.4,1.2,8.6,1.2.8,0,1.4-.6,1.4-2C195.2-70,191-77.4,179.2-77.4ZM319.8-28c3,0,10-1,18.4-1.8l-3.6,7c-7,10.4-21.2,19.2-34.6,19.2-10.8,0-16.2-5-16.2-14,0-15.8,19.4-33.4,40-33.4a107.113,107.113,0,0,1,12.6,1c.8,0,1.2-.2,1.2-1,0-1.4-.6-8.4-5.4-9.2-1.8-.2-7.8.6-14,.6-6.4,0-10.4-3.4-10.4-10.8,0-14.6,18.8-28.4,36.8-28.4,7.2,0,10.8,3.2,10.8,8,0,7.2-5.8,14-9.8,16.8-1.2,1-1.8,1.4-1.8,1.8,0,1.6,2.4,3.4,5.4,3.4,7.8,0,14.6-9.2,14.6-19.2,0-10.4-8.6-18.4-24-18.4-21.2,0-46,16.6-46,33.8,0,8,5.4,13.6,14,15.4-18.8,2.8-40.6,20.2-40.6,36,0,16,12.4,23.8,28,23.8a51.309,51.309,0,0,0,34.4-13.8c-4.6,11.4-7.4,22.8-7.4,30.4,0,6,1.4,10.4,3.2,10.4,1.6,0,1.8-2.2,2.8-7,2.4-10,6.4-21.2,13.2-34.8a173.732,173.732,0,0,1,9.8-18.6c2.4-.2,4.6-.2,7-.2a24.941,24.941,0,0,1,8.8,1.2,4.15,4.15,0,0,0,1.8-3.4c0-3.8-2.8-6.6-11.6-6.6h-2.6a7.057,7.057,0,0,0-6.2-4c-1,0-2.6,1.8-4.6,4.4a230.638,230.638,0,0,0-28.2,2.8C314.4-31.6,316-28,319.8-28Zm81,19.2c-9,9.6-12.6,17.4-12.6,26,0,13.2,8,24.8,20.8,24.8,22.4,0,41.4-30.2,53.8-64,2.2-6.2,4.4-12.4,6.8-18.2,8.2-2.8,16.2-4.6,23-4.8,1-2.6-.2-5-4.8-4.8a84.7,84.7,0,0,0-15.6,2.6c11.2-28.2,22.8-52.8,37.4-72.4,2.6-3.4,3.6-4.4,3.6-5.8,0-2.4-5.4-7.8-9-7.6-4.6,0-14.6,11.2-24,29.4-8.4,16.4-15,32-24.4,59l-1.2,3.2C428.4-31.4,412.2-20.6,400.8-8.8ZM407,32.6c-5.8,0-9.4-3.8-9.4-11.4,0-6.2,2.6-14,10.2-22.6,10.2-11.8,24.6-23.2,44-32.2C440.2-1.6,423,32.6,407,32.6ZM560.4-63.8c1.8.8,2.8-.6,1.6-2.2-2-2.8-5.4-4.8-11.4-4.8-26.4,0-62,32.8-62,56.4,0,9.4,6,13,11.2,13,10.6,0,24.4-13,35-25.6a19.967,19.967,0,0,0-1.6,8.2c0,7.2,5.2,12.4,12.6,12.4,14.2,0,29.4-17.8,35.6-27.6,1-1.6,1.2-2.2,1.2-3a.945.945,0,0,0-1-1c-.6,0-1,.2-2.4,2-5,6.6-18.6,23.8-30.2,23.8-3,0-5.4-1.6-5.4-6.6,0-8.6,9.8-17.8,9.8-22,0-3-4-7.8-6.4-7.8-1.2,0-2,2.2-8.4,10.4-13.2,16.8-26.6,29-32,29-1.8,0-3.4-1.4-3.4-5.4,0-15.2,29-50,53.2-50A10.88,10.88,0,0,1,560.4-63.8ZM679-53.6a6.526,6.526,0,0,0-6.6-6.6c-11.8,0-36.4,29.2-43,39,.4-12.6,19.6-35.6,19.6-46.4,0-5.6-5-9.6-10-9.6-10.6,0-25.8,17.2-47.6,44.6,2.4-5.6,5.4-13.6,5.4-17.6,0-5.6-6.2-9.8-9.2-9.8-1.4,0-1.8.6-1.8,2.2C585.2-42.6,568-18,568-8.8c0,4.6,3.6,9,6.8,9,4.8,0,9.2-12,18.4-25.4,12.8-19,35.2-44.4,40.6-44.4.8,0,1.4.6,1.4,2,0,7.4-17,34.2-17,47.6,0,8.4,6.2,11.2,8.4,11.2,2.6,0,3.6-3.8,6-7.6,7-12.2,29-35.4,32.4-35.4.4,0,.8.4.8,1.2,0,3.6-8.6,13.4-8.6,27.4,0,7.8,6.2,13.2,14.2,13.2,12.4,0,26-14.8,31.2-23,.6-1,1.4-2,1.4-2.8a1.153,1.153,0,0,0-1.2-1.2c-.6,0-1.2.2-2.4,2-3.8,5.4-14.8,18.6-24.2,18.6-4,0-6.8-2.2-6.8-8C669.4-37.8,679-45.8,679-53.6Zm15.6,31.8c0,13.2,7.4,19.6,19.8,19.6,19.6,0,41.8-20.2,50-31.6,1.2-1.6,1.4-2.2,1.4-3,0-.6-.2-1-.8-1s-1.2,0-2.6,1.8c-7,8.2-26.8,27.2-44,27.2-6.8,0-9.8-2.8-9.8-8.8a36.189,36.189,0,0,1,2.8-12.8C735-35.6,753.2-50,753.2-59.8c0-5.6-3.4-9.6-13-9.6C722.6-69.4,694.6-43.6,694.6-21.8ZM745.8-62c0,6-14.4,22.6-32.6,27.6,7.2-15,21-30.2,30-30.4C744.8-64.8,745.8-64,745.8-62Zm49-8.6c-12.2,0-31.4,9.4-31.4,24.8,0,13.6,15,19.8,15,31,0,4-2.2,7.4-7.2,7.4-5.6,0-11.8-4-14.6-9.2-.4-.8-.8-1.4-1.4-1.4s-1.2.4-1.2,2c0,6,7.6,18.4,20.2,18.4C782.6,2.4,788-3,788-10.4c0-11.4-13.8-16-13.8-28.4,0-14,15.2-20,26.6-20,5.8,0,7.8,1.8,9,1.8.8,0,1.4-.6,1.4-2C811.2-62.8,806.8-70.6,794.8-70.6Z" transform="translate(26 134)"/>
  </g>
</svg>
