<svg xmlns="http://www.w3.org/2000/svg" xmlns:xlink="http://www.w3.org/1999/xlink" viewBox="0 0 349 332">
  <defs>
    <style>
      .cls-1 {
        clip-path: url(#clip-Web_1920_1);
      }

      .cls-2, .cls-4 {
        fill: #fa6640;
      }

      .cls-3 {
        fill: none;
        stroke: #fa6640;
        stroke-width: 2px;
      }

      .cls-4 {
        stroke: rgba(112,112,112,0);
      }
    </style>
    <clipPath id="clip-Web_1920_1">
      <rect width="349" height="332"/>
    </clipPath>
  </defs>
  <g id="Web_1920_1" data-name="Web 1920 – 1" class="cls-1">
    <path id="Path_8" data-name="Path 8" class="cls-2" d="M-13.2-8.8c-9,9.6-12.6,17.4-12.6,26C-25.8,30.4-17.8,42-5,42c22.4,0,41.4-30.2,53.8-64,2.2-6.2,4.4-12.4,6.8-18.2,8.2-2.8,16.2-4.6,23-4.8,1-2.6-.2-5-4.8-4.8a84.7,84.7,0,0,0-15.6,2.6C69.4-75.4,81-100,95.6-119.6c2.6-3.4,3.6-4.4,3.6-5.8,0-2.4-5.4-7.8-9-7.6-4.6,0-14.6,11.2-24,29.4-8.4,16.4-15,32-24.4,59l-1.2,3.2C14.4-31.4-1.8-20.6-13.2-8.8ZM-7,32.6c-5.8,0-9.4-3.8-9.4-11.4,0-6.2,2.6-14,10.2-22.6C4-13.2,18.4-24.6,37.8-33.6,26.2-1.6,9,32.6-7,32.6Z" transform="translate(55 134)"/>
    <path id="Path_7" data-name="Path 7" class="cls-2" d="M-4.55-14.17C-4.55-5.59.26-1.43,8.32-1.43c12.74,0,27.17-13.13,32.5-20.54.78-1.04.91-1.43.91-1.95,0-.39-.13-.65-.52-.65s-.78,0-1.69,1.17C34.97-18.07,22.1-5.72,10.92-5.72c-4.42,0-6.37-1.82-6.37-5.72a23.523,23.523,0,0,1,1.82-8.32C21.71-23.14,33.54-32.5,33.54-38.87c0-3.64-2.21-6.24-8.45-6.24C13.65-45.11-4.55-28.34-4.55-14.17ZM28.73-40.3c0,3.9-9.36,14.69-21.19,17.94,4.68-9.75,13.65-19.63,19.5-19.76C28.08-42.12,28.73-41.6,28.73-40.3Zm59.02-4.68c-7.28,0-18.59,5.98-18.59,15.73,0,8.19,8.32,12.09,8.32,18.85,0,2.6-1.56,4.81-5.07,4.81a9.633,9.633,0,0,1-7.93-4.42c-.26-.52-.52-.91-.91-.91s-.78.26-.78,1.3c0,3.38,4.29,10.4,11.57,10.4,5.46,0,8.84-3.51,8.84-8.45,0-7.02-7.28-9.75-7.28-17.42,0-8.58,9.1-12.22,15.73-12.22a21.106,21.106,0,0,1,5.33.78c.52,0,.91-.39.91-1.3C97.89-40.17,95.16-44.98,87.75-44.98ZM62.14-50.31c-8.32,0-21.19,7.02-21.19,18.72,0,10.14,10.92,14.69,10.92,22.88,0,2.86-1.56,5.33-5.2,5.33a11.725,11.725,0,0,1-9.62-6.11c-.26-.52-.52-.91-.91-.91s-.78.26-.78,1.3c0,3.9,4.94,12.09,13.26,12.09,5.85,0,9.49-3.77,9.49-8.84,0-8.32-10.01-12.09-10.01-21.06,0-10.01,10.27-15.73,17.94-15.73,3.64,0,4.81.78,5.59.78.52,0,.91-.39.91-1.3C72.54-45.5,69.81-50.31,62.14-50.31Z" transform="translate(131 107)"/>
    <path id="Path_10" data-name="Path 10" class="cls-2" d="M-13.2-8.8c-9,9.6-12.6,17.4-12.6,26C-25.8,30.4-17.8,42-5,42c22.4,0,41.4-30.2,53.8-64,2.2-6.2,4.4-12.4,6.8-18.2,8.2-2.8,16.2-4.6,23-4.8,1-2.6-.2-5-4.8-4.8a84.7,84.7,0,0,0-15.6,2.6C69.4-75.4,81-100,95.6-119.6c2.6-3.4,3.6-4.4,3.6-5.8,0-2.4-5.4-7.8-9-7.6-4.6,0-14.6,11.2-24,29.4-8.4,16.4-15,32-24.4,59l-1.2,3.2C14.4-31.4-1.8-20.6-13.2-8.8ZM-7,32.6c-5.8,0-9.4-3.8-9.4-11.4,0-6.2,2.6-14,10.2-22.6C4-13.2,18.4-24.6,37.8-33.6,26.2-1.6,9,32.6-7,32.6Z" transform="translate(68 289)"/>
    <path id="Path_9" data-name="Path 9" class="cls-2" d="M40.82-41.47c1.17.52,1.82-.39,1.04-1.43-1.3-1.82-3.51-3.12-7.41-3.12-17.16,0-40.3,21.32-40.3,36.66,0,6.11,3.9,8.45,7.28,8.45,6.89,0,15.86-8.45,22.75-16.64a12.979,12.979,0,0,0-1.04,5.33,7.817,7.817,0,0,0,8.19,8.06c9.23,0,19.11-11.57,23.14-17.94a3.431,3.431,0,0,0,.78-1.95.614.614,0,0,0-.65-.65c-.39,0-.65.13-1.56,1.3C49.79-19.11,40.95-7.93,33.41-7.93c-1.95,0-3.51-1.04-3.51-4.29,0-5.59,6.37-11.57,6.37-14.3,0-1.95-2.6-5.07-4.16-5.07-.78,0-1.3,1.43-5.46,6.76C18.07-13.91,9.36-5.98,5.85-5.98c-1.17,0-2.21-.91-2.21-3.51,0-9.88,18.85-32.5,34.58-32.5A7.072,7.072,0,0,1,40.82-41.47Zm77.09,6.63a4.242,4.242,0,0,0-4.29-4.29c-7.67,0-23.66,18.98-27.95,25.35.26-8.19,12.74-23.14,12.74-30.16a6.463,6.463,0,0,0-6.5-6.24c-6.89,0-16.77,11.18-30.94,28.99,1.56-3.64,3.51-8.84,3.51-11.44,0-3.64-4.03-6.37-5.98-6.37-.91,0-1.17.39-1.17,1.43C56.94-27.69,45.76-11.7,45.76-5.72c0,2.99,2.34,5.85,4.42,5.85,3.12,0,5.98-7.8,11.96-16.51,8.32-12.35,22.88-28.86,26.39-28.86.52,0,.91.39.91,1.3,0,4.81-11.05,22.23-11.05,30.94,0,5.46,4.03,7.28,5.46,7.28,1.69,0,2.34-2.47,3.9-4.94,4.55-7.93,18.85-23.01,21.06-23.01.26,0,.52.26.52.78,0,2.34-5.59,8.71-5.59,17.81,0,5.07,4.03,8.58,9.23,8.58,8.06,0,16.9-9.62,20.28-14.95a4.749,4.749,0,0,0,.91-1.82.749.749,0,0,0-.78-.78c-.39,0-.78.13-1.56,1.3-2.47,3.51-9.62,12.09-15.73,12.09-2.6,0-4.42-1.43-4.42-5.2C111.67-24.57,117.91-29.77,117.91-34.84Zm10.14,20.67c0,8.58,4.81,12.74,12.87,12.74,12.74,0,27.17-13.13,32.5-20.54.78-1.04.91-1.43.91-1.95,0-.39-.13-.65-.52-.65s-.78,0-1.69,1.17c-4.55,5.33-17.42,17.68-28.6,17.68-4.42,0-6.37-1.82-6.37-5.72a23.523,23.523,0,0,1,1.82-8.32c15.34-3.38,27.17-12.74,27.17-19.11,0-3.64-2.21-6.24-8.45-6.24C146.25-45.11,128.05-28.34,128.05-14.17ZM161.33-40.3c0,3.9-9.36,14.69-21.19,17.94,4.68-9.75,13.65-19.63,19.5-19.76C160.68-42.12,161.33-41.6,161.33-40.3Zm31.85-5.59c-7.93,0-20.41,6.11-20.41,16.12,0,8.84,9.75,12.87,9.75,20.15,0,2.6-1.43,4.81-4.68,4.81-3.64,0-7.67-2.6-9.49-5.98-.26-.52-.52-.91-.91-.91s-.78.26-.78,1.3c0,3.9,4.94,11.96,13.13,11.96,5.46,0,8.97-3.51,8.97-8.32,0-7.41-8.97-10.4-8.97-18.46,0-9.1,9.88-13,17.29-13,3.77,0,5.07,1.17,5.85,1.17.52,0,.91-.39.91-1.3C203.84-40.82,200.98-45.89,193.18-45.89Z" transform="translate(144 262)"/>
    <path id="Path_11" data-name="Path 11" class="cls-2" d="M20.738-6.637q0,1.8-1.613,1.838a13.361,13.361,0,0,0,.825,2.325,1.782,1.782,0,0,1-.675,1.35,2.287,2.287,0,0,1-1.5.525A3.881,3.881,0,0,1,16.2-1.013a5.146,5.146,0,0,1-.488-2.325q0-.338.037-.975t.038-.937q0,.262-1.238.262-2.1,0-4.988.188-4.125.225-4.481.637T4.613-.15A1.453,1.453,0,0,1,3.375.563,2.611,2.611,0,0,1,1.763-.094,1.829,1.829,0,0,1,.938-1.5a12.906,12.906,0,0,1,.675-2.1q.75-2.663,2.438-7.987Q9.075-25.35,12.412-25.35q3.263,0,5.025,7.275A80.877,80.877,0,0,1,18.9-8.062a5.76,5.76,0,0,1,1.237.375A1.123,1.123,0,0,1,20.738-6.637Zm-5.25-1.425Q13.838-21.15,12.525-21.15q-1.05,0-3.675,6.15Q6.975-10.575,5.888-7.312q1.2-.262,3.562-.637A40.14,40.14,0,0,1,15.488-8.062Zm27.487-16.5a2.392,2.392,0,0,1-.338,1.05q-.412.825-.487,1.013a19.3,19.3,0,0,0-1.088,5.587L40.95-6.15a9.371,9.371,0,0,1-.75,3.375Q39.263-.6,37.875-.6q-2.062,0-4.088-3.45a40.085,40.085,0,0,1-2.962-7.05q-.863-2.925-1.763-5.85-.787,6.375-.788,8.55,0,4.8.581,5.512a2.107,2.107,0,0,1,.581,1.05,1.548,1.548,0,0,1-.75,1.256,2.546,2.546,0,0,1-1.5.544q-1.05,0-1.725-2.213a10.9,10.9,0,0,1-.525-3.15q0-.637.038-1.894t.038-1.894a40.815,40.815,0,0,1,.375-4.575,40.815,40.815,0,0,0,.375-4.575v-4.575a.718.718,0,0,0-.056-.225.718.718,0,0,1-.056-.225q0-.75,1.013-1.238a3.661,3.661,0,0,1,1.65-.413,3.045,3.045,0,0,1,2.737,1.237,6.052,6.052,0,0,1,.413,1.725q.113.9.225,1.838a68.732,68.732,0,0,0,2.362,8.55q2.288,6.938,3.413,6.937.412,0,.412-1.05a8.043,8.043,0,0,0-.094-.975,8.163,8.163,0,0,1-.094-1.05l.375-10.162a18.475,18.475,0,0,1,.787-4.5q.975-3.113,2.625-3.113a2.885,2.885,0,0,1,1.463.675A1.738,1.738,0,0,1,42.975-24.562Zm21.3,9a21.006,21.006,0,0,1-2.7,10.612Q58.35.675,52.912.675a6.872,6.872,0,0,1-3.375-.788A2.335,2.335,0,0,1,48,.6,1.779,1.779,0,0,1,46.95.112a17.026,17.026,0,0,1-.75-5.588q0-3,.169-9t.169-9a1.58,1.58,0,0,0-.038-.262,1.613,1.613,0,0,1-.037-.3,1.355,1.355,0,0,1,.487-1.088,1.741,1.741,0,0,1,1.162-.413,2.392,2.392,0,0,1,1.669.675,1.591,1.591,0,0,1,.544,1.575A6.19,6.19,0,0,1,55.763-26.1a7.557,7.557,0,0,1,6.563,3.225A12.683,12.683,0,0,1,64.275-15.562Zm-3.713-.15q0-7.65-4.5-7.65a5.137,5.137,0,0,0-3.638,1.875,8.884,8.884,0,0,0-2.156,3.581,14.724,14.724,0,0,0-.581,4.256v8.063q0,3.525,2.963,3.525A6.182,6.182,0,0,0,57.488-4.8a13.379,13.379,0,0,0,2.475-5.288A25.528,25.528,0,0,0,60.563-15.713Z" transform="translate(35.7 250.263) rotate(-30)"/>
    <line id="Line_1" data-name="Line 1" class="cls-3" y1="35" x2="54" transform="translate(40.5 224.5)"/>
    <line id="Line_2" data-name="Line 2" class="cls-3" y1="35" x2="54" transform="translate(43.5 227.5)"/>
    <line id="Line_3" data-name="Line 3" class="cls-3" y1="35" x2="54" transform="translate(22.5 186.5)"/>
    <line id="Line_4" data-name="Line 4" class="cls-3" y1="35" x2="54" transform="translate(20.5 182.5)"/>
    <path id="Path_1" data-name="Path 1" class="cls-4" d="M498.5,683.409s-3.309-3.673-6.881-2.248a7.451,7.451,0,0,0-4.363,4.84s3.923,1.941,6.129,1.574S498.5,683.409,498.5,683.409Z" transform="matrix(-0.574, 0.819, -0.819, -0.574, 871.216, 257.821)"/>
    <path id="Path_2" data-name="Path 2" class="cls-4" d="M498.524,683.414s-3.316-3.681-6.9-2.253a7.467,7.467,0,0,0-4.372,4.85s3.932,1.945,6.142,1.577S498.524,683.414,498.524,683.414Z" transform="translate(797.911 557.747) rotate(147)"/>
    <path id="Path_3" data-name="Path 3" class="cls-4" d="M497.993,683.292s-3.16-3.508-6.571-2.147a7.115,7.115,0,0,0-4.166,4.622s3.746,1.853,5.853,1.5S497.993,683.292,497.993,683.292Z" transform="translate(163.776 1056.424) rotate(-155)"/>
    <path id="Path_4" data-name="Path 4" class="cls-4" d="M498.692,683.452s-3.366-3.736-7-2.286a7.578,7.578,0,0,0-4.437,4.922s3.99,1.974,6.233,1.6S498.692,683.452,498.692,683.452Z" transform="translate(-738.766 352.036) rotate(-66)"/>
    <path id="Path_5" data-name="Path 5" class="cls-4" d="M499.584,683.657s-3.628-4.027-7.544-2.465a8.169,8.169,0,0,0-4.784,5.306s4.3,2.128,6.719,1.726S499.584,683.657,499.584,683.657Z" transform="translate(-640.614 -206.129) rotate(-26)"/>
    <path id="Path_6" data-name="Path 6" class="cls-4" d="M497.858,683.261s-3.12-3.464-6.488-2.12a7.026,7.026,0,0,0-4.114,4.564s3.7,1.83,5.779,1.484S497.858,683.261,497.858,683.261Z" transform="matrix(0.97, 0.242, -0.242, 0.97, -208.157, -566.21)"/>
  </g>
</svg>
