<svg xmlns="http://www.w3.org/2000/svg" xmlns:xlink="http://www.w3.org/1999/xlink" viewBox="0 0 471 518" class="logo">
  <defs>
    <style>

      .logo .cls-2, .logo .cls-3 {
        fill: #fa6640;
      }

      .logo .cls-3 {
        stroke: rgba(112,112,112,0);
      }

      .logo .cls-4 {
        fill: #fff;
        font-size: 54px;
        font-family: AishaLatin-Regular, Aisha Latin;
      }

      .logo .cls-5 {
        fill: none;
        stroke: #fa6640;
        stroke-width: 2px;
      }
    </style>
  </defs>
  <g id="logo" class="cls-1">
    <path id="Path_11" data-name="Path 11" class="cls-2" d="M-4.55-1.79c0,11.519,6.458,17.1,17.279,17.1,17.1,0,36.477-17.628,43.633-27.576,1.047-1.4,1.222-1.92,1.222-2.618,0-.524-.175-.873-.7-.873s-1.047,0-2.269,1.571C48.508-7.026,31.229,9.554,16.219,9.554c-5.934,0-8.552-2.443-8.552-7.679A31.58,31.58,0,0,1,10.111-9.3c20.595-4.538,36.477-17.1,36.477-25.656,0-4.887-2.967-8.378-11.345-8.378C19.884-43.329-4.55-20.814-4.55-1.79ZM40.13-36.871c0,5.236-12.566,19.722-28.449,24.085,6.283-13.09,18.326-26.354,26.18-26.529C39.257-39.315,40.13-38.616,40.13-36.871Zm79.237-6.283c-9.774,0-24.958,8.028-24.958,21.118,0,11,11.17,16.231,11.17,25.307,0,3.491-2.094,6.458-6.807,6.458-4.014,0-8.727-2.443-10.646-5.934-.349-.7-.7-1.222-1.222-1.222s-1.047.349-1.047,1.745c0,4.538,5.76,13.963,15.533,13.963,7.33,0,11.868-4.712,11.868-11.345,0-9.425-9.774-13.09-9.774-23.387,0-11.519,12.217-16.406,21.118-16.406,4.538,0,6.283,1.047,7.156,1.047.7,0,1.222-.524,1.222-1.745C132.981-36.7,129.316-43.154,119.367-43.154ZM84.985-50.31c-11.17,0-28.449,9.425-28.449,25.133C56.536-11.564,71.2-5.455,71.2,5.54c0,3.84-2.094,7.156-6.981,7.156S53.744,9.205,51.3,4.493c-.349-.7-.7-1.222-1.222-1.222s-1.047.349-1.047,1.745c0,5.236,6.632,16.231,17.8,16.231,7.854,0,12.741-5.061,12.741-11.868,0-11.17-13.439-16.231-13.439-28.274,0-13.439,13.788-21.118,24.085-21.118,4.887,0,6.458,1.047,7.5,1.047.7,0,1.222-.524,1.222-1.745C98.947-43.852,95.282-50.31,84.985-50.31Z" transform="translate(174.084 124.95)"/>
    <path id="Path_13" data-name="Path 13" class="cls-2" d="M56.807-38.486c1.571.7,2.443-.524,1.4-1.92-1.745-2.443-4.712-4.189-9.948-4.189-23.038,0-54.1,28.623-54.1,49.218,0,8.2,5.236,11.345,9.774,11.345,9.25,0,21.293-11.345,30.543-22.34a17.425,17.425,0,0,0-1.4,7.156c0,6.283,4.538,10.821,11,10.821,12.392,0,25.656-15.533,31.067-24.085.873-1.4,1.047-1.92,1.047-2.618a.824.824,0,0,0-.873-.873c-.524,0-.873.175-2.094,1.745C68.85-8.467,56.981,6.543,46.859,6.543c-2.618,0-4.712-1.4-4.712-5.76,0-7.5,8.552-15.533,8.552-19.2,0-2.618-3.491-6.807-5.585-6.807-1.047,0-1.745,1.92-7.33,9.076C26.264-1.486,14.57,9.161,9.858,9.161c-1.571,0-2.967-1.222-2.967-4.712,0-13.264,25.307-43.633,46.425-43.633A9.494,9.494,0,0,1,56.807-38.486Zm103.5,8.9a5.7,5.7,0,0,0-5.76-5.76c-10.3,0-31.765,25.482-37.524,34.034.349-11,17.1-31.067,17.1-40.491,0-4.887-4.363-8.378-8.727-8.378-9.25,0-22.515,15.01-41.539,38.921,2.094-4.887,4.712-11.868,4.712-15.359,0-4.887-5.41-8.552-8.028-8.552-1.222,0-1.571.524-1.571,1.92C78.449-19.986,63.439,1.481,63.439,9.51c0,4.014,3.142,7.854,5.934,7.854C73.562,17.364,77.4,6.892,85.43-4.8c11.17-16.58,30.718-38.746,35.43-38.746.7,0,1.222.524,1.222,1.745,0,6.458-14.835,29.845-14.835,41.539,0,7.33,5.41,9.774,7.33,9.774,2.269,0,3.142-3.316,5.236-6.632,6.109-10.646,25.307-30.892,28.274-30.892.349,0,.7.349.7,1.047,0,3.142-7.5,11.694-7.5,23.911,0,6.807,5.41,11.519,12.392,11.519,10.821,0,22.689-12.915,27.227-20.071a6.376,6.376,0,0,0,1.222-2.443,1.006,1.006,0,0,0-1.047-1.047c-.524,0-1.047.175-2.094,1.745-3.316,4.712-12.915,16.231-21.118,16.231-3.491,0-5.934-1.92-5.934-6.981C151.927-15.8,160.3-22.779,160.3-29.585ZM173.918-1.835c0,11.519,6.458,17.1,17.279,17.1,17.1,0,36.477-17.628,43.633-27.576,1.047-1.4,1.222-1.92,1.222-2.618,0-.524-.175-.873-.7-.873s-1.047,0-2.269,1.571C226.975-7.071,209.7,9.51,194.687,9.51c-5.934,0-8.552-2.443-8.552-7.679a31.58,31.58,0,0,1,2.443-11.17c20.595-4.538,36.477-17.1,36.477-25.656,0-4.887-2.967-8.378-11.345-8.378C198.352-43.373,173.918-20.859,173.918-1.835ZM218.6-36.916c0,5.236-12.566,19.722-28.449,24.085,6.283-13.09,18.326-26.354,26.18-26.529C217.725-39.359,218.6-38.661,218.6-36.916Zm42.76-7.5c-10.646,0-27.4,8.2-27.4,21.642,0,11.868,13.09,17.279,13.09,27.052,0,3.491-1.92,6.458-6.283,6.458-4.887,0-10.3-3.491-12.741-8.028-.349-.7-.7-1.222-1.222-1.222s-1.047.349-1.047,1.745c0,5.236,6.632,16.057,17.628,16.057,7.33,0,12.043-4.712,12.043-11.17,0-9.948-12.043-13.963-12.043-24.783,0-12.217,13.264-17.453,23.213-17.453,5.061,0,6.807,1.571,7.854,1.571.7,0,1.222-.524,1.222-1.745C275.669-37.614,271.83-44.42,261.358-44.42Z" transform="translate(191.092 333.09)"/>
    <path id="Path_15" data-name="Path 15" class="cls-3" d="M15.1,3.459S10.653-1.472,5.858.441A10,10,0,0,0,0,6.939S5.267,9.545,8.229,9.052,15.1,3.459,15.1,3.459Z" transform="matrix(-0.574, 0.819, -0.819, -0.574, 45.458, 356.252)"/>
    <path id="Path_18" data-name="Path 18" class="cls-3" d="M15.352,3.518S10.834-1.5,5.957.449A10.173,10.173,0,0,0,0,7.057s5.357,2.65,8.368,2.149S15.352,3.518,15.352,3.518Z" transform="translate(109.038 245.324) rotate(-66)"/>
    <path id="Path_19" data-name="Path 19" class="cls-3" d="M16.55,3.793S11.679-1.614,6.422.483A10.967,10.967,0,0,0,0,7.607s5.775,2.857,9.021,2.317S16.55,3.793,16.55,3.793Z" transform="translate(128.366 256.569) rotate(-26)"/>
    <path id="Path_20" data-name="Path 20" class="cls-3" d="M14.233,3.262S10.044-1.388,5.523.416A9.432,9.432,0,0,0,0,6.543S4.966,9,7.758,8.535,14.233,3.262,14.233,3.262Z" transform="matrix(0.97, 0.242, -0.242, 0.97, 133.913, 283.523)"/>
    <path id="Path_21" data-name="Path 21" class="cls-2" d="M.173,273.168l24.48,29.825L.173,332.974h470.5l-27.244-29.982,27.244-29.825" transform="translate(-0.173 184.74)"/>
    <text id="Are_Getting_Married_" data-name="Are Getting Married!" class="cls-4" transform="translate(73 498)"><tspan x="0" y="0">Are Getting Married!</tspan></text>
    <path id="Path_10" data-name="Path 10" class="cls-2" d="M-8.884,33.747C-20.967,46.635-25.8,57.107-25.8,68.653c0,17.722,10.74,33.3,27.925,33.3,30.073,0,55.582-40.545,72.229-85.923C77.308,7.7,80.261-.623,83.484-8.409c11.009-3.759,21.749-6.176,30.879-6.444,1.343-3.491-.269-6.713-6.444-6.444a113.719,113.719,0,0,0-20.944,3.491c15.037-37.86,30.61-70.887,50.211-97.2,3.491-4.565,4.833-5.907,4.833-7.787,0-3.222-7.25-10.472-12.083-10.2-6.176,0-19.6,15.037-32.221,39.471C86.437-71.509,77.576-50.566,64.956-14.317l-1.611,4.3C28.171,3.4,6.421,17.9-8.884,33.747ZM-.56,89.328c-7.787,0-12.62-5.1-12.62-15.305,0-8.324,3.491-18.8,13.694-30.342C14.208,27.839,33.541,12.534,59.586.451,44.013,43.413,20.921,89.328-.56,89.328Z" transform="translate(64.771 132.871)"/>
    <path id="Path_12" data-name="Path 12" class="cls-2" d="M-8.884,33.747C-20.967,46.635-25.8,57.107-25.8,68.653c0,17.722,10.74,33.3,27.925,33.3,30.073,0,55.582-40.545,72.229-85.923C77.308,7.7,80.261-.623,83.484-8.409c11.009-3.759,21.749-6.176,30.879-6.444,1.343-3.491-.269-6.713-6.444-6.444a113.719,113.719,0,0,0-20.944,3.491c15.037-37.86,30.61-70.887,50.211-97.2,3.491-4.565,4.833-5.907,4.833-7.787,0-3.222-7.25-10.472-12.083-10.2-6.176,0-19.6,15.037-32.221,39.471C86.437-71.509,77.576-50.566,64.956-14.317l-1.611,4.3C28.171,3.4,6.421,17.9-8.884,33.747ZM-.56,89.328c-7.787,0-12.62-5.1-12.62-15.305,0-8.324,3.491-18.8,13.694-30.342C14.208,27.839,33.541,12.534,59.586.451,44.013,43.413,20.921,89.328-.56,89.328Z" transform="translate(82.224 340.967)"/>
    <path id="Path_14" data-name="Path 14" class="cls-2" d="M26.583,26.129q0,2.417-2.165,2.467a17.938,17.938,0,0,0,1.108,3.121,2.392,2.392,0,0,1-.906,1.812,3.07,3.07,0,0,1-2.014.7,5.21,5.21,0,0,1-2.115-.554,6.909,6.909,0,0,1-.654-3.121q0-.453.05-1.309t.05-1.259q0,.352-1.661.352-2.819,0-6.7.252-5.538.3-6.016.856t-.629,5.387a1.951,1.951,0,0,1-1.661.957,3.505,3.505,0,0,1-2.165-.881A2.456,2.456,0,0,1,0,33.027a17.327,17.327,0,0,1,.906-2.819q1.007-3.575,3.272-10.724Q10.925,1.007,15.406,1.007q4.38,0,6.746,9.767a108.582,108.582,0,0,1,1.963,13.442,7.733,7.733,0,0,1,1.661.5A1.507,1.507,0,0,1,26.583,26.129Zm-7.048-1.913Q17.319,6.646,15.557,6.646q-1.41,0-4.934,8.257Q8.106,20.843,6.646,25.223q1.611-.352,4.783-.856A53.89,53.89,0,0,1,19.534,24.216Zm36.9-22.152a3.211,3.211,0,0,1-.453,1.41q-.554,1.108-.654,1.359a25.908,25.908,0,0,0-1.46,7.5l-.151,14.449a12.581,12.581,0,0,1-1.007,4.531q-1.259,2.92-3.121,2.92-2.769,0-5.488-4.632a53.817,53.817,0,0,1-3.977-9.465q-1.158-3.927-2.366-7.854Q36.7,20.843,36.7,23.763q0,6.444.78,7.4a2.829,2.829,0,0,1,.78,1.41,2.078,2.078,0,0,1-1.007,1.687,3.418,3.418,0,0,1-2.014.73q-1.41,0-2.316-2.97a14.638,14.638,0,0,1-.7-4.229q0-.856.05-2.542t.05-2.542a54.8,54.8,0,0,1,.5-6.142,54.8,54.8,0,0,0,.5-6.142V4.279a.965.965,0,0,0-.076-.3.965.965,0,0,1-.076-.3q0-1.007,1.359-1.661a4.915,4.915,0,0,1,2.215-.554,4.088,4.088,0,0,1,3.675,1.661,8.125,8.125,0,0,1,.554,2.316q.151,1.208.3,2.467a92.276,92.276,0,0,0,3.172,11.479Q47.526,28.7,49.037,28.7q.554,0,.554-1.41a10.8,10.8,0,0,0-.126-1.309,10.959,10.959,0,0,1-.126-1.41l.5-13.644A24.8,24.8,0,0,1,50.9,4.884Q52.208.7,54.424.7a3.873,3.873,0,0,1,1.963.906A2.334,2.334,0,0,1,56.437,2.064Zm28.6,12.083a28.2,28.2,0,0,1-3.625,14.248q-4.33,7.552-11.63,7.552a9.226,9.226,0,0,1-4.531-1.057,3.135,3.135,0,0,1-2.064.957,2.388,2.388,0,0,1-1.41-.654,22.858,22.858,0,0,1-1.007-7.5q0-4.028.227-12.083T61.22,3.524a2.121,2.121,0,0,0-.05-.352,2.166,2.166,0,0,1-.05-.4,1.819,1.819,0,0,1,.654-1.46A2.338,2.338,0,0,1,63.335.755a3.211,3.211,0,0,1,2.24.906,2.136,2.136,0,0,1,.73,2.115A8.31,8.31,0,0,1,73.605,0a10.145,10.145,0,0,1,8.81,4.33A17.027,17.027,0,0,1,85.034,14.147Zm-4.984-.2q0-10.271-6.041-10.271a6.9,6.9,0,0,0-4.884,2.517A11.928,11.928,0,0,0,66.23,11a19.768,19.768,0,0,0-.78,5.714V27.539q0,4.732,3.977,4.732,3.575,0,6.495-3.675a17.963,17.963,0,0,0,3.323-7.1A34.273,34.273,0,0,0,80.05,13.946Z" transform="translate(31.267 303.545) rotate(-30)"/>
    <line id="Line_3" data-name="Line 3" class="cls-5" y1="46.989" x2="72.498" transform="translate(54.142 299.933)"/>
    <line id="Line_4" data-name="Line 4" class="cls-5" y1="46.989" x2="72.498" transform="translate(58.169 303.961)"/>
    <line id="Line_5" data-name="Line 5" class="cls-5" y1="46.989" x2="72.498" transform="translate(29.976 248.916)"/>
    <line id="Line_6" data-name="Line 6" class="cls-5" y1="46.989" x2="72.498" transform="translate(27.291 243.546)"/>
    <path id="Path_16" data-name="Path 16" class="cls-3" d="M15.127,3.467S10.675-1.475,5.87.442A10.024,10.024,0,0,0,0,6.953S5.278,9.565,8.246,9.071,15.127,3.467,15.127,3.467Z" transform="translate(24.547 337.031) rotate(147)"/>
    <path id="Path_17" data-name="Path 17" class="cls-3" d="M14.415,3.3S10.172-1.406,5.594.421A9.552,9.552,0,0,0,0,6.626S5.03,9.114,7.857,8.644,14.415,3.3,14.415,3.3Z" transform="translate(13.064 311.959) rotate(-155)"/>
  </g>
</svg>
