<svg xmlns="http://www.w3.org/2000/svg" viewBox="0 0 2072.458 746.797"><defs><style>.a{fill:#8fbd49;}</style></defs><path className="a" d="M-92.341-29.612C232.248-35.9,523.229,95.53,610.587,94.152S774.367,51.3,859.853,32.77s192.951,17.08,211.4,25.343,60.861,70.2,0,71.656-144.189,30.346-141.137,51.055,6.547,10.607,67.3,24.634,95.027,51.4,116.905,71.47-1.963,54.366-43.071,50.091-63.877,12.979-64.063,33.787,22.161,24.438,45.3,26.839,71.737,12.445,75.77,35.338,7.277,21.081-57.009,43.2-67.382,44.563-64.063,61.048,39.773,40.209,107.134,50.794,136.88,7.017,170.643,36.724,89.735,50.014,0,74.393-425.115,27.824-425.115,27.824H-739V13.885" transform="translate(739 29.831)"/></svg>