<svg xmlns="http://www.w3.org/2000/svg" xmlns:xlink="http://www.w3.org/1999/xlink" viewBox="0 0 97 137" class="marker">
  <defs>
    <style>

      .marker .cls-2 {
        fill: #32325d;
      }
    </style>
  </defs>
  <g id="marker" class="cls-1">
    <path id="Subtraction_1" data-name="Subtraction 1" class="cls-2" d="M-356.449-157.037h-.051c-2-.06-5.949-3.668-11.111-10.161a221.269,221.269,0,0,1-16.279-24.119,228.852,228.852,0,0,1-14.709-29.1,111.282,111.282,0,0,1-4.66-13.606A46.44,46.44,0,0,1-405-245.5a48.2,48.2,0,0,1,3.811-18.878,48.338,48.338,0,0,1,10.394-15.416,48.338,48.338,0,0,1,15.416-10.394A48.2,48.2,0,0,1-356.5-294a48.2,48.2,0,0,1,18.878,3.811,48.338,48.338,0,0,1,15.416,10.394,48.338,48.338,0,0,1,10.394,15.416A48.2,48.2,0,0,1-308-245.5a46.624,46.624,0,0,1-1.734,11.476,112.006,112.006,0,0,1-4.643,13.624,229.2,229.2,0,0,1-14.666,29.156A217.487,217.487,0,0,1-345.3-167.1C-350.466-160.611-354.425-157.037-356.449-157.037Zm-.051-119.525a29.784,29.784,0,0,0-11.666,2.355,29.872,29.872,0,0,0-9.527,6.423,29.872,29.872,0,0,0-6.423,9.527,29.784,29.784,0,0,0-2.355,11.666,29.785,29.785,0,0,0,2.355,11.667,29.871,29.871,0,0,0,6.423,9.527,29.872,29.872,0,0,0,9.527,6.423,29.784,29.784,0,0,0,11.666,2.355,29.784,29.784,0,0,0,11.666-2.355,29.872,29.872,0,0,0,9.527-6.423,29.871,29.871,0,0,0,6.423-9.527,29.785,29.785,0,0,0,2.355-11.667,29.784,29.784,0,0,0-2.355-11.666,29.872,29.872,0,0,0-6.423-9.527,29.872,29.872,0,0,0-9.527-6.423A29.784,29.784,0,0,0-356.5-276.562Z" transform="translate(405 294)"/>
  </g>
</svg>
