<svg xmlns="http://www.w3.org/2000/svg" xmlns:xlink="http://www.w3.org/1999/xlink" viewBox="0 0 595 593" class="party">
    <defs>
        <style>
            .party .a{clip-path:url(#b);}
            .party .b,.party .c,.party .d{stroke:#a390d6;}
            .party .c,.party .d,.party .e,.party .f,.party .h,.party .i,.party .k{fill:none;}
            .party .c{stroke-width:10px;}
            .party .d{stroke-width:30px;}
            .party .e{stroke:#bdd8e6;stroke-width:16px;}
            .party .g{fill:#fff09d;}
            .party .h{stroke:#ea5dae;stroke-width:20px;}
            .party .i{stroke:#fc9374;stroke-width:15px;}
            .party .j,.party .l{stroke:none;}.l{fill:#bdd8e6;}
        </style>
    </defs>
    <g id="a" class="a">
        <g transform="matrix(0.883, -0.469, 0.469, 0.883, -262.621, 457.232)">
            <g class="b" transform="translate(395 333.154)">
                <circle class="j" cx="17.125" cy="17.125" r="17.125"/>
                <circle class="k" cx="17.125" cy="17.125" r="16.625"/>
            </g>
            <g class="b" transform="translate(518.988 333.154)">
                <circle class="j" cx="17.125" cy="17.125" r="17.125"/>
                <circle class="k" cx="17.125" cy="17.125" r="16.625"/>
            </g>
            <line class="c" y1="97.957" transform="translate(426.168 252.665)"/>
            <line class="c" y1="97.957" transform="translate(550.156 251.98)"/>
            <line class="d" x1="130.838" y2="1.37" transform="translate(422.743 246.5)"/>
        </g>
        <line class="e" x2="155" transform="translate(25.957 509.428) rotate(21)"/>
        <path class="e" d="M0,152V0" transform="translate(151.098 401.078) rotate(21)"/>
        <g class="f" transform="translate(152.486 108.652) rotate(21)">
            <path class="j" d="M170.988,34.821C192.982,61.073,207,100.259,207,144c0,79.529-46.339,144-103.5,144S0,223.529,0,144C0,100.5,10.044,70.932,35.919,34.932,36.992,35.629,172.928,31.467,170.988,34.821Z"/>
            <path class="l" d="M 143.7935485839844 49.49728393554688 C 122.3746490478516 49.4974365234375 91.71250152587891 50.08804321289062 69.32400512695312 50.519287109375 C 59.06671142578125 50.71688842773438 50.24241638183594 50.88583374023438 44.23847961425781 50.96466064453125 C 23.49676513671875 81.6348876953125 16 106.8414001464844 16 144 C 16 214.5794372558594 55.25234985351562 272 103.5 272 C 151.7476501464844 272 191 214.5794372558594 191 144 C 191 107.9911651611328 180.6383972167969 74.02560424804688 162.4114074707031 49.74636840820312 C 159.0096893310547 49.61676025390625 153.2964019775391 49.49722290039062 143.7935943603516 49.49728393554688 L 143.7935485839844 49.49728393554688 M 143.7934722900391 33.49728393554688 C 160.1768951416016 33.49716186523438 171.5594482421875 33.83282470703125 170.9881591796875 34.820556640625 C 192.9824981689453 61.07278442382812 207 100.2588958740234 207 144 C 207 223.5289916992188 160.6614532470703 288 103.5 288 C 46.33854675292969 288 0 223.5289916992188 0 144 C 0 100.4978942871094 10.04414367675781 70.93168640136719 35.91914367675781 34.931640625 C 36.00485229492188 34.98739624023438 36.95263671875 35.01211547851562 38.6209716796875 35.01211547851562 C 51.683349609375 35.01211547851562 108.9999008178711 33.49752807617188 143.7934722900391 33.49728393554688 Z"/>
        </g>
        <path class="g" d="M143.3,103.477c0,42.237-32.079,84.477-71.65,84.477S0,145.714,0,103.477C0,80.373,143.3,80.246,143.3,103.477Z" transform="translate(157.029 186.25) rotate(21)"/>
        <line class="e" x2="155" transform="translate(588.776 509.428) rotate(159)"/>
        <path class="e" d="M0,0V152" transform="translate(518.108 542.984) rotate(159)"/>
        <g class="f" transform="translate(565.457 377.523) rotate(159)">
            <path class="j" d="M170.988,253.179C192.982,226.927,207,187.741,207,144,207,64.471,160.661,0,103.5,0S0,64.471,0,144c0,43.5,10.044,73.068,35.919,109.068C36.992,252.371,172.928,256.533,170.988,253.179Z"/>
            <path class="l" d="M 143.7935485839844 238.5027160644531 C 153.2967987060547 238.5027160644531 159.009765625 238.3832244873047 162.4114227294922 238.2536163330078 C 180.6384124755859 213.9743804931641 191 180.0088043212891 191 144.0000152587891 C 191 73.42057037353516 151.7476348876953 16.00002288818359 103.4999923706055 16.00002288818359 C 55.25234222412109 16.00002288818359 15.99999237060547 73.42057037353516 15.99999237060547 144.0000152587891 C 15.99999237060547 181.1585693359375 23.49684143066406 206.3651580810547 44.23859024047852 237.0353698730469 C 50.24157333374023 237.1142120361328 59.06405639648438 237.2831420898438 69.31889343261719 237.4806671142578 C 91.70893859863281 237.9120178222656 122.3731918334961 238.5027160644531 143.7935485839844 238.5027160644531 M 143.7935485839844 254.5027465820312 C 108.9999923706055 254.5027465820312 51.68301010131836 252.9878540039062 38.62065505981445 252.9878540039062 C 36.95233154296875 252.9878540039062 36.0048828125 253.0125885009766 35.91919326782227 253.0683288574219 C 10.04419231414795 217.0683288574219 -7.62939453125e-06 187.5021209716797 -7.62939453125e-06 144.0000152587891 C -7.62939453125e-06 64.47102355957031 46.33854293823242 2.268066418764647e-05 103.4999923706055 2.268066418764647e-05 C 160.6614379882812 2.268066418764647e-05 207 64.47102355957031 207 144.0000152587891 C 207 187.7411193847656 192.9824981689453 226.9271697998047 170.9881439208984 253.1794738769531 C 171.5594329833984 254.1671905517578 160.1769866943359 254.5027465820312 143.7935485839844 254.5027465820312 Z"/>
        </g>
        <path class="g" d="M143.3,84.477C143.3,42.24,111.221,0,71.65,0S0,42.24,0,84.477C0,107.581,143.3,107.708,143.3,84.477Z" transform="translate(525.061 361.72) rotate(159)"/>
        <line class="h" y1="106" transform="translate(307.867)"/>
        <line class="i" y1="65" x2="41" transform="translate(357.867 60)"/>
        <line class="i" x1="41" y1="65" transform="translate(217.867 60)"/>
    </g>
</svg>