<svg xmlns="http://www.w3.org/2000/svg" xmlns:xlink="http://www.w3.org/1999/xlink" class="passport" viewBox="0 0 185 251">
  <defs>
    <style>

      .passport .cls-2, .passport .cls-4 {
        fill: none;
      }

      .passport .cls-2 {
        stroke: #fff;
        stroke-width: 4px;
      }

      .passport .cls-3 {
        stroke: none;
      }
    </style>

  </defs>
  <g id="passport-icon" class="cls-1">
    <path id="Subtraction_10" data-name="Subtraction 10" d="M-946-888h-156a12.916,12.916,0,0,1-9.193-3.808A12.914,12.914,0,0,1-1115-901v-222a12.915,12.915,0,0,1,3.808-9.192A12.916,12.916,0,0,1-1102-1136h156a12.915,12.915,0,0,1,9.192,3.807A12.915,12.915,0,0,1-933-1123v222a12.914,12.914,0,0,1-3.808,9.192A12.915,12.915,0,0,1-946-888Zm-48.008-61.467a10.133,10.133,0,0,0-4.13.812,8.859,8.859,0,0,0-3.094,2.24,10.034,10.034,0,0,0-1.932,3.345,12.568,12.568,0,0,0-.672,4.158,12.147,12.147,0,0,0,.672,4.074,9.78,9.78,0,0,0,1.932,3.29,8.881,8.881,0,0,0,3.094,2.2,10.3,10.3,0,0,0,4.13.8,10.271,10.271,0,0,0,4.144-.8,8.918,8.918,0,0,0,3.08-2.2,9.77,9.77,0,0,0,1.932-3.29,12.125,12.125,0,0,0,.672-4.074,12.546,12.546,0,0,0-.672-4.158,10.024,10.024,0,0,0-1.932-3.345,8.9,8.9,0,0,0-3.08-2.24A10.109,10.109,0,0,0-994.008-949.468Zm-47.068,13.831a6.621,6.621,0,0,0,.672,3.192,6.31,6.31,0,0,0,1.89,2.212,8.078,8.078,0,0,0,2.743,1.273,12.688,12.688,0,0,0,3.207.407,12.392,12.392,0,0,0,3.6-.476,7.662,7.662,0,0,0,2.6-1.33,5.567,5.567,0,0,0,1.582-2.03,6.138,6.138,0,0,0,.532-2.548,4.92,4.92,0,0,0-.715-2.758,5.99,5.99,0,0,0-1.694-1.723,7.5,7.5,0,0,0-1.974-.938c-.659-.195-1.182-.331-1.554-.406-1.193-.3-2.215-.566-3.037-.784a11.358,11.358,0,0,1-1.821-.616,2.018,2.018,0,0,1-.882-.672,1.807,1.807,0,0,1-.223-.952,1.884,1.884,0,0,1,.28-1.064,2.442,2.442,0,0,1,.714-.7,2.861,2.861,0,0,1,.966-.392,5.171,5.171,0,0,1,1.064-.112,7.518,7.518,0,0,1,1.5.14,3.611,3.611,0,0,1,1.218.476,2.476,2.476,0,0,1,.854.923,3.542,3.542,0,0,1,.378,1.484h4.256a6.172,6.172,0,0,0-.658-2.954,5.77,5.77,0,0,0-1.779-2,7.56,7.56,0,0,0-2.561-1.134,12.806,12.806,0,0,0-3.01-.349,10.271,10.271,0,0,0-2.687.364,7.543,7.543,0,0,0-2.408,1.12,5.983,5.983,0,0,0-1.722,1.89,5.255,5.255,0,0,0-.658,2.675,4.9,4.9,0,0,0,.517,2.337,4.969,4.969,0,0,0,1.358,1.61,7.532,7.532,0,0,0,1.9,1.05,19.113,19.113,0,0,0,2.183.686c.736.207,1.461.4,2.156.56a13.64,13.64,0,0,1,1.9.589,4.118,4.118,0,0,1,1.358.84,1.76,1.76,0,0,1,.518,1.316,1.939,1.939,0,0,1-.392,1.247,2.749,2.749,0,0,1-.98.77,4.36,4.36,0,0,1-1.26.378,8.728,8.728,0,0,1-1.26.1,6.728,6.728,0,0,1-1.679-.21,4.2,4.2,0,0,1-1.414-.644,3.192,3.192,0,0,1-.967-1.134,3.687,3.687,0,0,1-.364-1.708h-4.256Zm-18.172,0a6.635,6.635,0,0,0,.671,3.192,6.329,6.329,0,0,0,1.89,2.212,8.09,8.09,0,0,0,2.744,1.273,12.681,12.681,0,0,0,3.207.407,12.38,12.38,0,0,0,3.6-.476,7.665,7.665,0,0,0,2.6-1.33,5.572,5.572,0,0,0,1.581-2.03,6.123,6.123,0,0,0,.533-2.548,4.919,4.919,0,0,0-.715-2.758,5.988,5.988,0,0,0-1.694-1.723,7.5,7.5,0,0,0-1.974-.938c-.658-.195-1.181-.331-1.554-.406-1.181-.3-2.2-.563-3.038-.784a11.376,11.376,0,0,1-1.82-.616,2.018,2.018,0,0,1-.882-.672,1.806,1.806,0,0,1-.224-.952,1.89,1.89,0,0,1,.28-1.064,2.456,2.456,0,0,1,.715-.7,2.861,2.861,0,0,1,.966-.392,5.171,5.171,0,0,1,1.064-.112,7.518,7.518,0,0,1,1.5.14,3.611,3.611,0,0,1,1.218.476,2.474,2.474,0,0,1,.854.923,3.557,3.557,0,0,1,.378,1.484h4.256a6.171,6.171,0,0,0-.658-2.954,5.77,5.77,0,0,0-1.778-2,7.561,7.561,0,0,0-2.561-1.134,12.806,12.806,0,0,0-3.01-.349,10.271,10.271,0,0,0-2.687.364,7.543,7.543,0,0,0-2.408,1.12,5.986,5.986,0,0,0-1.722,1.89,5.255,5.255,0,0,0-.659,2.675,4.9,4.9,0,0,0,.518,2.337,4.971,4.971,0,0,0,1.358,1.61,7.544,7.544,0,0,0,1.9,1.05,19.175,19.175,0,0,0,2.184.686c.736.208,1.462.4,2.156.56a13.635,13.635,0,0,1,1.9.589,4.13,4.13,0,0,1,1.358.84,1.76,1.76,0,0,1,.518,1.316,1.939,1.939,0,0,1-.392,1.247,2.751,2.751,0,0,1-.98.77,4.36,4.36,0,0,1-1.26.378,8.749,8.749,0,0,1-1.26.1,6.73,6.73,0,0,1-1.679-.21,4.2,4.2,0,0,1-1.415-.644,3.2,3.2,0,0,1-.966-1.134,3.689,3.689,0,0,1-.364-1.708h-4.256Zm96.208-13.356v3.7h5.991V-929h4.4v-16.3h5.992v-3.7h-16.38Zm-13.748,12.181h4.4a3.284,3.284,0,0,1,2.38.728,3.989,3.989,0,0,1,.952,2.3c.11.795.2,1.643.252,2.52A7.8,7.8,0,0,0-968.36-929h4.4a2.958,2.958,0,0,1-.462-1.022,8.79,8.79,0,0,1-.224-1.274c-.046-.441-.079-.884-.1-1.317-.017-.392-.036-.769-.056-1.12a12.151,12.151,0,0,0-.211-1.512,5.107,5.107,0,0,0-.49-1.386,3.817,3.817,0,0,0-.868-1.092,3.4,3.4,0,0,0-1.344-.687v-.056a4.683,4.683,0,0,0,2.422-1.96,6.034,6.034,0,0,0,.743-3.052,5.635,5.635,0,0,0-.407-2.142,5.181,5.181,0,0,0-1.175-1.75,5.6,5.6,0,0,0-1.849-1.19,6.453,6.453,0,0,0-2.422-.435h-10.779V-929h4.4v-7.811Zm-44.856-12.181V-929h4.4v-7.169h4.621a8.365,8.365,0,0,0,3.191-.545,5.994,5.994,0,0,0,2.142-1.443,5.536,5.536,0,0,0,1.2-2.057,7.637,7.637,0,0,0,.378-2.366,7.6,7.6,0,0,0-.378-2.381,5.567,5.567,0,0,0-1.2-2.044,6,6,0,0,0-2.142-1.442,8.365,8.365,0,0,0-3.191-.546h-9.016Zm-51.632,15.54h7.476l1.512,4.452h4.564l-7.476-19.993h-4.508l-7.56,19.993h4.424l1.568-4.452Zm-20.5-15.54V-929h4.4v-7.169h4.621a8.372,8.372,0,0,0,3.191-.545,6,6,0,0,0,2.142-1.443,5.537,5.537,0,0,0,1.2-2.057,7.642,7.642,0,0,0,.378-2.366,7.6,7.6,0,0,0-.378-2.381,5.568,5.568,0,0,0-1.2-2.044,6.015,6.015,0,0,0-2.142-1.442,8.371,8.371,0,0,0-3.191-.546Zm99.764,16.772a5.156,5.156,0,0,1-2.52-.574,4.825,4.825,0,0,1-1.68-1.526,6.659,6.659,0,0,1-.938-2.142,10.219,10.219,0,0,1-.294-2.451,10.981,10.981,0,0,1,.294-2.548,6.792,6.792,0,0,1,.938-2.2,4.777,4.777,0,0,1,1.68-1.54,5.155,5.155,0,0,1,2.52-.574,5.16,5.16,0,0,1,2.52.574,4.78,4.78,0,0,1,1.679,1.54,6.792,6.792,0,0,1,.939,2.2,11.03,11.03,0,0,1,.293,2.548,10.265,10.265,0,0,1-.293,2.451,6.657,6.657,0,0,1-.939,2.142,4.83,4.83,0,0,1-1.679,1.526A5.16,5.16,0,0,1-994.008-932.22Zm-72.94-4.508h-5.179l2.6-7.336h.056l2.52,7.335Zm53.116-2.856h-3.416v-5.992h3.416a9.255,9.255,0,0,1,1.456.112,3.4,3.4,0,0,1,1.232.435,2.373,2.373,0,0,1,.854.91,3.216,3.216,0,0,1,.321,1.54,3.222,3.222,0,0,1-.321,1.54,2.373,2.373,0,0,1-.854.91,3.4,3.4,0,0,1-1.232.434A9.265,9.265,0,0,1-1013.832-939.584Zm-72.128,0h-3.416v-5.992h3.416a9.255,9.255,0,0,1,1.456.112,3.408,3.408,0,0,1,1.232.435,2.364,2.364,0,0,1,.853.91,3.2,3.2,0,0,1,.322,1.54,3.21,3.21,0,0,1-.322,1.54,2.365,2.365,0,0,1-.853.91,3.408,3.408,0,0,1-1.232.434A9.264,9.264,0,0,1-1085.96-939.584Zm113.988-.364h-4.816v-5.628h4.816a3.391,3.391,0,0,1,2.268.658,2.677,2.677,0,0,1,.756,2.114,2.8,2.8,0,0,1-.756,2.184A3.344,3.344,0,0,1-971.972-939.948Z" transform="translate(1117 1138)"/>
    <g id="Ellipse_14" data-name="Ellipse 14" class="cls-2" transform="translate(35 34)">
      <circle class="cls-3" cx="60" cy="60" r="60"/>
      <circle class="cls-4" cx="60" cy="60" r="58"/>
    </g>
    <line id="Line_7" data-name="Line 7" class="cls-2" y1="116" transform="translate(95.5 34.5)"/>
    <line id="Line_8" data-name="Line 8" class="cls-2" y1="116" transform="translate(153.5 92.5) rotate(90)"/>
    <path id="Path_36" data-name="Path 36" class="cls-2" d="M1217.5,1288.5s29.337-14.076,28.7-57.888-28.7-56.392-28.7-56.392-28.089,8.786-27.955,56.392S1217.5,1288.5,1217.5,1288.5Z" transform="translate(-1122 -1138)"/>
  </g>
</svg>
