<svg xmlns="http://www.w3.org/2000/svg" xmlns:xlink="http://www.w3.org/1999/xlink" viewBox="0 0 75 69" class="small-logo">
  <defs>
    <style>

      .small-logo .cls-2 {
        fill: #fff;
      }
    </style>
  </defs>
  <g id="small-logo" class="cls-1">
    <path id="Path_8" data-name="Path 8" class="cls-2" d="M-21.322-88.859c-3.2,3.412-4.478,6.184-4.478,9.241,0,4.692,2.843,8.815,7.393,8.815,7.962,0,14.715-10.734,19.122-22.747.782-2.2,1.564-4.407,2.417-6.469a29,29,0,0,1,8.175-1.706c.355-.924-.071-1.777-1.706-1.706a30.1,30.1,0,0,0-5.545.924c3.981-10.023,8.1-18.767,13.293-25.733.924-1.208,1.28-1.564,1.28-2.061,0-.853-1.919-2.772-3.2-2.7-1.635,0-5.189,3.981-8.53,10.45a152.457,152.457,0,0,0-8.672,20.97l-.427,1.137C-11.512-96.892-17.27-93.053-21.322-88.859Zm2.2,14.715c-2.061,0-3.341-1.351-3.341-4.052,0-2.2.924-4.976,3.625-8.033A46.015,46.015,0,0,1-3.195-97.674C-7.318-86.3-13.431-74.145-19.118-74.145Z" transform="translate(25.82 132.875)"/>
    <path id="Path_9" data-name="Path 9" class="cls-2" d="M-21.322-88.859c-3.2,3.412-4.478,6.184-4.478,9.241,0,4.692,2.843,8.815,7.393,8.815,7.962,0,14.715-10.734,19.122-22.747.782-2.2,1.564-4.407,2.417-6.469a29,29,0,0,1,8.175-1.706c.355-.924-.071-1.777-1.706-1.706a30.1,30.1,0,0,0-5.545.924c3.981-10.023,8.1-18.767,13.293-25.733.924-1.208,1.28-1.564,1.28-2.061,0-.853-1.919-2.772-3.2-2.7-1.635,0-5.189,3.981-8.53,10.45a152.457,152.457,0,0,0-8.672,20.97l-.427,1.137C-11.512-96.892-17.27-93.053-21.322-88.859Zm2.2,14.715c-2.061,0-3.341-1.351-3.341-4.052,0-2.2.924-4.976,3.625-8.033A46.015,46.015,0,0,1-3.195-97.674C-7.318-86.3-13.431-74.145-19.118-74.145Z" transform="translate(55.82 138.875)"/>
  </g>
</svg>
