<svg xmlns="http://www.w3.org/2000/svg" xmlns:xlink="http://www.w3.org/1999/xlink" viewBox="0 0 1920 891">
  <defs>
    <style>
      .cls-1 {
        clip-path: url(#clip-Web_1920_1);
      }

      .cls-2 {
        fill: url(#linear-gradient);
      }

      .cls-3 {
        opacity: 0.3;
      }

      .cls-4, .cls-6 {
        fill: #fff;
      }

      .cls-5, .cls-7 {
        fill: #707070;
      }

      .cls-5 {
        stroke: #707070;
      }

      .cls-6 {
        stroke: #fff;
      }

      .cls-8 {
        fill: #338778;
      }

      .cls-9 {
        fill: none;
        stroke: #338778;
        stroke-width: 2px;
      }

      .cls-10 {
        fill: #75a046;
      }

      .cls-11 {
        fill: #84b64d;
      }

      .cls-12 {
        fill: #63b1c8;
      }

      .cls-13 {
        fill: #8fbd49;
      }

      .cls-14 {
        fill: #4d811b;
      }
    </style>
    <linearGradient id="linear-gradient" x1="0.5" x2="0.5" y2="1" gradientUnits="objectBoundingBox">
      <stop offset="0" stop-color="#5bbbce"/>
      <stop offset="1" stop-color="#c2dfdc"/>
    </linearGradient>
    <clipPath id="clip-Web_1920_1">
      <rect width="1920" height="891"/>
    </clipPath>
  </defs>
  <g id="Web_1920_1" data-name="Web 1920 – 1" class="cls-1">
    <rect class="cls-4" width="1920" height="891"/>
    <rect id="sky" class="cls-2" width="1920" height="742"/>
    <g id="clouds-distance" class="cls-3">
      <circle id="Ellipse_19" data-name="Ellipse 19" class="cls-4" cx="15" cy="15" r="15" transform="translate(1904 349)"/>
      <circle id="Ellipse_20" data-name="Ellipse 20" class="cls-4" cx="15" cy="15" r="15" transform="translate(1900 374)"/>
      <circle id="Ellipse_21" data-name="Ellipse 21" class="cls-4" cx="15" cy="15" r="15" transform="translate(1884 362)"/>
      <circle id="Ellipse_22" data-name="Ellipse 22" class="cls-4" cx="15" cy="15" r="15" transform="translate(1874 377)"/>
      <circle id="Ellipse_23" data-name="Ellipse 23" class="cls-4" cx="15" cy="15" r="15" transform="translate(1853 378)"/>
      <circle id="Ellipse_24" data-name="Ellipse 24" class="cls-4" cx="15" cy="15" r="15" transform="translate(1863 362)"/>
      <circle id="Ellipse_25" data-name="Ellipse 25" class="cls-4" cx="15" cy="15" r="15" transform="translate(1880 347)"/>
      <circle id="Ellipse_26" data-name="Ellipse 26" class="cls-4" cx="15" cy="15" r="15" transform="translate(1831 374)"/>
      <circle id="Ellipse_27" data-name="Ellipse 27" class="cls-4" cx="15" cy="15" r="15" transform="translate(1905 332)"/>
      <circle id="Ellipse_28" data-name="Ellipse 28" class="cls-4" cx="15" cy="15" r="15" transform="translate(1811 382)"/>
      <circle id="Ellipse_29" data-name="Ellipse 29" class="cls-4" cx="15" cy="15" r="15" transform="translate(1791 378)"/>
      <circle id="Ellipse_30" data-name="Ellipse 30" class="cls-4" cx="15" cy="15" r="15" transform="translate(1770 374)"/>
      <circle id="Ellipse_31" data-name="Ellipse 31" class="cls-4" cx="15" cy="15" r="15" transform="translate(1751 378)"/>
      <circle id="Ellipse_32" data-name="Ellipse 32" class="cls-4" cx="15" cy="15" r="15" transform="translate(1741 381)"/>
      <circle id="Ellipse_33" data-name="Ellipse 33" class="cls-4" cx="15" cy="15" r="15" transform="translate(1721 373)"/>
      <circle id="Ellipse_34" data-name="Ellipse 34" class="cls-4" cx="15" cy="15" r="15" transform="translate(1699 376)"/>
      <circle id="Ellipse_35" data-name="Ellipse 35" class="cls-4" cx="15" cy="15" r="15" transform="translate(1679 373)"/>
      <circle id="Ellipse_36" data-name="Ellipse 36" class="cls-4" cx="15" cy="15" r="15" transform="translate(1659 377)"/>
      <circle id="Ellipse_37" data-name="Ellipse 37" class="cls-4" cx="15" cy="15" r="15" transform="translate(1639 372)"/>
      <circle id="Ellipse_38" data-name="Ellipse 38" class="cls-4" cx="15" cy="15" r="15" transform="translate(1626 363)"/>
      <circle id="Ellipse_39" data-name="Ellipse 39" class="cls-4" cx="15" cy="15" r="15" transform="translate(1607 358)"/>
      <circle id="Ellipse_40" data-name="Ellipse 40" class="cls-4" cx="15" cy="15" r="15" transform="translate(1613 383)"/>
      <circle id="Ellipse_41" data-name="Ellipse 41" class="cls-4" cx="15" cy="15" r="15" transform="translate(1592 383)"/>
      <circle id="Ellipse_42" data-name="Ellipse 42" class="cls-4" cx="15" cy="15" r="15" transform="translate(1587 361)"/>
      <circle id="Ellipse_43" data-name="Ellipse 43" class="cls-4" cx="15" cy="15" r="15" transform="translate(1569 365)"/>
      <circle id="Ellipse_44" data-name="Ellipse 44" class="cls-4" cx="15" cy="15" r="15" transform="translate(1569 385)"/>
      <circle id="Ellipse_45" data-name="Ellipse 45" class="cls-4" cx="15" cy="15" r="15" transform="translate(1549 383)"/>
      <circle id="Ellipse_46" data-name="Ellipse 46" class="cls-4" cx="15" cy="15" r="15" transform="translate(1549 363)"/>
      <circle id="Ellipse_47" data-name="Ellipse 47" class="cls-4" cx="15" cy="15" r="15" transform="translate(1529 360)"/>
      <circle id="Ellipse_48" data-name="Ellipse 48" class="cls-4" cx="15" cy="15" r="15" transform="translate(1524 381)"/>
      <circle id="Ellipse_49" data-name="Ellipse 49" class="cls-4" cx="15" cy="15" r="15" transform="translate(1514 371)"/>
      <circle id="Ellipse_50" data-name="Ellipse 50" class="cls-4" cx="15" cy="15" r="15" transform="translate(1494 361)"/>
      <circle id="Ellipse_51" data-name="Ellipse 51" class="cls-4" cx="15" cy="15" r="15" transform="translate(1494 381)"/>
      <circle id="Ellipse_52" data-name="Ellipse 52" class="cls-4" cx="15" cy="15" r="15" transform="translate(1474 381)"/>
      <circle id="Ellipse_53" data-name="Ellipse 53" class="cls-4" cx="15" cy="15" r="15" transform="translate(1454 381)"/>
      <circle id="Ellipse_54" data-name="Ellipse 54" class="cls-4" cx="15" cy="15" r="15" transform="translate(1471 369)"/>
      <circle id="Ellipse_55" data-name="Ellipse 55" class="cls-4" cx="15" cy="15" r="15" transform="translate(1433 378)"/>
      <circle id="Ellipse_232" data-name="Ellipse 232" class="cls-4" cx="15" cy="15" r="15" transform="translate(1419 365)"/>
      <circle id="Ellipse_233" data-name="Ellipse 233" class="cls-4" cx="15" cy="15" r="15" transform="translate(1397 359)"/>
      <circle id="Ellipse_234" data-name="Ellipse 234" class="cls-4" cx="15" cy="15" r="15" transform="translate(1375 359)"/>
      <circle id="Ellipse_235" data-name="Ellipse 235" class="cls-4" cx="15" cy="15" r="15" transform="translate(1385 347)"/>
      <circle id="Ellipse_236" data-name="Ellipse 236" class="cls-4" cx="15" cy="15" r="15" transform="translate(1364 347)"/>
      <circle id="Ellipse_237" data-name="Ellipse 237" class="cls-4" cx="15" cy="15" r="15" transform="translate(1344 357)"/>
      <circle id="Ellipse_238" data-name="Ellipse 238" class="cls-4" cx="15" cy="15" r="15" transform="translate(1352 336)"/>
      <circle id="Ellipse_239" data-name="Ellipse 239" class="cls-4" cx="15" cy="15" r="15" transform="translate(1330 346)"/>
      <circle id="Ellipse_240" data-name="Ellipse 240" class="cls-4" cx="15" cy="15" r="15" transform="translate(1250 336)"/>
      <circle id="Ellipse_241" data-name="Ellipse 241" class="cls-4" cx="15" cy="15" r="15" transform="translate(1270 346)"/>
      <circle id="Ellipse_242" data-name="Ellipse 242" class="cls-4" cx="15" cy="15" r="15" transform="translate(1290 346)"/>
      <circle id="Ellipse_243" data-name="Ellipse 243" class="cls-4" cx="15" cy="15" r="15" transform="translate(1270 336)"/>
      <circle id="Ellipse_244" data-name="Ellipse 244" class="cls-4" cx="15" cy="15" r="15" transform="translate(1311 346)"/>
      <circle id="Ellipse_245" data-name="Ellipse 245" class="cls-4" cx="15" cy="15" r="15" transform="translate(1329 335)"/>
      <circle id="Ellipse_246" data-name="Ellipse 246" class="cls-4" cx="15" cy="15" r="15" transform="translate(1309 335)"/>
      <circle id="Ellipse_247" data-name="Ellipse 247" class="cls-4" cx="15" cy="15" r="15" transform="translate(1289 325)"/>
      <circle id="Ellipse_56" data-name="Ellipse 56" class="cls-4" cx="15" cy="15" r="15" transform="translate(1411 381)"/>
      <circle id="Ellipse_57" data-name="Ellipse 57" class="cls-4" cx="15" cy="15" r="15" transform="translate(1391 377)"/>
      <circle id="Ellipse_58" data-name="Ellipse 58" class="cls-4" cx="15" cy="15" r="15" transform="translate(1371 387)"/>
      <circle id="Ellipse_59" data-name="Ellipse 59" class="cls-4" cx="15" cy="15" r="15" transform="translate(1351 377)"/>
      <circle id="Ellipse_60" data-name="Ellipse 60" class="cls-4" cx="15" cy="15" r="15" transform="translate(1331 387)"/>
      <circle id="Ellipse_61" data-name="Ellipse 61" class="cls-4" cx="15" cy="15" r="15" transform="translate(1311 384)"/>
      <circle id="Ellipse_62" data-name="Ellipse 62" class="cls-4" cx="15" cy="15" r="15" transform="translate(1291 374)"/>
      <circle id="Ellipse_63" data-name="Ellipse 63" class="cls-4" cx="15" cy="15" r="15" transform="translate(1271 384)"/>
      <circle id="Ellipse_64" data-name="Ellipse 64" class="cls-4" cx="15" cy="15" r="15" transform="translate(1256 377)"/>
      <circle id="Ellipse_65" data-name="Ellipse 65" class="cls-4" cx="15" cy="15" r="15" transform="translate(1235 385)"/>
      <circle id="Ellipse_66" data-name="Ellipse 66" class="cls-4" cx="15" cy="15" r="15" transform="translate(1261 381)"/>
      <circle id="Ellipse_67" data-name="Ellipse 67" class="cls-4" cx="15" cy="15" r="15" transform="translate(1241 373)"/>
      <circle id="Ellipse_68" data-name="Ellipse 68" class="cls-4" cx="15" cy="15" r="15" transform="translate(1219 376)"/>
      <circle id="Ellipse_69" data-name="Ellipse 69" class="cls-4" cx="15" cy="15" r="15" transform="translate(1199 373)"/>
      <circle id="Ellipse_70" data-name="Ellipse 70" class="cls-4" cx="15" cy="15" r="15" transform="translate(1179 377)"/>
      <circle id="Ellipse_71" data-name="Ellipse 71" class="cls-4" cx="15" cy="15" r="15" transform="translate(1159 372)"/>
      <circle id="Ellipse_72" data-name="Ellipse 72" class="cls-4" cx="15" cy="15" r="15" transform="translate(1146 363)"/>
      <circle id="Ellipse_73" data-name="Ellipse 73" class="cls-4" cx="15" cy="15" r="15" transform="translate(1127 358)"/>
      <circle id="Ellipse_74" data-name="Ellipse 74" class="cls-4" cx="15" cy="15" r="15" transform="translate(1133 383)"/>
      <circle id="Ellipse_75" data-name="Ellipse 75" class="cls-4" cx="15" cy="15" r="15" transform="translate(1112 383)"/>
      <circle id="Ellipse_76" data-name="Ellipse 76" class="cls-4" cx="15" cy="15" r="15" transform="translate(1107 361)"/>
      <circle id="Ellipse_77" data-name="Ellipse 77" class="cls-4" cx="15" cy="15" r="15" transform="translate(1089 365)"/>
      <circle id="Ellipse_78" data-name="Ellipse 78" class="cls-4" cx="15" cy="15" r="15" transform="translate(1089 385)"/>
      <circle id="Ellipse_79" data-name="Ellipse 79" class="cls-4" cx="15" cy="15" r="15" transform="translate(1069 383)"/>
      <circle id="Ellipse_80" data-name="Ellipse 80" class="cls-4" cx="15" cy="15" r="15" transform="translate(1069 363)"/>
      <circle id="Ellipse_81" data-name="Ellipse 81" class="cls-4" cx="15" cy="15" r="15" transform="translate(1049 360)"/>
      <circle id="Ellipse_82" data-name="Ellipse 82" class="cls-4" cx="15" cy="15" r="15" transform="translate(1044 381)"/>
      <circle id="Ellipse_83" data-name="Ellipse 83" class="cls-4" cx="15" cy="15" r="15" transform="translate(1034 371)"/>
      <circle id="Ellipse_84" data-name="Ellipse 84" class="cls-4" cx="15" cy="15" r="15" transform="translate(1014 361)"/>
      <circle id="Ellipse_85" data-name="Ellipse 85" class="cls-4" cx="15" cy="15" r="15" transform="translate(1014 381)"/>
      <circle id="Ellipse_86" data-name="Ellipse 86" class="cls-4" cx="15" cy="15" r="15" transform="translate(994 381)"/>
      <circle id="Ellipse_87" data-name="Ellipse 87" class="cls-4" cx="15" cy="15" r="15" transform="translate(974 381)"/>
      <circle id="Ellipse_88" data-name="Ellipse 88" class="cls-4" cx="15" cy="15" r="15" transform="translate(991 369)"/>
      <circle id="Ellipse_89" data-name="Ellipse 89" class="cls-4" cx="15" cy="15" r="15" transform="translate(953 378)"/>
      <circle id="Ellipse_90" data-name="Ellipse 90" class="cls-4" cx="15" cy="15" r="15" transform="translate(931 381)"/>
      <circle id="Ellipse_91" data-name="Ellipse 91" class="cls-4" cx="15" cy="15" r="15" transform="translate(911 377)"/>
      <circle id="Ellipse_92" data-name="Ellipse 92" class="cls-4" cx="15" cy="15" r="15" transform="translate(891 387)"/>
      <circle id="Ellipse_93" data-name="Ellipse 93" class="cls-4" cx="15" cy="15" r="15" transform="translate(871 377)"/>
      <circle id="Ellipse_94" data-name="Ellipse 94" class="cls-4" cx="15" cy="15" r="15" transform="translate(851 387)"/>
      <circle id="Ellipse_95" data-name="Ellipse 95" class="cls-4" cx="15" cy="15" r="15" transform="translate(831 384)"/>
      <circle id="Ellipse_96" data-name="Ellipse 96" class="cls-4" cx="15" cy="15" r="15" transform="translate(811 374)"/>
      <circle id="Ellipse_97" data-name="Ellipse 97" class="cls-4" cx="15" cy="15" r="15" transform="translate(791 384)"/>
      <circle id="Ellipse_98" data-name="Ellipse 98" class="cls-4" cx="15" cy="15" r="15" transform="translate(776 377)"/>
      <circle id="Ellipse_99" data-name="Ellipse 99" class="cls-4" cx="15" cy="15" r="15" transform="translate(755 385)"/>
      <circle id="Ellipse_100" data-name="Ellipse 100" class="cls-4" cx="15" cy="15" r="15" transform="translate(1061 381)"/>
      <circle id="Ellipse_101" data-name="Ellipse 101" class="cls-4" cx="15" cy="15" r="15" transform="translate(1041 373)"/>
      <circle id="Ellipse_102" data-name="Ellipse 102" class="cls-4" cx="15" cy="15" r="15" transform="translate(1019 376)"/>
      <circle id="Ellipse_103" data-name="Ellipse 103" class="cls-4" cx="15" cy="15" r="15" transform="translate(999 373)"/>
      <circle id="Ellipse_104" data-name="Ellipse 104" class="cls-4" cx="15" cy="15" r="15" transform="translate(979 377)"/>
      <circle id="Ellipse_105" data-name="Ellipse 105" class="cls-4" cx="15" cy="15" r="15" transform="translate(959 372)"/>
      <circle id="Ellipse_106" data-name="Ellipse 106" class="cls-4" cx="15" cy="15" r="15" transform="translate(946 363)"/>
      <circle id="Ellipse_107" data-name="Ellipse 107" class="cls-4" cx="15" cy="15" r="15" transform="translate(927 358)"/>
      <circle id="Ellipse_108" data-name="Ellipse 108" class="cls-4" cx="15" cy="15" r="15" transform="translate(933 383)"/>
      <circle id="Ellipse_109" data-name="Ellipse 109" class="cls-4" cx="15" cy="15" r="15" transform="translate(912 383)"/>
      <circle id="Ellipse_110" data-name="Ellipse 110" class="cls-4" cx="15" cy="15" r="15" transform="translate(907 361)"/>
      <circle id="Ellipse_111" data-name="Ellipse 111" class="cls-4" cx="15" cy="15" r="15" transform="translate(889 365)"/>
      <circle id="Ellipse_112" data-name="Ellipse 112" class="cls-4" cx="15" cy="15" r="15" transform="translate(889 385)"/>
      <circle id="Ellipse_113" data-name="Ellipse 113" class="cls-4" cx="15" cy="15" r="15" transform="translate(869 383)"/>
      <circle id="Ellipse_114" data-name="Ellipse 114" class="cls-4" cx="15" cy="15" r="15" transform="translate(869 363)"/>
      <circle id="Ellipse_115" data-name="Ellipse 115" class="cls-4" cx="15" cy="15" r="15" transform="translate(849 360)"/>
      <circle id="Ellipse_116" data-name="Ellipse 116" class="cls-4" cx="15" cy="15" r="15" transform="translate(844 381)"/>
      <circle id="Ellipse_117" data-name="Ellipse 117" class="cls-4" cx="15" cy="15" r="15" transform="translate(834 371)"/>
      <circle id="Ellipse_118" data-name="Ellipse 118" class="cls-4" cx="15" cy="15" r="15" transform="translate(814 361)"/>
      <circle id="Ellipse_248" data-name="Ellipse 248" class="cls-4" cx="15" cy="15" r="15" transform="translate(794 351)"/>
      <circle id="Ellipse_249" data-name="Ellipse 249" class="cls-4" cx="15" cy="15" r="15" transform="translate(814 351)"/>
      <circle id="Ellipse_250" data-name="Ellipse 250" class="cls-4" cx="15" cy="15" r="15" transform="translate(774 361)"/>
      <circle id="Ellipse_251" data-name="Ellipse 251" class="cls-4" cx="15" cy="15" r="15" transform="translate(774 341)"/>
      <circle id="Ellipse_252" data-name="Ellipse 252" class="cls-4" cx="15" cy="15" r="15" transform="translate(754 351)"/>
      <circle id="Ellipse_253" data-name="Ellipse 253" class="cls-4" cx="15" cy="15" r="15" transform="translate(733 341)"/>
      <circle id="Ellipse_254" data-name="Ellipse 254" class="cls-4" cx="15" cy="15" r="15" transform="translate(753 331)"/>
      <circle id="Ellipse_255" data-name="Ellipse 255" class="cls-4" cx="15" cy="15" r="15" transform="translate(713 347)"/>
      <circle id="Ellipse_119" data-name="Ellipse 119" class="cls-4" cx="15" cy="15" r="15" transform="translate(814 381)"/>
      <circle id="Ellipse_120" data-name="Ellipse 120" class="cls-4" cx="15" cy="15" r="15" transform="translate(794 381)"/>
      <circle id="Ellipse_121" data-name="Ellipse 121" class="cls-4" cx="15" cy="15" r="15" transform="translate(774 381)"/>
      <circle id="Ellipse_122" data-name="Ellipse 122" class="cls-4" cx="15" cy="15" r="15" transform="translate(791 369)"/>
      <circle id="Ellipse_123" data-name="Ellipse 123" class="cls-4" cx="15" cy="15" r="15" transform="translate(753 378)"/>
      <circle id="Ellipse_124" data-name="Ellipse 124" class="cls-4" cx="15" cy="15" r="15" transform="translate(731 381)"/>
      <circle id="Ellipse_125" data-name="Ellipse 125" class="cls-4" cx="15" cy="15" r="15" transform="translate(711 377)"/>
      <circle id="Ellipse_126" data-name="Ellipse 126" class="cls-4" cx="15" cy="15" r="15" transform="translate(691 387)"/>
      <circle id="Ellipse_127" data-name="Ellipse 127" class="cls-4" cx="15" cy="15" r="15" transform="translate(671 377)"/>
      <circle id="Ellipse_128" data-name="Ellipse 128" class="cls-4" cx="15" cy="15" r="15" transform="translate(651 387)"/>
      <circle id="Ellipse_129" data-name="Ellipse 129" class="cls-4" cx="15" cy="15" r="15" transform="translate(631 384)"/>
      <circle id="Ellipse_130" data-name="Ellipse 130" class="cls-4" cx="15" cy="15" r="15" transform="translate(611 374)"/>
      <circle id="Ellipse_131" data-name="Ellipse 131" class="cls-4" cx="15" cy="15" r="15" transform="translate(591 384)"/>
      <circle id="Ellipse_132" data-name="Ellipse 132" class="cls-4" cx="15" cy="15" r="15" transform="translate(576 377)"/>
      <circle id="Ellipse_133" data-name="Ellipse 133" class="cls-4" cx="15" cy="15" r="15" transform="translate(555 385)"/>
      <circle id="Ellipse_134" data-name="Ellipse 134" class="cls-4" cx="15" cy="15" r="15" transform="translate(255.4 385)"/>
      <circle id="Ellipse_135" data-name="Ellipse 135" class="cls-4" cx="15" cy="15" r="15" transform="translate(265.4 375)"/>
      <circle id="Ellipse_136" data-name="Ellipse 136" class="cls-4" cx="15" cy="15" r="15" transform="translate(285.4 365)"/>
      <circle id="Ellipse_137" data-name="Ellipse 137" class="cls-4" cx="15" cy="15" r="15" transform="translate(285.4 385)"/>
      <circle id="Ellipse_138" data-name="Ellipse 138" class="cls-4" cx="15" cy="15" r="15" transform="translate(-12.021 353)"/>
      <circle id="Ellipse_139" data-name="Ellipse 139" class="cls-4" cx="15" cy="15" r="15" transform="translate(-8.021 378)"/>
      <circle id="Ellipse_140" data-name="Ellipse 140" class="cls-4" cx="15" cy="15" r="15" transform="translate(7.979 366)"/>
      <circle id="Ellipse_141" data-name="Ellipse 141" class="cls-4" cx="15" cy="15" r="15" transform="translate(17.979 381)"/>
      <circle id="Ellipse_142" data-name="Ellipse 142" class="cls-4" cx="15" cy="15" r="15" transform="translate(48.553 382)"/>
      <circle id="Ellipse_143" data-name="Ellipse 143" class="cls-4" cx="15" cy="15" r="15" transform="translate(28.979 366)"/>
      <circle id="Ellipse_144" data-name="Ellipse 144" class="cls-4" cx="15" cy="15" r="15" transform="translate(11.979 351)"/>
      <circle id="Ellipse_145" data-name="Ellipse 145" class="cls-4" cx="15" cy="15" r="15" transform="translate(40.709 378)"/>
      <circle id="Ellipse_146" data-name="Ellipse 146" class="cls-4" cx="15" cy="15" r="15" transform="translate(-13.021 336)"/>
      <circle id="Ellipse_147" data-name="Ellipse 147" class="cls-4" cx="15" cy="15" r="15" transform="translate(55.231 386)"/>
      <circle id="Ellipse_148" data-name="Ellipse 148" class="cls-4" cx="15" cy="15" r="15" transform="translate(69.753 382)"/>
      <circle id="Ellipse_149" data-name="Ellipse 149" class="cls-4" cx="15" cy="15" r="15" transform="translate(85 378)"/>
      <circle id="Ellipse_150" data-name="Ellipse 150" class="cls-4" cx="15" cy="15" r="15" transform="translate(98.796 382)"/>
      <circle id="Ellipse_151" data-name="Ellipse 151" class="cls-4" cx="15" cy="15" r="15" transform="translate(106.057 385)"/>
      <circle id="Ellipse_152" data-name="Ellipse 152" class="cls-4" cx="15" cy="15" r="15" transform="translate(120.579 377)"/>
      <circle id="Ellipse_153" data-name="Ellipse 153" class="cls-4" cx="15" cy="15" r="15" transform="translate(136.552 380)"/>
      <circle id="Ellipse_154" data-name="Ellipse 154" class="cls-4" cx="15" cy="15" r="15" transform="translate(151.074 377)"/>
      <circle id="Ellipse_155" data-name="Ellipse 155" class="cls-4" cx="15" cy="15" r="15" transform="translate(165.596 381)"/>
      <circle id="Ellipse_156" data-name="Ellipse 156" class="cls-4" cx="15" cy="15" r="15" transform="translate(180.117 376)"/>
      <circle id="Ellipse_157" data-name="Ellipse 157" class="cls-4" cx="15" cy="15" r="15" transform="translate(189.557 367)"/>
      <circle id="Ellipse_158" data-name="Ellipse 158" class="cls-4" cx="15" cy="15" r="15" transform="translate(203.352 362)"/>
      <circle id="Ellipse_159" data-name="Ellipse 159" class="cls-4" cx="15" cy="15" r="15" transform="translate(198.996 387)"/>
      <circle id="Ellipse_160" data-name="Ellipse 160" class="cls-4" cx="15" cy="15" r="15" transform="translate(214.243 387)"/>
      <circle id="Ellipse_161" data-name="Ellipse 161" class="cls-4" cx="15" cy="15" r="15" transform="translate(217.874 365)"/>
      <circle id="Ellipse_162" data-name="Ellipse 162" class="cls-4" cx="15" cy="15" r="15" transform="translate(230.943 369)"/>
      <circle id="Ellipse_163" data-name="Ellipse 163" class="cls-4" cx="15" cy="15" r="15" transform="translate(230.943 389)"/>
      <circle id="Ellipse_164" data-name="Ellipse 164" class="cls-4" cx="15" cy="15" r="15" transform="translate(220.273 387)"/>
      <circle id="Ellipse_165" data-name="Ellipse 165" class="cls-4" cx="15" cy="15" r="15" transform="translate(220.273 367)"/>
      <circle id="Ellipse_166" data-name="Ellipse 166" class="cls-4" cx="15" cy="15" r="15" transform="translate(250.4 364)"/>
      <circle id="Ellipse_167" data-name="Ellipse 167" class="cls-4" cx="15" cy="15" r="15" transform="translate(551 381)"/>
      <circle id="Ellipse_168" data-name="Ellipse 168" class="cls-4" cx="15" cy="15" r="15" transform="translate(531 377)"/>
      <circle id="Ellipse_169" data-name="Ellipse 169" class="cls-4" cx="15" cy="15" r="15" transform="translate(511 387)"/>
      <circle id="Ellipse_170" data-name="Ellipse 170" class="cls-4" cx="15" cy="15" r="15" transform="translate(491 377)"/>
      <circle id="Ellipse_171" data-name="Ellipse 171" class="cls-4" cx="15" cy="15" r="15" transform="translate(471 387)"/>
      <circle id="Ellipse_172" data-name="Ellipse 172" class="cls-4" cx="15" cy="15" r="15" transform="translate(451 384)"/>
      <circle id="Ellipse_173" data-name="Ellipse 173" class="cls-4" cx="15" cy="15" r="15" transform="translate(431 374)"/>
      <circle id="Ellipse_174" data-name="Ellipse 174" class="cls-4" cx="15" cy="15" r="15" transform="translate(411 384)"/>
      <circle id="Ellipse_175" data-name="Ellipse 175" class="cls-4" cx="15" cy="15" r="15" transform="translate(396 377)"/>
      <circle id="Ellipse_176" data-name="Ellipse 176" class="cls-4" cx="15" cy="15" r="15" transform="translate(375 385)"/>
      <circle id="Ellipse_177" data-name="Ellipse 177" class="cls-4" cx="15" cy="15" r="15" transform="translate(374 381)"/>
      <circle id="Ellipse_178" data-name="Ellipse 178" class="cls-4" cx="15" cy="15" r="15" transform="translate(354 371)"/>
      <circle id="Ellipse_179" data-name="Ellipse 179" class="cls-4" cx="15" cy="15" r="15" transform="translate(334 381)"/>
      <circle id="Ellipse_180" data-name="Ellipse 180" class="cls-4" cx="15" cy="15" r="15" transform="translate(319 374)"/>
      <circle id="Ellipse_181" data-name="Ellipse 181" class="cls-4" cx="15" cy="15" r="15" transform="translate(298 382)"/>
      <circle id="Ellipse_182" data-name="Ellipse 182" class="cls-4" cx="15" cy="15" r="15" transform="translate(1656 363)"/>
      <circle id="Ellipse_183" data-name="Ellipse 183" class="cls-4" cx="15" cy="15" r="15" transform="translate(1696 363)"/>
      <circle id="Ellipse_184" data-name="Ellipse 184" class="cls-4" cx="15" cy="15" r="15" transform="translate(1675 353)"/>
      <circle id="Ellipse_185" data-name="Ellipse 185" class="cls-4" cx="15" cy="15" r="15" transform="translate(1639 358)"/>
      <circle id="Ellipse_186" data-name="Ellipse 186" class="cls-4" cx="15" cy="15" r="15" transform="translate(1741 367)"/>
      <circle id="Ellipse_187" data-name="Ellipse 187" class="cls-4" cx="15" cy="15" r="15" transform="translate(1720 357)"/>
      <circle id="Ellipse_188" data-name="Ellipse 188" class="cls-4" cx="15" cy="15" r="15" transform="translate(1700 347)"/>
      <circle id="Ellipse_189" data-name="Ellipse 189" class="cls-4" cx="15" cy="15" r="15" transform="translate(1628 347)"/>
      <circle id="Ellipse_190" data-name="Ellipse 190" class="cls-4" cx="15" cy="15" r="15" transform="translate(1271 363)"/>
      <circle id="Ellipse_191" data-name="Ellipse 191" class="cls-4" cx="15" cy="15" r="15" transform="translate(1251 353)"/>
      <circle id="Ellipse_192" data-name="Ellipse 192" class="cls-4" cx="15" cy="15" r="15" transform="translate(1227 361)"/>
      <circle id="Ellipse_193" data-name="Ellipse 193" class="cls-4" cx="15" cy="15" r="15" transform="translate(1205 351)"/>
      <circle id="Ellipse_194" data-name="Ellipse 194" class="cls-4" cx="15" cy="15" r="15" transform="translate(1228 341)"/>
      <circle id="Ellipse_195" data-name="Ellipse 195" class="cls-4" cx="15" cy="15" r="15" transform="translate(1185 355)"/>
      <circle id="Ellipse_196" data-name="Ellipse 196" class="cls-4" cx="15" cy="15" r="15" transform="translate(1165 355)"/>
      <circle id="Ellipse_197" data-name="Ellipse 197" class="cls-4" cx="15" cy="15" r="15" transform="translate(1145 345)"/>
      <circle id="Ellipse_198" data-name="Ellipse 198" class="cls-4" cx="15" cy="15" r="15" transform="translate(1185 335)"/>
    </g>
    <g id="Group_1" data-name="Group 1" transform="translate(50)">
      <path id="Path_41" data-name="Path 41" class="cls-5" d="M516.34,286.22S407.251,229.752,362,204.806,204.95,149.377,204.95,149.377s-76.584,19.013-87.33,39.855-54.2,140.5-54.2,140.5l329.357,18.11Z" transform="translate(213 90)"/>
      <path id="Path_42" data-name="Path 42" class="cls-6" d="M256.71,197.122c17.353,4.321,11.57,16.007,25.044,20.156s10.385-2.974,28.85-3.56,32.517,22.75,45.013,1.214,20.763-10.586,34.315-10,13.572,14.058,19.894,12.345,43.78-9.269,5.394-19.2C388.963,182.155,281.754,153.1,281.754,153.1s-90.922,23.477-89.762,44.025,28.8,0,28.8,0S239.357,192.8,256.71,197.122Z" transform="translate(137 86)"/>
      <path id="Path_31" data-name="Path 31" class="cls-7" d="M466.34,286.22S407.251,229.752,362,204.806,204.95,149.377,204.95,149.377s-76.584,19.013-87.33,39.855-54.2,140.5-54.2,140.5l329.357,18.11Z" transform="translate(80 60)"/>
      <path id="Path_40" data-name="Path 40" class="cls-6" d="M256.71,197.122c17.353,4.321,11.57,16.007,25.044,20.156s10.385-2.974,28.85-3.56,32.517,22.75,45.013,1.214,20.763-10.586,34.315-10,13.572,14.058,19.894,12.345,34.39-.7,7.394-17.2C388.826,185.024,281.754,154.1,281.754,154.1s-90.922,22.477-89.762,43.025,28.8,0,28.8,0" transform="translate(4 56)"/>
      <path id="Path_70" data-name="Path 70" class="cls-7" d="M-41.412,33.98l3.775,1,.643-6.833-1.574-7.153-2.779-1.533-1.29,8.686Z" transform="translate(354 184)"/>
      <path id="Path_71" data-name="Path 71" class="cls-7" d="M-41.412,33.98l3.775,1,.643-6.833-1.574-7.153-2.779-1.533-1.29,8.686Z" transform="translate(344 181)"/>
      <path id="Path_72" data-name="Path 72" class="cls-7" d="M-41.412,33.98l3.775,1,.643-6.833-1.574-7.153-2.779-1.533-1.29,8.686Z" transform="translate(322.146 247.946) rotate(110)"/>
      <path id="Path_73" data-name="Path 73" class="cls-7" d="M-41.412,28.607l3.775.63.643-4.3-1.574-4.506-2.779-.966-1.29,5.471Z" transform="translate(267.741 216.132) rotate(-174)"/>
      <path id="Path_74" data-name="Path 74" class="cls-7" d="M-41.412,31.3l3.775.815.643-5.571-1.574-5.832-2.779-1.25-1.29,7.081Z" transform="translate(297.014 144.031) rotate(-73)"/>
      <path id="Path_75" data-name="Path 75" class="cls-7" d="M-41.412,28.607l3.775.63.643-4.3-1.574-4.506-2.779-.966-1.29,5.471Z" transform="translate(268.741 207.132) rotate(-174)"/>
    </g>
    <g id="lionsgate-bridge">
      <path id="Path_2" data-name="Path 2" class="cls-8" d="M0,0H420V10H0Z" transform="translate(803 378)"/>
      <path id="Path_3" data-name="Path 3" class="cls-8" d="M0,0H96V10H0Z" transform="translate(1097 304) rotate(90)"/>
      <path id="Path_4" data-name="Path 4" class="cls-8" d="M0,0H96V10H0Z" transform="translate(939 304) rotate(90)"/>
      <path id="Path_5" data-name="Path 5" class="cls-9" d="M570,265s22.191,72.855,75.414,72.633S719.59,264,719.59,264" transform="translate(368 40)"/>
      <path id="Path_6" data-name="Path 6" class="cls-9" d="M719.59,264s-22.953,73.41-76.176,73.633" transform="translate(210 40)"/>
      <path id="Path_7" data-name="Path 7" class="cls-9" d="M570,264s20.191,73.855,73.414,73.633" transform="translate(526 40)"/>
      <path id="Path_8" data-name="Path 8" class="cls-8" d="M0,0H60V2H0Z" transform="translate(921 326) rotate(90)"/>
      <path id="Path_98" data-name="Path 98" class="cls-8" d="M0,0H50V2H0Z" transform="translate(916 335) rotate(90)"/>
      <path id="Path_97" data-name="Path 97" class="cls-8" d="M0,0H64V2H0Z" transform="translate(926 317) rotate(90)"/>
      <path id="Path_9" data-name="Path 9" class="cls-8" d="M0,0H40V2H0Z" transform="translate(911 342) rotate(90)"/>
      <path id="Path_99" data-name="Path 99" class="cls-8" d="M0,0H36V2H0Z" transform="translate(906 349) rotate(90)"/>
      <path id="Path_10" data-name="Path 10" class="cls-8" d="M0,0H30V2H0Z" transform="translate(901 355) rotate(90)"/>
      <path id="Path_100" data-name="Path 100" class="cls-8" d="M0,0H24V2H0Z" transform="translate(896 360) rotate(90)"/>
      <path id="Path_11" data-name="Path 11" class="cls-8" d="M0,0H20V2H0Z" transform="translate(891 365) rotate(90)"/>
      <path id="Path_101" data-name="Path 101" class="cls-8" d="M0,0H20V2H0Z" transform="translate(886 368) rotate(90)"/>
      <path id="Path_12" data-name="Path 12" class="cls-8" d="M0,0H14V2H0Z" transform="translate(881 371) rotate(90)"/>
      <path id="Path_102" data-name="Path 102" class="cls-8" d="M0,0H14V2H0Z" transform="translate(876 373) rotate(90)"/>
      <path id="Path_13" data-name="Path 13" class="cls-8" d="M0,0H6V2H0Z" transform="translate(871 374) rotate(90)"/>
      <path id="Path_14" data-name="Path 14" class="cls-8" d="M0,0H60V2H0Z" transform="translate(949 328) rotate(90)"/>
      <path id="Path_96" data-name="Path 96" class="cls-8" d="M0,0H60V2H0Z" transform="translate(944 318) rotate(90)"/>
      <path id="Path_95" data-name="Path 95" class="cls-8" d="M0,0H50V2H0Z" transform="translate(954 337) rotate(90)"/>
      <path id="Path_15" data-name="Path 15" class="cls-8" d="M0,0H36V2H0Z" transform="translate(959 345) rotate(90)"/>
      <path id="Path_94" data-name="Path 94" class="cls-8" d="M0,0H36V2H0Z" transform="translate(964 351) rotate(90)"/>
      <path id="Path_16" data-name="Path 16" class="cls-8" d="M0,0H24V2H0Z" transform="translate(969 356) rotate(90)"/>
      <path id="Path_93" data-name="Path 93" class="cls-8" d="M0,0H24V2H0Z" transform="translate(974 361) rotate(90)"/>
      <path id="Path_17" data-name="Path 17" class="cls-8" d="M0,0H18V2H0Z" transform="translate(979 365) rotate(90)"/>
      <path id="Path_92" data-name="Path 92" class="cls-8" d="M0,0H18V2H0Z" transform="translate(984 369) rotate(90)"/>
      <path id="Path_18" data-name="Path 18" class="cls-8" d="M0,0H10V2H0Z" transform="translate(989 371) rotate(90)"/>
      <path id="Path_90" data-name="Path 90" class="cls-8" d="M0,0H10V2H0Z" transform="translate(994 374) rotate(90)"/>
      <path id="Path_91" data-name="Path 91" class="cls-8" d="M0,0H10V2H0Z" transform="translate(999 376) rotate(90)"/>
      <path id="Path_19" data-name="Path 19" class="cls-8" d="M0,0H60V2H0Z" transform="translate(1079 327) rotate(90)"/>
      <path id="Path_76" data-name="Path 76" class="cls-8" d="M0,0H60V2H0Z" transform="translate(1079 327) rotate(90)"/>
      <path id="Path_79" data-name="Path 79" class="cls-8" d="M0,0H62V2H0Z" transform="translate(1084 317) rotate(90)"/>
      <path id="Path_83" data-name="Path 83" class="cls-8" d="M0,0H62V2H0Z" transform="translate(1102 319) rotate(90)"/>
      <path id="Path_77" data-name="Path 77" class="cls-8" d="M0,0H48V2H0Z" transform="translate(1074 337) rotate(90)"/>
      <path id="Path_20" data-name="Path 20" class="cls-8" d="M0,0H36V2H0Z" transform="translate(1069 345) rotate(90)"/>
      <path id="Path_21" data-name="Path 21" class="cls-8" d="M0,0H24V2H0Z" transform="translate(1059 356) rotate(90)"/>
      <path id="Path_80" data-name="Path 80" class="cls-8" d="M0,0H24V2H0Z" transform="translate(1054 361) rotate(90)"/>
      <path id="Path_78" data-name="Path 78" class="cls-8" d="M0,0H30V2H0Z" transform="translate(1064 351) rotate(90)"/>
      <path id="Path_22" data-name="Path 22" class="cls-8" d="M0,0H16V2H0Z" transform="translate(1049 365) rotate(90)"/>
      <path id="Path_81" data-name="Path 81" class="cls-8" d="M0,0H16V2H0Z" transform="translate(1044 369) rotate(90)"/>
      <path id="Path_23" data-name="Path 23" class="cls-8" d="M0,0H8V2H0Z" transform="translate(1039 372) rotate(90)"/>
      <path id="Path_82" data-name="Path 82" class="cls-8" d="M0,0H8V2H0Z" transform="translate(1034 374) rotate(90)"/>
      <path id="Path_24" data-name="Path 24" class="cls-8" d="M0,0H6V2H0Z" transform="translate(1029 376) rotate(90)"/>
      <path id="Path_25" data-name="Path 25" class="cls-8" d="M0,0H50V2H0Z" transform="translate(1107 329) rotate(90)"/>
      <path id="Path_26" data-name="Path 26" class="cls-8" d="M0,0H48V2H0Z" transform="translate(1112 338) rotate(90)"/>
      <path id="Path_84" data-name="Path 84" class="cls-8" d="M0,0H40V2H0Z" transform="translate(1117 346) rotate(90)"/>
      <path id="Path_85" data-name="Path 85" class="cls-8" d="M0,0H30V2H0Z" transform="translate(1122 352) rotate(90)"/>
      <path id="Path_27" data-name="Path 27" class="cls-8" d="M0,0H24V2H0Z" transform="translate(1127 358) rotate(90)"/>
      <path id="Path_28" data-name="Path 28" class="cls-8" d="M0,0H16V2H0Z" transform="translate(1132 363) rotate(90)"/>
      <path id="Path_29" data-name="Path 29" class="cls-8" d="M0,0H16V2H0Z" transform="translate(1137 366) rotate(90)"/>
      <path id="Path_86" data-name="Path 86" class="cls-8" d="M0,0H16V2H0Z" transform="translate(1142 370) rotate(90)"/>
      <path id="Path_87" data-name="Path 87" class="cls-8" d="M0,0H16V2H0Z" transform="translate(1147 372) rotate(90)"/>
      <path id="Path_88" data-name="Path 88" class="cls-8" d="M0,0H10V2H0Z" transform="translate(1152 375) rotate(90)"/>
      <path id="Path_89" data-name="Path 89" class="cls-8" d="M0,0H10V2H0Z" transform="translate(1157 376) rotate(90)"/>
      <rect id="Rectangle_2" data-name="Rectangle 2" class="cls-8" width="16" height="7" transform="translate(1084 394)"/>
      <rect id="Rectangle_3" data-name="Rectangle 3" class="cls-8" width="16" height="7" transform="translate(926 394)"/>
    </g>
    <g id="bushes">
      <circle id="Ellipse_221" data-name="Ellipse 221" class="cls-10" cx="6.752" cy="6.752" r="6.752" transform="translate(1333.443 361.415)"/>
      <circle id="Ellipse_220" data-name="Ellipse 220" class="cls-10" cx="6.752" cy="6.752" r="6.752" transform="translate(1341.16 369.132)"/>
      <circle id="Ellipse_208" data-name="Ellipse 208" class="cls-11" cx="6.752" cy="6.752" r="6.752" transform="translate(1337.302 374.92)"/>
      <circle id="Ellipse_222" data-name="Ellipse 222" class="cls-10" cx="6.752" cy="6.752" r="6.752" transform="translate(1323.797 357.557)"/>
      <circle id="Ellipse_223" data-name="Ellipse 223" class="cls-10" cx="6.752" cy="6.752" r="6.752" transform="translate(1316.08 357.557)"/>
      <circle id="Ellipse_224" data-name="Ellipse 224" class="cls-10" cx="6.752" cy="6.752" r="6.752" transform="translate(1304.505 359.486)"/>
      <circle id="Ellipse_228" data-name="Ellipse 228" class="cls-10" cx="6.752" cy="6.752" r="6.752" transform="translate(1296.505 361.486)"/>
      <circle id="Ellipse_229" data-name="Ellipse 229" class="cls-10" cx="6.752" cy="6.752" r="6.752" transform="translate(1288.505 361.486)"/>
      <circle id="Ellipse_230" data-name="Ellipse 230" class="cls-10" cx="6.752" cy="6.752" r="6.752" transform="translate(1280.505 364.486)"/>
      <circle id="Ellipse_231" data-name="Ellipse 231" class="cls-10" cx="6.752" cy="6.752" r="6.752" transform="translate(1269.505 362.486)"/>
      <circle id="Ellipse_209" data-name="Ellipse 209" class="cls-11" cx="6.752" cy="6.752" r="6.752" transform="translate(1329.585 369.132)"/>
      <circle id="Ellipse_210" data-name="Ellipse 210" class="cls-11" cx="6.752" cy="6.752" r="6.752" transform="translate(1319.939 371.061)"/>
      <circle id="Ellipse_211" data-name="Ellipse 211" class="cls-11" cx="6.752" cy="6.752" r="6.752" transform="translate(1310.292 367.203)"/>
      <circle id="Ellipse_212" data-name="Ellipse 212" class="cls-11" cx="6.752" cy="6.752" r="6.752" transform="translate(1319.939 363.345)"/>
      <circle id="Ellipse_213" data-name="Ellipse 213" class="cls-11" cx="6.752" cy="6.752" r="6.752" transform="translate(1300.646 365.274)"/>
      <circle id="Ellipse_214" data-name="Ellipse 214" class="cls-11" cx="6.752" cy="6.752" r="6.752" transform="translate(1310.292 359.486)"/>
      <circle id="Ellipse_215" data-name="Ellipse 215" class="cls-11" cx="6.752" cy="6.752" r="6.752" transform="translate(1291 367.203)"/>
      <circle id="Ellipse_225" data-name="Ellipse 225" class="cls-11" cx="6.752" cy="6.752" r="6.752" transform="translate(1282 368.203)"/>
      <circle id="Ellipse_226" data-name="Ellipse 226" class="cls-11" cx="6.752" cy="6.752" r="6.752" transform="translate(1273 366.203)"/>
      <circle id="Ellipse_227" data-name="Ellipse 227" class="cls-11" cx="6.752" cy="6.752" r="6.752" transform="translate(1263 367.203)"/>
      <circle id="Ellipse_199" data-name="Ellipse 199" class="cls-11" cx="6.752" cy="6.752" r="6.752" transform="translate(1381.674 384.566)"/>
      <circle id="Ellipse_200" data-name="Ellipse 200" class="cls-11" cx="6.752" cy="6.752" r="6.752" transform="translate(1389.391 386.495)"/>
      <circle id="Ellipse_217" data-name="Ellipse 217" class="cls-10" cx="6.752" cy="6.752" r="6.752" transform="translate(1375.886 365.274)"/>
      <circle id="Ellipse_218" data-name="Ellipse 218" class="cls-10" cx="6.752" cy="6.752" r="6.752" transform="translate(1383.603 371.061)"/>
      <circle id="Ellipse_201" data-name="Ellipse 201" class="cls-11" cx="6.752" cy="6.752" r="6.752" transform="translate(1385.532 378.778)"/>
      <circle id="Ellipse_216" data-name="Ellipse 216" class="cls-10" cx="6.752" cy="6.752" r="6.752" transform="translate(1366.24 367.203)"/>
      <circle id="Ellipse_202" data-name="Ellipse 202" class="cls-11" cx="6.752" cy="6.752" r="6.752" transform="translate(1372.028 382.637)"/>
      <circle id="Ellipse_203" data-name="Ellipse 203" class="cls-11" cx="6.752" cy="6.752" r="6.752" transform="translate(1377.816 374.92)"/>
      <circle id="Ellipse_204" data-name="Ellipse 204" class="cls-11" cx="6.752" cy="6.752" r="6.752" transform="translate(1368.169 374.92)"/>
      <circle id="Ellipse_219" data-name="Ellipse 219" class="cls-10" cx="6.752" cy="6.752" r="6.752" transform="translate(1350.806 367.203)"/>
      <circle id="Ellipse_205" data-name="Ellipse 205" class="cls-11" cx="6.752" cy="6.752" r="6.752" transform="translate(1360.452 380.708)"/>
      <circle id="Ellipse_206" data-name="Ellipse 206" class="cls-11" cx="6.752" cy="6.752" r="6.752" transform="translate(1358.523 371.061)"/>
      <circle id="Ellipse_207" data-name="Ellipse 207" class="cls-11" cx="6.752" cy="6.752" r="6.752" transform="translate(1348.877 376.849)"/>
    </g>
    <path id="ocean" class="cls-12" d="M0,0H1920V680H0Z" transform="translate(0 400)"/>
    <path id="Path_1" data-name="Path 1" class="cls-13" d="M-195.737-29.647C76.951-34.932,321.406,75.485,394.8,74.328s137.593-36,209.41-51.568,162.1,14.349,177.6,21.291,51.13,58.974,0,60.2-121.134,25.494-118.57,42.892,5.5,8.911,56.542,20.7,79.833,43.182,98.213,60.043-1.649,45.673-36.184,42.082-53.663,10.9-53.819,28.385,18.617,20.53,38.058,22.547,60.267,10.455,63.655,29.688,6.114,17.711-47.893,36.291S725.2,424.311,727.987,438.16s33.414,33.78,90,42.672,114.994,5.9,143.358,30.853,75.387,42.017,0,62.5-357.142,23.375-357.142,23.375H-739V6.895" transform="translate(619 354.239)"/>
    <path id="Path_43" data-name="Path 43" class="cls-14" d="M55.287,223l-6.444,8.243,3.168.587-5.866,9.845H64.574l-5.931-9.845,2.95-.587L55.393,223" transform="translate(1318.6 158.025)"/>
    <path id="Path_44" data-name="Path 44" class="cls-14" d="M53.3,223l-5.042,6.45,2.479.459-4.59,7.7h14.42l-4.641-7.7,2.309-.459L53.381,223" transform="translate(1262.61 145.025)"/>
    <path id="Path_45" data-name="Path 45" class="cls-14" d="M52.214,223l-4.278,5.473,2.1.39L46.145,235.4H58.38l-3.938-6.536,1.959-.39L52.285,223" transform="translate(1194.794 145.238)"/>
    <path id="Path_46" data-name="Path 46" class="cls-14" d="M52.214,223l-4.278,5.473,2.1.39L46.145,235.4H58.38l-3.938-6.536,1.959-.39L52.285,223" transform="translate(1291.794 160.238)"/>
    <path id="Path_47" data-name="Path 47" class="cls-14" d="M52.214,223l-4.278,5.473,2.1.39L46.145,235.4H58.38l-3.938-6.536,1.959-.39L52.285,223" transform="translate(1231.794 154.238)"/>
    <g id="Galiano">
      <path id="Path_32" data-name="Path 32" class="cls-11" d="M267,109.965c-.461-11.828-2.387-26.023,51.02-22.469s52.234-2.2,103.727,16.109-15.762,80.527,12.93,118.309,62.855,96.031,66.234,152.344-14.887,39.121-30.18,39.258-58.965-68.133-58.965-68.133-18.512-57.988-56.625-88.742-8.5-42.363-19.039-79.328S324.641,144,305.082,132.824,267,109.965,267,109.965Z" transform="translate(1322.131 294.06)"/>
      <path id="Path_33" data-name="Path 33" class="cls-14" d="M54.776,223l-6.084,7.782,2.991.554-5.538,9.295h17.4l-5.6-9.295,2.785-.554L54.876,223" transform="translate(1568.636 146.069)"/>
      <path id="Path_34" data-name="Path 34" class="cls-14" d="M54.027,223l-5.556,9.424,2.731.671L46.145,244.35h15.89L56.92,233.094l2.544-.671L54.119,223" transform="translate(1604.201 145.35)"/>
      <path id="Path_35" data-name="Path 35" class="cls-14" d="M55.59,223l-6.658,10.118,3.273.72-6.061,12.084H65.184l-6.127-12.084,3.048-.72L55.7,223" transform="translate(1636.649 146.778)"/>
      <path id="Path_36" data-name="Path 36" class="cls-14" d="M55.287,223l-6.444,8.243,3.168.587-5.866,9.845H64.574l-5.931-9.845,2.95-.587L55.393,223" transform="translate(1668.6 157.025)"/>
      <path id="Path_37" data-name="Path 37" class="cls-14" d="M57.887,223,49.61,233.587l4.069.754-7.534,12.645H69.814L62.2,234.34l3.789-.754L58.023,223" transform="translate(1668.6 222.715)"/>
      <path id="Path_38" data-name="Path 38" class="cls-14" d="M57.059,223l-7.693,9.84,3.782.7-7,11.753h22l-7.08-11.753,3.522-.7-7.4-9.84" transform="translate(1692.27 339.406)"/>
      <path id="Path_39" data-name="Path 39" class="cls-14" d="M54.576,223l-5.943,8.419,2.922.6-5.41,10.056h17l-5.47-10.056,2.721-.6L54.674,223" transform="translate(1739.18 407.785)"/>
    </g>
  </g>
</svg>
